<svg width="30" height="30" viewBox="0 0 30 30" fill="none" xmlns="http://www.w3.org/2000/svg">
<path fill-rule="evenodd" clip-rule="evenodd" d="M10.5927 1.15385C9.89723 1.15385 9.33346 1.71536 9.33346 2.40803C9.33346 3.10059 9.89707 3.66204 10.5924 3.66221C10.8371 4.04963 11.041 4.7329 10.8766 5.76116C10.6607 7.11034 9.80134 8.98259 7.64382 11.1627C6.15536 12.6667 5.32489 14.4002 4.92427 16.1709C4.89026 16.2691 4.86849 16.3714 4.85965 16.4753C4.41493 18.7161 4.63492 20.9987 5.06014 22.9361C5.45691 24.744 6.04918 26.3408 6.53891 27.4817C6.78459 28.0541 7.00655 28.5165 7.16877 28.8388C7.24993 29.0001 7.31631 29.1266 7.36342 29.2147C7.38699 29.2587 7.40575 29.2932 7.41916 29.3176L7.43518 29.3465L7.44006 29.3553L7.44169 29.3582C7.44169 29.3582 7.44277 29.3601 8.54062 28.7458L7.44277 29.3601C7.6657 29.7553 8.08545 30 8.54062 30H21.4593C21.9145 30 22.3342 29.7553 22.5572 29.3601L21.4593 28.7458C22.5572 29.3601 22.5572 29.3601 22.5572 29.3601L22.5583 29.3582L22.5599 29.3553L22.5648 29.3465L22.5808 29.3176C22.5942 29.2932 22.613 29.2587 22.6365 29.2147C22.6836 29.1266 22.75 29.0001 22.8312 28.8388C22.9934 28.5165 23.2153 28.0541 23.461 27.4817C23.9508 26.3408 24.543 24.744 24.9398 22.9361C25.721 19.3767 25.8095 14.6522 22.3561 11.1627C20.1986 8.98259 19.3392 7.11034 19.1234 5.76116C18.9589 4.7329 19.1629 4.04963 19.4076 3.6622C20.1029 3.66204 20.6665 3.10059 20.6665 2.40802C20.6665 1.71536 20.1027 1.15385 19.4073 1.15385H10.5927ZM7.25321 17.4044C7.00374 19.0407 7.16141 20.7643 7.5205 22.4005C7.87383 24.0104 8.40671 25.4523 8.85461 26.4957C9.02489 26.8924 9.18169 27.2287 9.30975 27.4916H20.6902C20.8183 27.2287 20.9751 26.8924 21.1453 26.4957C21.5932 25.4523 22.1261 24.0104 22.4794 22.4005C22.7951 20.9624 22.9551 19.4567 22.8198 18.0021C20.4711 19.3964 17.4565 18.9905 14.8144 17.7074C12.2106 16.4429 9.60414 16.2959 7.25321 17.4044ZM22.179 15.347C21.8142 14.4754 21.2881 13.6567 20.5625 12.9235C18.1495 10.4853 16.9568 8.15972 16.6363 6.15582C16.4931 5.2609 16.5254 4.41309 16.7125 3.6622L13.2875 3.6622C13.4745 4.41309 13.5068 5.2609 13.3637 6.15582C13.0431 8.15972 11.8504 10.4853 9.43743 12.9235C8.98012 13.3856 8.60206 13.8816 8.29368 14.4035C10.8217 13.8284 13.446 14.2522 15.9182 15.4528C18.5635 16.7374 20.7936 16.6496 22.179 15.347Z" fill="white"/>
</svg>
