<svg width="30" height="30" viewBox="0 0 30 30" fill="none" xmlns="http://www.w3.org/2000/svg">
<path d="M21.3926 4.99135C17.5229 4.18479 13.2257 4.771 10.6887 5.85016C7.36506 6.94546 4.88894 9.14189 3.17109 11.3499C1.45049 13.5615 0.423646 15.8695 0.0413682 17.3139C-0.0342633 17.5997 -0.0055491 17.9022 0.122248 18.1692L1.89142 21.8659C2.10531 22.3128 2.56324 22.5952 3.06314 22.5952H7.06689L8.73066 25.8398C9.05184 26.4662 9.82825 26.7154 10.4639 26.4055C11.1024 26.0942 11.3662 25.3324 11.0435 24.7031L9.0216 20.76C8.80115 20.3301 8.35256 20.0615 7.86517 20.0615H3.88583L2.67283 17.527C3.05147 16.3761 3.88681 14.6114 5.22984 12.8852C6.74017 10.9439 8.82739 9.13351 11.5268 8.24733C11.5766 8.23247 11.626 8.21453 11.6746 8.19344C13.6948 7.31785 17.4744 6.76514 20.8537 7.46948C22.5231 7.81743 24.0122 8.45547 25.135 9.43314C26.2367 10.3924 27.0464 11.7288 27.3075 13.6129C27.5931 15.6732 27.2692 17.2521 26.6431 18.4354C26.0154 19.6215 25.0418 20.4902 23.8952 21.0622C21.5361 22.2391 18.6203 22.0842 16.9065 21.0028C15.6708 20.2232 14.8861 18.6824 14.8638 17.0752C14.842 15.5022 15.5459 14.0703 17.035 13.3444C18.0657 12.842 18.8523 12.8164 19.4211 12.9599C20.0029 13.1066 20.4895 13.464 20.8472 13.9434C21.2119 14.4325 21.4008 14.9949 21.4208 15.4529C21.4415 15.9277 21.2884 16.0919 21.2441 16.1243C20.434 16.7167 20.003 16.6951 19.9038 16.683C19.8613 16.6779 19.8336 16.6688 19.8193 16.6631C19.3115 16.2436 18.5519 16.2671 18.0725 16.7345C17.5648 17.2296 17.5647 18.0346 18.0725 18.5297L18.0761 18.5331L18.2708 18.723L18.2869 18.7073C18.3568 18.7576 18.442 18.813 18.5427 18.8682C18.7952 19.0067 19.1439 19.1437 19.584 19.1973C20.4963 19.3085 21.5817 19.04 22.7929 18.1542C23.7622 17.4453 24.0486 16.3133 24.0064 15.3447C23.9632 14.3549 23.5833 13.3155 22.9372 12.4492C22.284 11.5735 21.3174 10.8217 20.0667 10.5063C18.8029 10.1876 17.378 10.3468 15.8815 11.0763C13.3259 12.3221 12.2437 14.7718 12.2761 17.1096C12.3081 19.4137 13.4185 21.8164 15.5046 23.1326C18.0876 24.7623 21.9958 24.8535 25.0702 23.3197C26.6405 22.5364 28.0364 21.3104 28.941 19.6009C29.8471 17.8885 30.2182 15.7709 29.872 13.2722C29.529 10.7977 28.4255 8.90743 26.8549 7.53989C25.3055 6.19079 23.3633 5.40209 21.3926 4.99135Z" fill="white"/>
<path d="M8.11791 14.6398C7.26859 14.6398 6.5712 15.3124 6.5712 16.153C6.5712 16.9936 7.26859 17.6663 8.11791 17.6663C8.96723 17.6663 9.66462 16.9936 9.66462 16.153C9.66462 15.3124 8.96723 14.6398 8.11791 14.6398Z" fill="white"/>
</svg>
