<svg width="30" height="30" viewBox="0 0 30 30" fill="none" xmlns="http://www.w3.org/2000/svg">
<path fill-rule="evenodd" clip-rule="evenodd" d="M23.932 9.62319C22.1436 5.81386 19.8627 3.45992 17.2427 2.22538C14.6342 0.996289 11.8536 0.954283 9.20488 1.45178C6.28089 2.00097 4.00841 4.0417 2.95596 6.4446C1.89654 8.8634 2.02463 11.8112 4.17403 13.9646C6.63335 16.4284 10.4835 15.9929 11.7722 13.3127C12.3734 12.0622 12.2812 10.5741 11.6182 9.467C11.2783 8.8994 10.7689 8.4019 10.0929 8.11729C9.40752 7.82875 8.63619 7.79533 7.84839 8.02082C7.18781 8.20989 6.80531 8.89963 6.99405 9.56139C7.18278 10.2231 7.87129 10.6063 8.53187 10.4173C8.83253 10.3312 9.01788 10.3682 9.12905 10.415C9.24956 10.4657 9.3766 10.5685 9.48473 10.7491C9.71778 11.1383 9.76775 11.7381 9.53073 12.2311C9.14293 13.0376 7.44916 13.7209 5.93329 12.2023C4.66185 10.9285 4.49217 9.14018 5.2342 7.44601C5.98319 5.73594 7.61136 4.28685 9.66335 3.90144C11.9906 3.46432 14.1988 3.54537 16.1838 4.4807C18.1572 5.41057 20.0744 7.26241 21.6807 10.6839C21.9178 11.1889 22.358 12.1463 22.8148 13.269C22.812 13.269 22.8092 13.269 22.8063 13.269H13.4767V19.4999C13.4767 24.6617 17.6537 28.8462 22.8063 28.8462H26.5382V17.0075C26.5382 16.9419 26.5365 16.8767 26.5332 16.8119C26.5459 16.6753 26.5362 16.5343 26.5011 16.3937C26.4836 16.3238 26.4656 16.2535 26.4471 16.1829C26.4231 16.076 26.3945 15.9708 26.3615 15.8675C25.6605 13.3648 24.3794 10.5761 23.932 9.62319ZM23.9844 16.6063C23.9982 16.6562 24.0116 16.7059 24.0248 16.7553C24.0415 16.8368 24.0503 16.9211 24.0503 17.0075V26.3538H22.8063C19.0278 26.3538 15.9646 23.2852 15.9646 19.4999V15.7614H22.8063C23.3532 15.7614 23.8177 16.1149 23.9844 16.6063Z" fill="white"/>
</svg>
