<svg width="30" height="30" viewBox="0 0 30 30" fill="none" xmlns="http://www.w3.org/2000/svg">
<g clip-path="url(#clip0_1112_3672)">
<path fill-rule="evenodd" clip-rule="evenodd" d="M6.29679 2.64706C4.98147 2.64706 3.89037 3.72916 3.89037 5.0948C3.89037 5.52913 4.00047 5.93284 4.19211 6.28291C4.54311 6.92408 4.30787 7.7284 3.66669 8.0794C3.02552 8.43041 2.2212 8.19517 1.8702 7.55399C1.47009 6.82311 1.24332 5.98342 1.24332 5.0948C1.24332 2.29481 3.49212 0 6.29679 0C9.10146 0 11.3503 2.29481 11.3503 5.0948C11.3503 5.98342 11.1235 6.82311 10.7234 7.55399C10.3724 8.19517 9.56807 8.43041 8.92689 8.0794C8.28571 7.7284 8.05048 6.92408 8.40148 6.28291C8.59311 5.93284 8.70321 5.52914 8.70321 5.0948C8.70321 3.72916 7.61211 2.64706 6.29679 2.64706ZM23.7032 2.64706C22.3879 2.64706 21.2968 3.72916 21.2968 5.0948C21.2968 5.52913 21.4069 5.93284 21.5985 6.28291C21.9495 6.92409 21.7143 7.7284 21.0731 8.0794C20.4319 8.4304 19.6276 8.19517 19.2766 7.55399C18.8765 6.82311 18.6497 5.98342 18.6497 5.0948C18.6497 2.29481 20.8985 0 23.7032 0C26.5079 0 28.7567 2.29481 28.7567 5.0948C28.7567 5.98342 28.5299 6.82311 28.1298 7.55399C27.7788 8.19517 26.9745 8.4304 26.3333 8.0794C25.6921 7.7284 25.4569 6.92408 25.8079 6.2829C25.9995 5.93284 26.1096 5.52914 26.1096 5.0948C26.1096 3.72916 25.0185 2.64706 23.7032 2.64706ZM23.7032 13.162L25.96 15.7008C26.8573 16.7103 27.3529 18.014 27.3529 19.3646V22.7206C27.3529 23.4516 27.9455 24.0441 28.6765 24.0441C29.4074 24.0441 30 23.4516 30 22.7206V19.3646C30 17.3657 29.2664 15.4362 27.9384 13.9422L25.6217 11.3359C24.6006 10.1872 22.8058 10.1872 21.7847 11.3359L19.468 13.9422C18.14 15.4362 17.4064 17.3657 17.4064 19.3646V22.7206C17.4064 23.4516 17.999 24.0441 18.7299 24.0441C19.4609 24.0441 20.0535 23.4516 20.0535 22.7206V19.3646C20.0535 18.014 20.5491 16.7103 21.4464 15.7008L23.7032 13.162ZM6.29679 13.162L8.55356 15.7008C9.45087 16.7103 9.94652 18.014 9.94652 19.3646V22.7206C9.94652 23.4516 10.5391 24.0441 11.2701 24.0441C12.001 24.0441 12.5936 23.4516 12.5936 22.7206V19.3646C12.5936 17.3657 11.86 15.4362 10.532 13.9422L8.21528 11.3359C7.19421 10.1872 5.39937 10.1872 4.37831 11.3359L2.06159 13.9422C0.733568 15.4362 0 17.3657 0 19.3646V22.7206C0 23.4516 0.592564 24.0441 1.32353 24.0441C2.05449 24.0441 2.64706 23.4516 2.64706 22.7206V19.3646C2.64706 18.014 3.14271 16.7103 4.04002 15.7008L6.29679 13.162ZM6.29679 23.262C7.02776 23.262 7.62032 23.8546 7.62032 24.5856V28.6765C7.62032 29.4074 7.02776 30 6.29679 30C5.56583 30 4.97326 29.4074 4.97326 28.6765V24.5856C4.97326 23.8546 5.56583 23.262 6.29679 23.262ZM23.7032 23.262C24.4342 23.262 25.0267 23.8546 25.0267 24.5856V28.6765C25.0267 29.4074 24.4342 30 23.7032 30C22.9722 30 22.3797 29.4074 22.3797 28.6765V24.5856C22.3797 23.8546 22.9722 23.262 23.7032 23.262Z" fill="white"/>
</g>
<defs>
<clipPath id="clip0_1112_3672">
<rect width="30" height="30" fill="white"/>
</clipPath>
</defs>
</svg>
