<svg width="30" height="30" viewBox="0 0 30 30" fill="none" xmlns="http://www.w3.org/2000/svg">
<path fill-rule="evenodd" clip-rule="evenodd" d="M10.3814 0.000124139C9.96094 0.000124139 9.57831 0.227579 9.39925 0.583955L7.35629 4.64991L1.90878 8.05223C1.50509 8.30436 1.32901 8.77685 1.47748 9.20958L3.91984 16.3282C4.09178 16.8293 4.6435 17.1247 5.19166 17.0091L8.17673 16.3796C8.7616 16.2562 9.12899 15.712 8.99733 15.1641C8.86567 14.6162 8.28481 14.272 7.69995 14.3953L5.68302 14.8207L3.79522 9.31846L8.81188 6.18523C8.97632 6.08252 9.10771 5.93971 9.19188 5.77219L11.0702 2.03401H12.2804C12.3768 2.03401 12.6108 2.07905 12.9857 2.2905C13.345 2.49319 13.7594 2.80716 14.1938 3.22674C15.0629 4.06606 15.9317 5.24961 16.5423 6.56969C17.7827 9.25143 17.8235 12.0952 15.3923 13.9587C15.3785 13.9693 15.3651 13.9801 15.352 13.9912L11.2311 16.1342C6.21937 18.4859 2.37197 21.7276 1.18291 26.462C1.0456 27.0087 1.40736 27.5562 1.99093 27.6848C2.57449 27.8134 3.15888 27.4745 3.29619 26.9278C4.27645 23.0248 7.47564 20.1673 12.2231 17.9435C12.237 17.937 12.2508 17.9302 12.2645 17.9231L19.3202 14.2537L19.3315 14.2477C20.4973 13.6243 21.2627 12.7097 21.7569 11.7009C21.7975 13.2652 21.3124 15.0155 19.6541 16.5691C18.5504 17.6031 17.5321 18.4511 16.59 19.2357L16.3588 19.4283C15.3636 20.2579 14.4331 21.0438 13.6366 21.8917C11.9841 23.6509 10.9459 25.6387 10.656 28.8985C10.6062 29.4582 11.0501 29.9498 11.6476 29.9964C12.245 30.0431 12.7697 29.6272 12.8195 29.0675C13.0723 26.2256 13.9337 24.6541 15.2664 23.2354C15.9624 22.4944 16.7958 21.7866 17.802 20.9477L18.0368 20.7522C18.9757 19.9703 20.0385 19.0853 21.1893 18.0072C23.3931 15.9426 24.0133 13.5518 23.9215 11.4874C23.8384 9.62012 23.1749 7.99377 22.5648 7.0382C22.5024 6.38014 22.3366 5.74594 22.0831 5.14592C22.7447 5.65142 23.3639 6.22376 23.9192 6.86786C26.4881 9.84747 27.8517 14.5545 25.3587 21.8069C25.1749 22.3415 25.4885 22.9145 26.0592 23.0866C26.6298 23.2588 27.2414 22.965 27.4252 22.4304C30.0883 14.6829 28.7381 9.22042 25.6081 5.5899C22.872 2.41625 18.9022 0.792108 15.5399 0.187511C15.3087 0.141747 15.075 0.104049 14.8393 0.0747674C14.6604 0.0493762 14.4836 0.026931 14.3094 0.00734465C14.2175 -0.00299089 14.1269 -0.00224001 14.0391 0.00847387C13.9055 0.00292772 13.7716 0.000124139 13.6373 0.000124139H10.3814ZM20.4216 7.6272C20.4216 9.06257 20.1434 10.4816 19.3937 11.4913C19.7991 9.54493 19.3356 7.49336 18.5343 5.761C17.9889 4.58193 17.2668 3.49047 16.4844 2.58595C18.7986 3.52161 20.4216 5.5235 20.4216 7.6272Z" fill="white"/>
<path d="M13.5824 7.00178C13.686 6.92504 13.6336 6.7661 13.5028 6.76052L9.9851 6.6104C9.86374 6.60522 9.79318 6.74022 9.87014 6.83037L10.459 7.52027C10.4795 7.54434 10.4908 7.5745 10.4908 7.60562V9.01762C10.4908 9.12954 10.6248 9.19268 10.7172 9.12426L13.5824 7.00178Z" fill="white"/>
</svg>
