<svg width="30" height="30" viewBox="0 0 30 30" fill="none" xmlns="http://www.w3.org/2000/svg">
<path fill-rule="evenodd" clip-rule="evenodd" d="M13.7841 0.980742C9.91005 0.980742 5.99833 2.30194 3.63058 5.29616C3.10752 5.94436 2.82747 6.70076 2.67298 7.33781C2.50259 8.04042 2.46225 8.6924 2.46225 9.10254C2.46225 13.0881 5.98961 16.1987 9.86824 16.1987H14.2597C14.3033 16.1987 14.3464 16.1964 14.3889 16.1919C14.4314 16.1964 14.4744 16.1987 14.518 16.1987C17.2916 16.1987 19.2529 18.3986 19.2529 21.4102C19.2529 24.1391 17.1388 26.3799 14.4451 26.6034C14.2691 26.6132 14.092 26.6191 13.914 26.6211C11.129 26.576 8.45799 24.917 8.33981 22.1737C8.34255 22.1576 8.34497 22.1414 8.34705 22.1251C8.39343 21.8318 8.57088 21.3804 8.92313 21.0562C9.23121 20.7727 9.77233 20.4903 10.7937 20.6551C11.4501 20.761 12.0706 20.3188 12.1778 19.6644C12.285 19.0097 11.8371 18.3946 11.1805 18.2886C9.48247 18.0146 8.17795 18.4744 7.28375 19.2972L7.27771 19.3028C7.18085 19.1815 7.07641 19.0629 6.96395 18.9484C6.01646 17.9841 4.59471 17.4119 2.713 17.7477C2.0582 17.8646 1.62073 18.4871 1.73899 19.1399C1.85718 19.7924 2.48505 20.2242 3.13952 20.1074C4.25165 19.9089 4.86163 20.2406 5.23755 20.6232C5.61394 21.0063 5.92637 21.5102 5.92226 21.9447C5.883 26.0944 9.80851 28.8355 13.6424 29.011C13.689 29.0164 13.7362 29.0192 13.7841 29.0192C13.8258 29.0192 13.8674 29.019 13.909 29.0187C13.9397 29.019 13.9705 29.0192 14.0013 29.0192C14.2071 29.0192 14.4111 29.0111 14.6129 28.9953C22.0061 28.5681 27.8653 22.4634 27.8653 15C27.8653 7.25977 21.5634 0.980742 13.7841 0.980742ZM5.60568 6.68758C5.62674 6.66197 5.64659 6.63571 5.66521 6.60889C7.45545 4.48105 10.4738 3.37818 13.7841 3.37818C20.226 3.37818 25.4526 8.57905 25.4526 15C25.4526 18.601 23.8089 21.8182 21.2283 23.9497C21.5116 23.1554 21.6656 22.3005 21.6656 21.4102C21.6656 17.3433 18.8794 13.8013 14.518 13.8013C14.4744 13.8013 14.4312 13.8036 14.3887 13.8081C14.3463 13.8036 14.3032 13.8013 14.2597 13.8013H9.86824C7.18529 13.8013 4.87495 11.6321 4.87495 9.10254C4.87495 8.8289 4.90367 8.37314 5.01854 7.89946C5.11801 7.48929 5.26649 7.13027 5.46214 6.86213L5.60568 6.68758Z" fill="white"/>
<path d="M10.5997 6.38618C9.75035 6.38618 9.05296 7.05887 9.05296 7.89946C9.05296 8.74004 9.75035 9.41274 10.5997 9.41274C11.449 9.41274 12.1464 8.74004 12.1464 7.89946C12.1464 7.05887 11.449 6.38618 10.5997 6.38618Z" fill="white"/>
</svg>
