<svg width="30" height="30" viewBox="0 0 30 30" fill="none" xmlns="http://www.w3.org/2000/svg">
<path d="M4.34018 10.6973C4.65016 8.23004 6.26049 6.54403 8.17053 5.80715C10.0788 5.07092 12.0519 5.35107 13.2717 6.48482L14.1953 7.79756H10.9616C10.1027 7.79756 9.40638 8.4903 9.40638 9.34485C9.40638 10.1994 10.1027 10.8921 10.9616 10.8921H17.1823C17.7622 10.8921 18.2939 10.5712 18.5617 10.0594C18.8295 9.54767 18.7889 8.93019 18.4563 8.45754L15.7348 4.58928C15.6828 4.51543 15.6245 4.44623 15.5604 4.38249C13.2725 2.10623 9.85307 1.83892 7.04603 2.92187C4.19339 4.02242 1.72145 6.59149 1.25384 10.3135C0.742191 14.3859 2.26129 17.252 4.26011 19.1423C6.19527 20.9724 8.52921 21.8514 9.74515 22.2072C9.84076 22.2352 9.93875 22.2539 10.0377 22.2632C9.95807 22.4236 9.88422 22.5864 9.81594 22.7509C9.22672 24.1704 9.01779 25.7827 9.01779 27.2989C9.01779 28.1534 9.71407 28.8462 10.573 28.8462C11.4319 28.8462 12.1281 28.1534 12.1281 27.2989C12.1281 26.0299 12.308 24.8543 12.6908 23.9322C13.0184 23.1428 13.4666 22.5961 14.0436 22.2701H16.2551C16.1767 22.4283 16.104 22.5888 16.0367 22.7509C15.4474 24.1704 15.2385 25.7827 15.2385 27.2989C15.2385 28.1534 15.9348 28.8462 16.7937 28.8462C17.6526 28.8462 18.3489 28.1534 18.3489 27.2989C18.3489 26.0299 18.5287 24.8543 18.9115 23.9322C19.2392 23.1428 19.6873 22.5961 20.2643 22.2701H22.4758C22.3974 22.4283 22.3247 22.5888 22.2574 22.7509C21.6682 24.1704 21.4592 25.7827 21.4592 27.2989C21.4592 28.1534 22.1555 28.8462 23.0144 28.8462C23.8733 28.8462 24.5696 28.1534 24.5696 27.2989C24.5696 26.0299 24.7494 24.8543 25.1322 23.9322C25.4599 23.1428 25.908 22.5961 26.485 22.2701H27.2909C28.1498 22.2701 28.8461 21.5773 28.8461 20.7228C28.8461 19.8682 28.1498 19.1755 27.2909 19.1755H26.1564C26.1348 19.175 26.1132 19.175 26.0916 19.1755H19.9357C19.9141 19.175 19.8925 19.175 19.8709 19.1755H13.715C13.6934 19.175 13.6718 19.175 13.6502 19.1755H10.4162C9.39831 18.8541 7.73768 18.1615 6.403 16.8993C5.03731 15.6077 3.96451 13.6874 4.34018 10.6973Z" fill="white"/>
</svg>
