<svg width="30" height="30" viewBox="0 0 30 30" fill="none" xmlns="http://www.w3.org/2000/svg">
<path fill-rule="evenodd" clip-rule="evenodd" d="M26.1205 3.87949C26.6778 4.43677 26.6778 5.3403 26.1205 5.89758L24.04 7.97811C27.5255 12.4566 27.2099 18.9348 23.0934 23.0513C22.5361 23.6086 21.6326 23.6086 21.0753 23.0513C20.518 22.494 20.518 21.5905 21.0753 21.0332C24.0752 18.0333 24.3836 13.3612 22.0006 10.0175L11.1011 20.917L11.6056 21.4215C12.1629 21.9788 12.1629 22.8823 11.6056 23.4396C11.0483 23.9969 10.1448 23.9969 9.58752 23.4396L9.083 22.9351L5.89761 26.1205C5.34033 26.6778 4.4368 26.6778 3.87951 26.1205C3.32223 25.5632 3.32223 24.6597 3.87951 24.1024L7.0649 20.917L6.56037 20.4125C6.00309 19.8552 6.00309 18.9517 6.56037 18.3944C7.11765 17.8371 8.02119 17.8371 8.57847 18.3944L9.08299 18.8989L19.9825 7.99937C16.6388 5.61638 11.9666 5.92482 8.96673 8.9247C8.40945 9.48198 7.50592 9.48198 6.94863 8.9247C6.39135 8.36742 6.39135 7.4639 6.94863 6.90662C11.0652 2.79012 17.5433 2.47458 22.0219 5.96002L24.1024 3.8795C24.6597 3.32222 25.5632 3.32222 26.1205 3.87949Z" fill="white"/>
</svg>
