<svg width="30" height="30" viewBox="0 0 30 30" fill="none" xmlns="http://www.w3.org/2000/svg">
<path fill-rule="evenodd" clip-rule="evenodd" d="M20.1072 0.928184C13.4922 -1.5583 7.62309 1.23679 4.95964 5.9184C3.63019 8.25522 3.10571 11.0599 3.71208 13.8572C4.30505 16.5927 5.95768 19.2249 8.81464 21.3641C9.54941 22.2138 10.4809 22.958 11.6426 23.5478C13.2069 24.342 14.1203 25.2019 14.7481 26.0963C15.3942 27.0167 15.7802 28.0271 16.2353 29.2625C16.4548 29.8587 17.0885 30.1531 17.6506 29.9202C18.2126 29.6873 18.4902 29.0152 18.2706 28.419C17.8256 27.2107 17.3469 25.9173 16.5009 24.7121C15.6367 23.4809 14.4308 22.3936 12.586 21.4571C11.7834 21.0496 11.1257 20.5513 10.5934 19.9823C10.5168 19.8437 10.4118 19.72 10.2802 19.6217C9.42876 18.5654 8.95686 17.3008 8.75648 15.9391C9.49723 17.2134 10.6311 18.4583 12.3783 19.439C12.4115 19.4576 12.4455 19.4744 12.4803 19.4893C15.1664 20.6397 16.9953 21.6577 18.3471 22.9592C19.6715 24.2343 20.6074 25.8507 21.3687 28.334C21.5553 28.9427 22.1717 29.2756 22.7456 29.0777C23.3195 28.8798 23.6334 28.2259 23.4468 27.6172C22.601 24.8581 21.4917 22.8565 19.8158 21.2429C18.7039 20.1724 17.3744 19.3047 15.7855 18.4929C13.2748 16.1095 12.745 12.3073 13.6377 9.00552C14.5545 5.61449 16.7617 3.36351 19.1637 3.4743C19.2186 3.47683 19.2726 3.47503 19.3256 3.46919L22.7093 8.48432C22.9636 8.86123 23.4052 9.04118 23.832 8.94186L24.8867 8.6964L24.6751 13.855C24.6693 13.995 24.6876 14.135 24.729 14.2682L25.1362 15.5786L19.4163 16.1951L17.5147 15.1866C16.9749 14.9004 16.3186 15.1324 16.0488 15.7049C15.7789 16.2774 15.9977 16.9735 16.5374 17.2598L18.7226 18.4187C18.9079 18.517 19.1157 18.5573 19.3217 18.5351L26.7102 17.7388C27.0396 17.7033 27.3361 17.5112 27.5163 17.2166C27.6965 16.9219 27.7411 16.5565 27.6374 16.2229L26.8669 13.7439L27.1316 7.29189C27.1464 6.9324 27.0029 6.58604 26.7432 6.35447C26.4836 6.1229 26.1372 6.03238 25.8059 6.1095L24.0672 6.51413L20.7967 1.66683C20.7627 1.55673 20.7135 1.45306 20.6511 1.35915C20.5812 1.25356 20.4943 1.15975 20.3927 1.08292C20.3068 1.01773 20.2109 0.965151 20.1072 0.928184ZM6.48543 15.2331C6.28656 12.1822 7.09629 9.04268 8.11623 6.74742C8.14741 6.67725 8.18438 6.61194 8.22624 6.55182C8.78777 5.38567 9.59132 4.33984 10.5719 3.46593C8.96919 4.32897 7.68342 5.61695 6.8306 7.11596C5.76997 8.98027 5.37256 11.1735 5.84173 13.3378C5.97808 13.9668 6.18956 14.602 6.48543 15.2331ZM9.54526 11.0467C9.29143 8.27851 10.9548 5.53408 13.6159 4.07757C12.6656 5.30658 11.9577 6.81115 11.5372 8.36657C10.8772 10.8075 10.8422 13.6154 11.7238 16.1439C10.0607 14.5045 9.67857 12.5006 9.54526 11.0467Z" fill="white"/>
</svg>
