<svg width="246" height="460" viewBox="0 0 246 460" fill="none" xmlns="http://www.w3.org/2000/svg">
<g id="01-&#235;&#172;&#188;&#235;&#179;&#145;">
<g id="message_light">
<path id="circle" fillRule="evenodd" clipRule="evenodd" d="M106.291 135.067C108.592 135.067 110.457 133.201 110.457 130.9C110.457 128.599 108.592 126.733 106.291 126.733C103.989 126.733 102.124 128.599 102.124 130.9C102.124 133.201 103.989 135.067 106.291 135.067ZM106.291 135.9C109.052 135.9 111.291 133.661 111.291 130.9C111.291 128.138 109.052 125.9 106.291 125.9C103.529 125.9 101.291 128.138 101.291 130.9C101.291 133.661 103.529 135.9 106.291 135.9Z" fill="white" fillOpacity="0.6"/>
</g>
<g id="message_light_2">
<path id="circle_2" fillRule="evenodd" clipRule="evenodd" d="M47.2905 196.067C49.5917 196.067 51.4572 194.201 51.4572 191.9C51.4572 189.599 49.5917 187.733 47.2905 187.733C44.9893 187.733 43.1239 189.599 43.1239 191.9C43.1239 194.201 44.9893 196.067 47.2905 196.067ZM47.2905 196.9C50.052 196.9 52.2905 194.661 52.2905 191.9C52.2905 189.138 50.052 186.9 47.2905 186.9C44.5291 186.9 42.2905 189.138 42.2905 191.9C42.2905 194.661 44.5291 196.9 47.2905 196.9Z" fill="white" fillOpacity="0.6"/>
</g>
<g id="message_light_3">
<path id="circle_3" fillRule="evenodd" clipRule="evenodd" d="M105.291 254.067C107.592 254.067 109.457 252.201 109.457 249.9C109.457 247.599 107.592 245.733 105.291 245.733C102.989 245.733 101.124 247.599 101.124 249.9C101.124 252.201 102.989 254.067 105.291 254.067ZM105.291 254.9C108.052 254.9 110.291 252.661 110.291 249.9C110.291 247.138 108.052 244.9 105.291 244.9C102.529 244.9 100.291 247.138 100.291 249.9C100.291 252.661 102.529 254.9 105.291 254.9Z" fill="white" fillOpacity="0.6"/>
</g>
<g id="message_light_4">
<path id="circle_4" fillRule="evenodd" clipRule="evenodd" d="M42.2905 250.067C44.5917 250.067 46.4572 248.201 46.4572 245.9C46.4572 243.599 44.5917 241.733 42.2905 241.733C39.9893 241.733 38.1239 243.599 38.1239 245.9C38.1239 248.201 39.9893 250.067 42.2905 250.067ZM42.2905 250.9C45.052 250.9 47.2905 248.661 47.2905 245.9C47.2905 243.138 45.052 240.9 42.2905 240.9C39.5291 240.9 37.2905 243.138 37.2905 245.9C37.2905 248.661 39.5291 250.9 42.2905 250.9Z" fill="white" fillOpacity="0.6"/>
</g>
<g id="message_light_5">
<path id="circle_5" fillRule="evenodd" clipRule="evenodd" d="M24.2905 292.167C26.5917 292.167 28.4572 290.301 28.4572 288C28.4572 285.699 26.5917 283.833 24.2905 283.833C21.9893 283.833 20.1239 285.699 20.1239 288C20.1239 290.301 21.9893 292.167 24.2905 292.167ZM24.2905 293C27.052 293 29.2905 290.761 29.2905 288C29.2905 285.239 27.052 283 24.2905 283C21.5291 283 19.2905 285.239 19.2905 288C19.2905 290.761 21.5291 293 24.2905 293Z" fill="white" fillOpacity="0.6"/>
</g>
<g id="message_light_6">
<path id="circle_6" fillRule="evenodd" clipRule="evenodd" d="M86.2905 370.067C88.5917 370.067 90.4572 368.201 90.4572 365.9C90.4572 363.599 88.5917 361.733 86.2905 361.733C83.9893 361.733 82.1239 363.599 82.1239 365.9C82.1239 368.201 83.9893 370.067 86.2905 370.067ZM86.2905 370.9C89.052 370.9 91.2905 368.661 91.2905 365.9C91.2905 363.138 89.052 360.9 86.2905 360.9C83.5291 360.9 81.2905 363.138 81.2905 365.9C81.2905 368.661 83.5291 370.9 86.2905 370.9Z" fill="white" fillOpacity="0.6"/>
</g>
<g id="message_light_7">
<path id="circle_7" fillRule="evenodd" clipRule="evenodd" d="M53.2905 402.067C55.5917 402.067 57.4572 400.201 57.4572 397.9C57.4572 395.599 55.5917 393.733 53.2905 393.733C50.9893 393.733 49.1239 395.599 49.1239 397.9C49.1239 400.201 50.9893 402.067 53.2905 402.067ZM53.2905 402.9C56.052 402.9 58.2905 400.661 58.2905 397.9C58.2905 395.138 56.052 392.9 53.2905 392.9C50.5291 392.9 48.2905 395.138 48.2905 397.9C48.2905 400.661 50.5291 402.9 53.2905 402.9Z" fill="white" fillOpacity="0.6"/>
</g>
<g id="message_light_8">
<path id="circle_8" fillRule="evenodd" clipRule="evenodd" d="M146.291 376.067C148.592 376.067 150.457 374.201 150.457 371.9C150.457 369.599 148.592 367.733 146.291 367.733C143.989 367.733 142.124 369.599 142.124 371.9C142.124 374.201 143.989 376.067 146.291 376.067ZM146.291 376.9C149.052 376.9 151.291 374.661 151.291 371.9C151.291 369.138 149.052 366.9 146.291 366.9C143.529 366.9 141.291 369.138 141.291 371.9C141.291 374.661 143.529 376.9 146.291 376.9Z" fill="white" fillOpacity="0.6"/>
</g>
<g id="message_light_9">
<path id="circle_9" fillRule="evenodd" clipRule="evenodd" d="M177 403.167C179.301 403.167 181.167 401.301 181.167 399C181.167 396.699 179.301 394.833 177 394.833C174.699 394.833 172.833 396.699 172.833 399C172.833 401.301 174.699 403.167 177 403.167ZM177 404C179.761 404 182 401.761 182 399C182 396.239 179.761 394 177 394C174.239 394 172 396.239 172 399C172 401.761 174.239 404 177 404Z" fill="white" fillOpacity="0.6"/>
</g>
<g id="message_light_10">
<path id="circle_10" fillRule="evenodd" clipRule="evenodd" d="M173.291 248.067C175.592 248.067 177.457 246.201 177.457 243.9C177.457 241.599 175.592 239.733 173.291 239.733C170.989 239.733 169.124 241.599 169.124 243.9C169.124 246.201 170.989 248.067 173.291 248.067ZM173.291 248.9C176.052 248.9 178.291 246.661 178.291 243.9C178.291 241.138 176.052 238.9 173.291 238.9C170.529 238.9 168.291 241.138 168.291 243.9C168.291 246.661 170.529 248.9 173.291 248.9Z" fill="white" fillOpacity="0.6"/>
</g>
<g id="message_light_11">
<g id="light">
<circle id="Ellipse 73" cx="135.291" cy="81" r="22" transform="rotate(-90 135.291 81)" fill="url(#paint0_radial_936_4187)"/>
<circle id="Ellipse 76" cx="135.291" cy="81" r="22" fill="url(#paint1_radial_936_4187)"/>
<circle id="Ellipse 74" cx="135.291" cy="80.598" r="28" transform="rotate(45 135.291 80.598)" fill="url(#paint2_radial_936_4187)"/>
<circle id="Ellipse 75" cx="134.889" cy="81" r="28" transform="rotate(-45 134.889 81)" fill="url(#paint3_radial_936_4187)"/>
<circle id="center_circle" cx="135.291" cy="81" r="2" fill="white"/>
</g>
<path id="circle_11" fillRule="evenodd" clipRule="evenodd" d="M135.291 85.1667C137.592 85.1667 139.457 83.3012 139.457 81C139.457 78.6988 137.592 76.8333 135.291 76.8333C132.989 76.8333 131.124 78.6988 131.124 81C131.124 83.3012 132.989 85.1667 135.291 85.1667ZM135.291 86C138.052 86 140.291 83.7614 140.291 81C140.291 78.2386 138.052 76 135.291 76C132.529 76 130.291 78.2386 130.291 81C130.291 83.7614 132.529 86 135.291 86Z" fill="white" fillOpacity="0.6"/>
</g>
<g id="message_light_12">
<circle id="Ellipse 52" cx="162.291" cy="36.6649" r="2.32258" fill="white"/>
<path id="circle_12" fillRule="evenodd" clipRule="evenodd" d="M162.291 45.8315C167.353 45.8315 171.457 41.7274 171.457 36.6648C171.457 31.6022 167.353 27.4981 162.291 27.4981C157.228 27.4981 153.124 31.6022 153.124 36.6648C153.124 41.7274 157.228 45.8315 162.291 45.8315ZM162.291 46.6648C167.814 46.6648 172.291 42.1876 172.291 36.6648C172.291 31.1419 167.814 26.6648 162.291 26.6648C156.768 26.6648 152.291 31.1419 152.291 36.6648C152.291 42.1876 156.768 46.6648 162.291 46.6648Z" fill="white" fillOpacity="0.6"/>
<g id="light_2">
<circle id="Ellipse 73_2" cx="162.399" cy="37.009" r="27.949" transform="rotate(-62.5848 162.399 37.009)" fill="url(#paint4_radial_936_4187)"/>
<circle id="Ellipse 76_2" cx="162.4" cy="37.0091" r="27.949" transform="rotate(27.4152 162.4 37.0091)" fill="url(#paint5_radial_936_4187)"/>
<circle id="Ellipse 74_2" cx="162.635" cy="36.5559" r="35.5714" transform="rotate(72.4152 162.635 36.5559)" fill="url(#paint6_radial_936_4187)"/>
<circle id="Ellipse 75_2" cx="161.946" cy="36.774" r="35.5714" transform="rotate(-17.5848 161.946 36.774)" fill="url(#paint7_radial_936_4187)"/>
<circle id="center_circle_2" cx="162.401" cy="37.0093" r="2.54082" transform="rotate(27.4152 162.401 37.0093)" fill="white"/>
<circle id="Ellipse 77" cx="162.244" cy="37.0227" r="27.949" transform="rotate(-37.6851 162.244 37.0227)" fill="url(#paint8_radial_936_4187)"/>
<circle id="Ellipse 78" cx="162.245" cy="37.0232" r="27.949" transform="rotate(52.3149 162.245 37.0232)" fill="url(#paint9_radial_936_4187)"/>
<circle id="Ellipse 79" cx="162.649" cy="36.7109" r="35.5714" transform="rotate(97.3149 162.649 36.7109)" fill="url(#paint10_radial_936_4187)"/>
<circle id="Ellipse 80" cx="161.933" cy="36.6191" r="35.5714" transform="rotate(7.31488 161.933 36.6191)" fill="url(#paint11_radial_936_4187)"/>
<circle id="center_circle_3" cx="162.245" cy="37.0237" r="2.54082" transform="rotate(52.3149 162.245 37.0237)" fill="white"/>
</g>
</g>
<g id="message_light_13">
<path id="circle_13" fillRule="evenodd" clipRule="evenodd" d="M221.291 440.167C223.592 440.167 225.457 438.301 225.457 436C225.457 433.699 223.592 431.833 221.291 431.833C218.989 431.833 217.124 433.699 217.124 436C217.124 438.301 218.989 440.167 221.291 440.167ZM221.291 441C224.052 441 226.291 438.761 226.291 436C226.291 433.239 224.052 431 221.291 431C218.529 431 216.291 433.239 216.291 436C216.291 438.761 218.529 441 221.291 441Z" fill="white" fillOpacity="0.6"/>
</g>
<path id="line" d="M159.538 41.4424L138.158 77.0895M133.365 85.0219L109.29 127.4M102.79 134.4L50.3694 188.498M44.4336 195.356L42.0673 241.399M40.5559 250.21L24.3098 283.152M25.1331 292.436L49.6474 395.125M57.5886 396.051L81.9334 367.334M90.4361 364.206L142.374 369.741M149.794 374.834L173.945 395.968M180.342 402.364L217.656 432.721M109.686 251.45L168.165 244.158M50.8106 194.795L100.885 247.812" stroke="white" strokeOpacity="0.4" stroke-width="0.5"/>
</g>
<defs>
<radialGradient id="paint0_radial_936_4187" cx="0" cy="0" r="1" gradientUnits="userSpaceOnUse" gradientTransform="translate(135.291 81) rotate(90) scale(20.1903 0.853205)">
<stop stop-color="white"/>
<stop offset="0.605329" stop-color="white" stop-opacity="0"/>
</radialGradient>
<radialGradient id="paint1_radial_936_4187" cx="0" cy="0" r="1" gradientUnits="userSpaceOnUse" gradientTransform="translate(135.291 81) rotate(90) scale(20.1903 0.853205)">
<stop stop-color="white"/>
<stop offset="0.605329" stop-color="white" stop-opacity="0"/>
</radialGradient>
<radialGradient id="paint2_radial_936_4187" cx="0" cy="0" r="1" gradientUnits="userSpaceOnUse" gradientTransform="translate(135.291 80.598) rotate(90) scale(25.6967 1.0859)">
<stop stop-color="white"/>
<stop offset="0.625" stop-color="white" stop-opacity="0.1"/>
<stop offset="1" stop-color="white" stop-opacity="0"/>
</radialGradient>
<radialGradient id="paint3_radial_936_4187" cx="0" cy="0" r="1" gradientUnits="userSpaceOnUse" gradientTransform="translate(134.889 81) rotate(90) scale(25.6967 1.0859)">
<stop stop-color="white"/>
<stop offset="0.625" stop-color="white" stop-opacity="0.1"/>
<stop offset="1" stop-color="white" stop-opacity="0"/>
</radialGradient>
<radialGradient id="paint4_radial_936_4187" cx="0" cy="0" r="1" gradientUnits="userSpaceOnUse" gradientTransform="translate(162.399 37.009) rotate(90) scale(25.6499 1.08392)">
<stop stop-color="white"/>
<stop offset="0.605329" stop-color="white" stop-opacity="0"/>
</radialGradient>
<radialGradient id="paint5_radial_936_4187" cx="0" cy="0" r="1" gradientUnits="userSpaceOnUse" gradientTransform="translate(162.4 37.0091) rotate(90) scale(25.6499 1.08392)">
<stop stop-color="white"/>
<stop offset="0.605329" stop-color="white" stop-opacity="0"/>
</radialGradient>
<radialGradient id="paint6_radial_936_4187" cx="0" cy="0" r="1" gradientUnits="userSpaceOnUse" gradientTransform="translate(162.635 36.5559) rotate(90) scale(32.6453 1.37953)">
<stop stop-color="white"/>
<stop offset="0.625" stop-color="white" stop-opacity="0.1"/>
<stop offset="1" stop-color="white" stop-opacity="0"/>
</radialGradient>
<radialGradient id="paint7_radial_936_4187" cx="0" cy="0" r="1" gradientUnits="userSpaceOnUse" gradientTransform="translate(161.946 36.774) rotate(90) scale(32.6453 1.37953)">
<stop stop-color="white"/>
<stop offset="0.625" stop-color="white" stop-opacity="0.1"/>
<stop offset="1" stop-color="white" stop-opacity="0"/>
</radialGradient>
<radialGradient id="paint8_radial_936_4187" cx="0" cy="0" r="1" gradientUnits="userSpaceOnUse" gradientTransform="translate(162.244 37.0227) rotate(90) scale(25.6499 1.08392)">
<stop stop-color="white"/>
<stop offset="0.605329" stop-color="white" stop-opacity="0"/>
</radialGradient>
<radialGradient id="paint9_radial_936_4187" cx="0" cy="0" r="1" gradientUnits="userSpaceOnUse" gradientTransform="translate(162.245 37.0232) rotate(90) scale(25.6499 1.08392)">
<stop stop-color="white"/>
<stop offset="0.605329" stop-color="white" stop-opacity="0"/>
</radialGradient>
<radialGradient id="paint10_radial_936_4187" cx="0" cy="0" r="1" gradientUnits="userSpaceOnUse" gradientTransform="translate(162.649 36.7109) rotate(90) scale(32.6453 1.37953)">
<stop stop-color="white"/>
<stop offset="0.625" stop-color="white" stop-opacity="0.1"/>
<stop offset="1" stop-color="white" stop-opacity="0"/>
</radialGradient>
<radialGradient id="paint11_radial_936_4187" cx="0" cy="0" r="1" gradientUnits="userSpaceOnUse" gradientTransform="translate(161.933 36.6191) rotate(90) scale(32.6453 1.37953)">
<stop stop-color="white"/>
<stop offset="0.625" stop-color="white" stop-opacity="0.1"/>
<stop offset="1" stop-color="white" stop-opacity="0"/>
</radialGradient>
</defs>
</svg>
