<svg width="246" height="438" viewBox="0 0 246 438" fill="none" xmlns="http://www.w3.org/2000/svg">
<g filter="url(#filter0_d_839_6700)">
<g filter="url(#filter1_d_839_6700)">
<path fillRule="evenodd" clipRule="evenodd" d="M77.2607 53.584C79.5619 53.584 81.4274 51.7185 81.4274 49.4174C81.4274 47.1162 79.5619 45.2507 77.2607 45.2507C74.9596 45.2507 73.0941 47.1162 73.0941 49.4174C73.0941 51.7185 74.9596 53.584 77.2607 53.584ZM77.2607 54.4174C80.0222 54.4174 82.2607 52.1788 82.2607 49.4174C82.2607 46.6559 80.0222 44.4174 77.2607 44.4174C74.4993 44.4174 72.2607 46.6559 72.2607 49.4174C72.2607 52.1788 74.4993 54.4174 77.2607 54.4174Z" fill="white" fillOpacity="0.6" shape-rendering="crispEdges"/>
</g>
</g>
<g filter="url(#filter2_d_839_6700)">
<g filter="url(#filter3_d_839_6700)">
<path fillRule="evenodd" clipRule="evenodd" d="M110.689 28.378C112.991 28.378 114.856 26.5125 114.856 24.2113C114.856 21.9101 112.991 20.0446 110.689 20.0446C108.388 20.0446 106.523 21.9101 106.523 24.2113C106.523 26.5125 108.388 28.378 110.689 28.378ZM110.689 29.2113C113.451 29.2113 115.689 26.9727 115.689 24.2113C115.689 21.4499 113.451 19.2113 110.689 19.2113C107.928 19.2113 105.689 21.4499 105.689 24.2113C105.689 26.9727 107.928 29.2113 110.689 29.2113Z" fill="white" fillOpacity="0.6" shape-rendering="crispEdges"/>
</g>
</g>
<g filter="url(#filter4_d_839_6700)">
<g filter="url(#filter5_d_839_6700)">
<path fillRule="evenodd" clipRule="evenodd" d="M153.275 78.5945C155.577 78.5945 157.442 76.729 157.442 74.4279C157.442 72.1267 155.577 70.2612 153.275 70.2612C150.974 70.2612 149.109 72.1267 149.109 74.4279C149.109 76.729 150.974 78.5945 153.275 78.5945ZM153.275 79.4279C156.037 79.4279 158.275 77.1893 158.275 74.4279C158.275 71.6664 156.037 69.4279 153.275 69.4279C150.514 69.4279 148.275 71.6664 148.275 74.4279C148.275 77.1893 150.514 79.4279 153.275 79.4279Z" fill="white" fillOpacity="0.6" shape-rendering="crispEdges"/>
</g>
</g>
<g filter="url(#filter6_d_839_6700)">
<g filter="url(#filter7_d_839_6700)">
<path fillRule="evenodd" clipRule="evenodd" d="M165.514 165.702C167.815 165.702 169.68 163.837 169.68 161.536C169.68 159.234 167.815 157.369 165.514 157.369C163.212 157.369 161.347 159.234 161.347 161.536C161.347 163.837 163.212 165.702 165.514 165.702ZM165.514 166.536C168.275 166.536 170.514 164.297 170.514 161.536C170.514 158.774 168.275 156.536 165.514 156.536C162.752 156.536 160.514 158.774 160.514 161.536C160.514 164.297 162.752 166.536 165.514 166.536Z" fill="white" fillOpacity="0.6" shape-rendering="crispEdges"/>
</g>
</g>
<g filter="url(#filter8_d_839_6700)">
<g filter="url(#filter9_d_839_6700)">
<path fillRule="evenodd" clipRule="evenodd" d="M124.845 171.114C127.146 171.114 129.011 169.249 129.011 166.947C129.011 164.646 127.146 162.781 124.845 162.781C122.544 162.781 120.678 164.646 120.678 166.947C120.678 169.249 122.544 171.114 124.845 171.114ZM124.845 171.947C127.606 171.947 129.845 169.709 129.845 166.947C129.845 164.186 127.606 161.947 124.845 161.947C122.083 161.947 119.845 164.186 119.845 166.947C119.845 169.709 122.083 171.947 124.845 171.947Z" fill="white" fillOpacity="0.6" shape-rendering="crispEdges"/>
</g>
</g>
<g filter="url(#filter10_d_839_6700)">
<g filter="url(#filter11_d_839_6700)">
<path fillRule="evenodd" clipRule="evenodd" d="M108.319 248.037C110.621 248.037 112.486 246.171 112.486 243.87C112.486 241.569 110.621 239.704 108.319 239.704C106.018 239.704 104.153 241.569 104.153 243.87C104.153 246.171 106.018 248.037 108.319 248.037ZM108.319 248.87C111.081 248.87 113.319 246.632 113.319 243.87C113.319 241.109 111.081 238.87 108.319 238.87C105.558 238.87 103.319 241.109 103.319 243.87C103.319 246.632 105.558 248.87 108.319 248.87Z" fill="white" fillOpacity="0.6" shape-rendering="crispEdges"/>
</g>
</g>
<g filter="url(#filter12_d_839_6700)">
<g filter="url(#filter13_d_839_6700)">
<path fillRule="evenodd" clipRule="evenodd" d="M176.946 233.716C179.247 233.716 181.113 231.851 181.113 229.55C181.113 227.248 179.247 225.383 176.946 225.383C174.645 225.383 172.78 227.248 172.78 229.55C172.78 231.851 174.645 233.716 176.946 233.716ZM176.946 234.55C179.708 234.55 181.946 232.311 181.946 229.55C181.946 226.788 179.708 224.55 176.946 224.55C174.185 224.55 171.946 226.788 171.946 229.55C171.946 232.311 174.185 234.55 176.946 234.55Z" fill="white" fillOpacity="0.6" shape-rendering="crispEdges"/>
</g>
</g>
<g filter="url(#filter14_d_839_6700)">
<g filter="url(#filter15_d_839_6700)">
<path fillRule="evenodd" clipRule="evenodd" d="M221.821 254.709C224.122 254.709 225.988 252.843 225.988 250.542C225.988 248.241 224.122 246.375 221.821 246.375C219.52 246.375 217.655 248.241 217.655 250.542C217.655 252.843 219.52 254.709 221.821 254.709ZM221.821 255.542C224.583 255.542 226.821 253.304 226.821 250.542C226.821 247.781 224.583 245.542 221.821 245.542C219.06 245.542 216.821 247.781 216.821 250.542C216.821 253.304 219.06 255.542 221.821 255.542Z" fill="white" fillOpacity="0.6" shape-rendering="crispEdges"/>
</g>
</g>
<g filter="url(#filter16_d_839_6700)">
<g filter="url(#filter17_d_839_6700)">
<path fillRule="evenodd" clipRule="evenodd" d="M150.32 340.58C152.621 340.58 154.487 338.715 154.487 336.413C154.487 334.112 152.621 332.247 150.32 332.247C148.019 332.247 146.154 334.112 146.154 336.413C146.154 338.715 148.019 340.58 150.32 340.58ZM150.32 341.413C153.082 341.413 155.32 339.175 155.32 336.413C155.32 333.652 153.082 331.413 150.32 331.413C147.559 331.413 145.32 333.652 145.32 336.413C145.32 339.175 147.559 341.413 150.32 341.413Z" fill="white" fillOpacity="0.6" shape-rendering="crispEdges"/>
</g>
</g>
<g filter="url(#filter18_d_839_6700)">
<g filter="url(#filter19_d_839_6700)">
<path fillRule="evenodd" clipRule="evenodd" d="M120.447 348.945C122.748 348.945 124.614 347.079 124.614 344.778C124.614 342.477 122.748 340.611 120.447 340.611C118.146 340.611 116.281 342.477 116.281 344.778C116.281 347.079 118.146 348.945 120.447 348.945ZM120.447 349.778C123.209 349.778 125.447 347.539 125.447 344.778C125.447 342.017 123.209 339.778 120.447 339.778C117.686 339.778 115.447 342.017 115.447 344.778C115.447 347.539 117.686 349.778 120.447 349.778Z" fill="white" fillOpacity="0.6" shape-rendering="crispEdges"/>
</g>
</g>
<g filter="url(#filter20_d_839_6700)">
<g filter="url(#filter21_d_839_6700)">
<path fillRule="evenodd" clipRule="evenodd" d="M53.9629 316.195C56.2641 316.195 58.1296 314.33 58.1296 312.029C58.1296 309.727 56.2641 307.862 53.9629 307.862C51.6617 307.862 49.7962 309.727 49.7962 312.029C49.7962 314.33 51.6617 316.195 53.9629 316.195ZM53.9629 317.029C56.7243 317.029 58.9629 314.79 58.9629 312.029C58.9629 309.267 56.7243 307.029 53.9629 307.029C51.2015 307.029 48.9629 309.267 48.9629 312.029C48.9629 314.79 51.2015 317.029 53.9629 317.029Z" fill="white" fillOpacity="0.6" shape-rendering="crispEdges"/>
</g>
</g>
<g filter="url(#filter22_d_839_6700)">
<g filter="url(#filter23_d_839_6700)">
<path fillRule="evenodd" clipRule="evenodd" d="M24.9595 391.258C27.2607 391.258 29.1261 389.392 29.1261 387.091C29.1261 384.79 27.2607 382.924 24.9595 382.924C22.6583 382.924 20.7928 384.79 20.7928 387.091C20.7928 389.392 22.6583 391.258 24.9595 391.258ZM24.9595 392.091C27.7209 392.091 29.9595 389.852 29.9595 387.091C29.9595 384.33 27.7209 382.091 24.9595 382.091C22.198 382.091 19.9595 384.33 19.9595 387.091C19.9595 389.852 22.198 392.091 24.9595 392.091Z" fill="white" fillOpacity="0.6" shape-rendering="crispEdges"/>
</g>
</g>
<g filter="url(#filter24_d_839_6700)">
<g filter="url(#filter25_d_839_6700)">
<path fillRule="evenodd" clipRule="evenodd" d="M104.169 417.752C106.47 417.752 108.336 415.887 108.336 413.586C108.336 411.285 106.47 409.419 104.169 409.419C101.868 409.419 100.002 411.285 100.002 413.586C100.002 415.887 101.868 417.752 104.169 417.752ZM104.169 418.586C106.93 418.586 109.169 416.347 109.169 413.586C109.169 410.824 106.93 408.586 104.169 408.586C101.408 408.586 99.1689 410.824 99.1689 413.586C99.1689 416.347 101.408 418.586 104.169 418.586Z" fill="white" fillOpacity="0.6" shape-rendering="crispEdges"/>
</g>
</g>
<g filter="url(#filter26_d_839_6700)">
<g filter="url(#filter27_d_839_6700)">
<path fillRule="evenodd" clipRule="evenodd" d="M52.3833 143.739C54.6845 143.739 56.55 141.874 56.55 139.572C56.55 137.271 54.6845 135.406 52.3833 135.406C50.0821 135.406 48.2166 137.271 48.2166 139.572C48.2166 141.874 50.0821 143.739 52.3833 143.739ZM52.3833 144.572C55.1447 144.572 57.3833 142.334 57.3833 139.572C57.3833 136.811 55.1447 134.572 52.3833 134.572C49.6219 134.572 47.3833 136.811 47.3833 139.572C47.3833 142.334 49.6219 144.572 52.3833 144.572Z" fill="white" fillOpacity="0.6" shape-rendering="crispEdges"/>
</g>
</g>
<g filter="url(#filter28_d_839_6700)">
<path d="M105.957 25.3887L80.867 46.1786M114.399 27.5122L149.658 70.5213M155.368 77.923L164.857 156.943M161.21 161.875L129.658 166.518M125.439 171.622L111.187 239.945M167.369 166.766L176.304 224.747M176.98 234.2L152.357 332.081M147.286 340.098L124.916 344.557M106.752 248.249L55.9694 307.833M116.051 343.836L58.4644 314.239M51.0024 315.876L26.9619 382.305M118.586 349.086L106.134 409.552M181.635 230.049L219.355 248.511M119.972 166.423L56.1879 142.216" stroke="white" strokeOpacity="0.4" stroke-width="0.5" shape-rendering="crispEdges"/>
</g>
<defs>
<filter id="filter0_d_839_6700" x="41.2607" y="13.4174" width="72" height="72" filterUnits="userSpaceOnUse" color-interpolation-filters="sRGB">
<feFlood flood-opacity="0" result="BackgroundImageFix"/>
<feColorMatrix in="SourceAlpha" type="matrix" values="0 0 0 0 0 0 0 0 0 0 0 0 0 0 0 0 0 0 127 0" result="hardAlpha"/>
<feMorphology radius="8" operator="dilate" in="SourceAlpha" result="effect1_dropShadow_839_6700"/>
<feOffset/>
<feGaussianBlur stdDeviation="2"/>
<feComposite in2="hardAlpha" operator="out"/>
<feColorMatrix type="matrix" values="0 0 0 0 1 0 0 0 0 1 0 0 0 0 1 0 0 0 0.6 0"/>
<feBlend mode="normal" in2="BackgroundImageFix" result="effect1_dropShadow_839_6700"/>
<feBlend mode="normal" in="SourceGraphic" in2="effect1_dropShadow_839_6700" result="shape"/>
</filter>
<filter id="filter1_d_839_6700" x="60.2607" y="32.4174" width="34" height="34" filterUnits="userSpaceOnUse" color-interpolation-filters="sRGB">
<feFlood flood-opacity="0" result="BackgroundImageFix"/>
<feColorMatrix in="SourceAlpha" type="matrix" values="0 0 0 0 0 0 0 0 0 0 0 0 0 0 0 0 0 0 127 0" result="hardAlpha"/>
<feMorphology radius="8" operator="dilate" in="SourceAlpha" result="effect1_dropShadow_839_6700"/>
<feOffset/>
<feGaussianBlur stdDeviation="2"/>
<feComposite in2="hardAlpha" operator="out"/>
<feColorMatrix type="matrix" values="0 0 0 0 1 0 0 0 0 1 0 0 0 0 1 0 0 0 0.6 0"/>
<feBlend mode="normal" in2="BackgroundImageFix" result="effect1_dropShadow_839_6700"/>
<feBlend mode="normal" in="SourceGraphic" in2="effect1_dropShadow_839_6700" result="shape"/>
</filter>
<filter id="filter2_d_839_6700" x="74.6895" y="-11.7887" width="72" height="72" filterUnits="userSpaceOnUse" color-interpolation-filters="sRGB">
<feFlood flood-opacity="0" result="BackgroundImageFix"/>
<feColorMatrix in="SourceAlpha" type="matrix" values="0 0 0 0 0 0 0 0 0 0 0 0 0 0 0 0 0 0 127 0" result="hardAlpha"/>
<feMorphology radius="8" operator="dilate" in="SourceAlpha" result="effect1_dropShadow_839_6700"/>
<feOffset/>
<feGaussianBlur stdDeviation="2"/>
<feComposite in2="hardAlpha" operator="out"/>
<feColorMatrix type="matrix" values="0 0 0 0 1 0 0 0 0 1 0 0 0 0 1 0 0 0 0.6 0"/>
<feBlend mode="normal" in2="BackgroundImageFix" result="effect1_dropShadow_839_6700"/>
<feBlend mode="normal" in="SourceGraphic" in2="effect1_dropShadow_839_6700" result="shape"/>
</filter>
<filter id="filter3_d_839_6700" x="93.6895" y="7.2113" width="34" height="34" filterUnits="userSpaceOnUse" color-interpolation-filters="sRGB">
<feFlood flood-opacity="0" result="BackgroundImageFix"/>
<feColorMatrix in="SourceAlpha" type="matrix" values="0 0 0 0 0 0 0 0 0 0 0 0 0 0 0 0 0 0 127 0" result="hardAlpha"/>
<feMorphology radius="8" operator="dilate" in="SourceAlpha" result="effect1_dropShadow_839_6700"/>
<feOffset/>
<feGaussianBlur stdDeviation="2"/>
<feComposite in2="hardAlpha" operator="out"/>
<feColorMatrix type="matrix" values="0 0 0 0 1 0 0 0 0 1 0 0 0 0 1 0 0 0 0.6 0"/>
<feBlend mode="normal" in2="BackgroundImageFix" result="effect1_dropShadow_839_6700"/>
<feBlend mode="normal" in="SourceGraphic" in2="effect1_dropShadow_839_6700" result="shape"/>
</filter>
<filter id="filter4_d_839_6700" x="117.275" y="38.4279" width="72" height="72" filterUnits="userSpaceOnUse" color-interpolation-filters="sRGB">
<feFlood flood-opacity="0" result="BackgroundImageFix"/>
<feColorMatrix in="SourceAlpha" type="matrix" values="0 0 0 0 0 0 0 0 0 0 0 0 0 0 0 0 0 0 127 0" result="hardAlpha"/>
<feMorphology radius="8" operator="dilate" in="SourceAlpha" result="effect1_dropShadow_839_6700"/>
<feOffset/>
<feGaussianBlur stdDeviation="2"/>
<feComposite in2="hardAlpha" operator="out"/>
<feColorMatrix type="matrix" values="0 0 0 0 1 0 0 0 0 1 0 0 0 0 1 0 0 0 0.6 0"/>
<feBlend mode="normal" in2="BackgroundImageFix" result="effect1_dropShadow_839_6700"/>
<feBlend mode="normal" in="SourceGraphic" in2="effect1_dropShadow_839_6700" result="shape"/>
</filter>
<filter id="filter5_d_839_6700" x="136.275" y="57.4279" width="34" height="34" filterUnits="userSpaceOnUse" color-interpolation-filters="sRGB">
<feFlood flood-opacity="0" result="BackgroundImageFix"/>
<feColorMatrix in="SourceAlpha" type="matrix" values="0 0 0 0 0 0 0 0 0 0 0 0 0 0 0 0 0 0 127 0" result="hardAlpha"/>
<feMorphology radius="8" operator="dilate" in="SourceAlpha" result="effect1_dropShadow_839_6700"/>
<feOffset/>
<feGaussianBlur stdDeviation="2"/>
<feComposite in2="hardAlpha" operator="out"/>
<feColorMatrix type="matrix" values="0 0 0 0 1 0 0 0 0 1 0 0 0 0 1 0 0 0 0.6 0"/>
<feBlend mode="normal" in2="BackgroundImageFix" result="effect1_dropShadow_839_6700"/>
<feBlend mode="normal" in="SourceGraphic" in2="effect1_dropShadow_839_6700" result="shape"/>
</filter>
<filter id="filter6_d_839_6700" x="129.514" y="125.536" width="72" height="72" filterUnits="userSpaceOnUse" color-interpolation-filters="sRGB">
<feFlood flood-opacity="0" result="BackgroundImageFix"/>
<feColorMatrix in="SourceAlpha" type="matrix" values="0 0 0 0 0 0 0 0 0 0 0 0 0 0 0 0 0 0 127 0" result="hardAlpha"/>
<feMorphology radius="8" operator="dilate" in="SourceAlpha" result="effect1_dropShadow_839_6700"/>
<feOffset/>
<feGaussianBlur stdDeviation="2"/>
<feComposite in2="hardAlpha" operator="out"/>
<feColorMatrix type="matrix" values="0 0 0 0 1 0 0 0 0 1 0 0 0 0 1 0 0 0 0.6 0"/>
<feBlend mode="normal" in2="BackgroundImageFix" result="effect1_dropShadow_839_6700"/>
<feBlend mode="normal" in="SourceGraphic" in2="effect1_dropShadow_839_6700" result="shape"/>
</filter>
<filter id="filter7_d_839_6700" x="148.514" y="144.536" width="34" height="34" filterUnits="userSpaceOnUse" color-interpolation-filters="sRGB">
<feFlood flood-opacity="0" result="BackgroundImageFix"/>
<feColorMatrix in="SourceAlpha" type="matrix" values="0 0 0 0 0 0 0 0 0 0 0 0 0 0 0 0 0 0 127 0" result="hardAlpha"/>
<feMorphology radius="8" operator="dilate" in="SourceAlpha" result="effect1_dropShadow_839_6700"/>
<feOffset/>
<feGaussianBlur stdDeviation="2"/>
<feComposite in2="hardAlpha" operator="out"/>
<feColorMatrix type="matrix" values="0 0 0 0 1 0 0 0 0 1 0 0 0 0 1 0 0 0 0.6 0"/>
<feBlend mode="normal" in2="BackgroundImageFix" result="effect1_dropShadow_839_6700"/>
<feBlend mode="normal" in="SourceGraphic" in2="effect1_dropShadow_839_6700" result="shape"/>
</filter>
<filter id="filter8_d_839_6700" x="88.8447" y="130.947" width="72" height="72" filterUnits="userSpaceOnUse" color-interpolation-filters="sRGB">
<feFlood flood-opacity="0" result="BackgroundImageFix"/>
<feColorMatrix in="SourceAlpha" type="matrix" values="0 0 0 0 0 0 0 0 0 0 0 0 0 0 0 0 0 0 127 0" result="hardAlpha"/>
<feMorphology radius="8" operator="dilate" in="SourceAlpha" result="effect1_dropShadow_839_6700"/>
<feOffset/>
<feGaussianBlur stdDeviation="2"/>
<feComposite in2="hardAlpha" operator="out"/>
<feColorMatrix type="matrix" values="0 0 0 0 1 0 0 0 0 1 0 0 0 0 1 0 0 0 0.6 0"/>
<feBlend mode="normal" in2="BackgroundImageFix" result="effect1_dropShadow_839_6700"/>
<feBlend mode="normal" in="SourceGraphic" in2="effect1_dropShadow_839_6700" result="shape"/>
</filter>
<filter id="filter9_d_839_6700" x="107.845" y="149.947" width="34" height="34" filterUnits="userSpaceOnUse" color-interpolation-filters="sRGB">
<feFlood flood-opacity="0" result="BackgroundImageFix"/>
<feColorMatrix in="SourceAlpha" type="matrix" values="0 0 0 0 0 0 0 0 0 0 0 0 0 0 0 0 0 0 127 0" result="hardAlpha"/>
<feMorphology radius="8" operator="dilate" in="SourceAlpha" result="effect1_dropShadow_839_6700"/>
<feOffset/>
<feGaussianBlur stdDeviation="2"/>
<feComposite in2="hardAlpha" operator="out"/>
<feColorMatrix type="matrix" values="0 0 0 0 1 0 0 0 0 1 0 0 0 0 1 0 0 0 0.6 0"/>
<feBlend mode="normal" in2="BackgroundImageFix" result="effect1_dropShadow_839_6700"/>
<feBlend mode="normal" in="SourceGraphic" in2="effect1_dropShadow_839_6700" result="shape"/>
</filter>
<filter id="filter10_d_839_6700" x="72.3193" y="207.87" width="72" height="72" filterUnits="userSpaceOnUse" color-interpolation-filters="sRGB">
<feFlood flood-opacity="0" result="BackgroundImageFix"/>
<feColorMatrix in="SourceAlpha" type="matrix" values="0 0 0 0 0 0 0 0 0 0 0 0 0 0 0 0 0 0 127 0" result="hardAlpha"/>
<feMorphology radius="8" operator="dilate" in="SourceAlpha" result="effect1_dropShadow_839_6700"/>
<feOffset/>
<feGaussianBlur stdDeviation="2"/>
<feComposite in2="hardAlpha" operator="out"/>
<feColorMatrix type="matrix" values="0 0 0 0 1 0 0 0 0 1 0 0 0 0 1 0 0 0 0.6 0"/>
<feBlend mode="normal" in2="BackgroundImageFix" result="effect1_dropShadow_839_6700"/>
<feBlend mode="normal" in="SourceGraphic" in2="effect1_dropShadow_839_6700" result="shape"/>
</filter>
<filter id="filter11_d_839_6700" x="91.3193" y="226.87" width="34" height="34" filterUnits="userSpaceOnUse" color-interpolation-filters="sRGB">
<feFlood flood-opacity="0" result="BackgroundImageFix"/>
<feColorMatrix in="SourceAlpha" type="matrix" values="0 0 0 0 0 0 0 0 0 0 0 0 0 0 0 0 0 0 127 0" result="hardAlpha"/>
<feMorphology radius="8" operator="dilate" in="SourceAlpha" result="effect1_dropShadow_839_6700"/>
<feOffset/>
<feGaussianBlur stdDeviation="2"/>
<feComposite in2="hardAlpha" operator="out"/>
<feColorMatrix type="matrix" values="0 0 0 0 1 0 0 0 0 1 0 0 0 0 1 0 0 0 0.6 0"/>
<feBlend mode="normal" in2="BackgroundImageFix" result="effect1_dropShadow_839_6700"/>
<feBlend mode="normal" in="SourceGraphic" in2="effect1_dropShadow_839_6700" result="shape"/>
</filter>
<filter id="filter12_d_839_6700" x="140.946" y="193.55" width="72" height="72" filterUnits="userSpaceOnUse" color-interpolation-filters="sRGB">
<feFlood flood-opacity="0" result="BackgroundImageFix"/>
<feColorMatrix in="SourceAlpha" type="matrix" values="0 0 0 0 0 0 0 0 0 0 0 0 0 0 0 0 0 0 127 0" result="hardAlpha"/>
<feMorphology radius="8" operator="dilate" in="SourceAlpha" result="effect1_dropShadow_839_6700"/>
<feOffset/>
<feGaussianBlur stdDeviation="2"/>
<feComposite in2="hardAlpha" operator="out"/>
<feColorMatrix type="matrix" values="0 0 0 0 1 0 0 0 0 1 0 0 0 0 1 0 0 0 0.6 0"/>
<feBlend mode="normal" in2="BackgroundImageFix" result="effect1_dropShadow_839_6700"/>
<feBlend mode="normal" in="SourceGraphic" in2="effect1_dropShadow_839_6700" result="shape"/>
</filter>
<filter id="filter13_d_839_6700" x="159.946" y="212.55" width="34" height="34" filterUnits="userSpaceOnUse" color-interpolation-filters="sRGB">
<feFlood flood-opacity="0" result="BackgroundImageFix"/>
<feColorMatrix in="SourceAlpha" type="matrix" values="0 0 0 0 0 0 0 0 0 0 0 0 0 0 0 0 0 0 127 0" result="hardAlpha"/>
<feMorphology radius="8" operator="dilate" in="SourceAlpha" result="effect1_dropShadow_839_6700"/>
<feOffset/>
<feGaussianBlur stdDeviation="2"/>
<feComposite in2="hardAlpha" operator="out"/>
<feColorMatrix type="matrix" values="0 0 0 0 1 0 0 0 0 1 0 0 0 0 1 0 0 0 0.6 0"/>
<feBlend mode="normal" in2="BackgroundImageFix" result="effect1_dropShadow_839_6700"/>
<feBlend mode="normal" in="SourceGraphic" in2="effect1_dropShadow_839_6700" result="shape"/>
</filter>
<filter id="filter14_d_839_6700" x="185.821" y="214.542" width="72" height="72" filterUnits="userSpaceOnUse" color-interpolation-filters="sRGB">
<feFlood flood-opacity="0" result="BackgroundImageFix"/>
<feColorMatrix in="SourceAlpha" type="matrix" values="0 0 0 0 0 0 0 0 0 0 0 0 0 0 0 0 0 0 127 0" result="hardAlpha"/>
<feMorphology radius="8" operator="dilate" in="SourceAlpha" result="effect1_dropShadow_839_6700"/>
<feOffset/>
<feGaussianBlur stdDeviation="2"/>
<feComposite in2="hardAlpha" operator="out"/>
<feColorMatrix type="matrix" values="0 0 0 0 1 0 0 0 0 1 0 0 0 0 1 0 0 0 0.6 0"/>
<feBlend mode="normal" in2="BackgroundImageFix" result="effect1_dropShadow_839_6700"/>
<feBlend mode="normal" in="SourceGraphic" in2="effect1_dropShadow_839_6700" result="shape"/>
</filter>
<filter id="filter15_d_839_6700" x="204.821" y="233.542" width="34" height="34" filterUnits="userSpaceOnUse" color-interpolation-filters="sRGB">
<feFlood flood-opacity="0" result="BackgroundImageFix"/>
<feColorMatrix in="SourceAlpha" type="matrix" values="0 0 0 0 0 0 0 0 0 0 0 0 0 0 0 0 0 0 127 0" result="hardAlpha"/>
<feMorphology radius="8" operator="dilate" in="SourceAlpha" result="effect1_dropShadow_839_6700"/>
<feOffset/>
<feGaussianBlur stdDeviation="2"/>
<feComposite in2="hardAlpha" operator="out"/>
<feColorMatrix type="matrix" values="0 0 0 0 1 0 0 0 0 1 0 0 0 0 1 0 0 0 0.6 0"/>
<feBlend mode="normal" in2="BackgroundImageFix" result="effect1_dropShadow_839_6700"/>
<feBlend mode="normal" in="SourceGraphic" in2="effect1_dropShadow_839_6700" result="shape"/>
</filter>
<filter id="filter16_d_839_6700" x="114.32" y="300.413" width="72" height="72" filterUnits="userSpaceOnUse" color-interpolation-filters="sRGB">
<feFlood flood-opacity="0" result="BackgroundImageFix"/>
<feColorMatrix in="SourceAlpha" type="matrix" values="0 0 0 0 0 0 0 0 0 0 0 0 0 0 0 0 0 0 127 0" result="hardAlpha"/>
<feMorphology radius="8" operator="dilate" in="SourceAlpha" result="effect1_dropShadow_839_6700"/>
<feOffset/>
<feGaussianBlur stdDeviation="2"/>
<feComposite in2="hardAlpha" operator="out"/>
<feColorMatrix type="matrix" values="0 0 0 0 1 0 0 0 0 1 0 0 0 0 1 0 0 0 0.6 0"/>
<feBlend mode="normal" in2="BackgroundImageFix" result="effect1_dropShadow_839_6700"/>
<feBlend mode="normal" in="SourceGraphic" in2="effect1_dropShadow_839_6700" result="shape"/>
</filter>
<filter id="filter17_d_839_6700" x="133.32" y="319.413" width="34" height="34" filterUnits="userSpaceOnUse" color-interpolation-filters="sRGB">
<feFlood flood-opacity="0" result="BackgroundImageFix"/>
<feColorMatrix in="SourceAlpha" type="matrix" values="0 0 0 0 0 0 0 0 0 0 0 0 0 0 0 0 0 0 127 0" result="hardAlpha"/>
<feMorphology radius="8" operator="dilate" in="SourceAlpha" result="effect1_dropShadow_839_6700"/>
<feOffset/>
<feGaussianBlur stdDeviation="2"/>
<feComposite in2="hardAlpha" operator="out"/>
<feColorMatrix type="matrix" values="0 0 0 0 1 0 0 0 0 1 0 0 0 0 1 0 0 0 0.6 0"/>
<feBlend mode="normal" in2="BackgroundImageFix" result="effect1_dropShadow_839_6700"/>
<feBlend mode="normal" in="SourceGraphic" in2="effect1_dropShadow_839_6700" result="shape"/>
</filter>
<filter id="filter18_d_839_6700" x="84.4473" y="308.778" width="72" height="72" filterUnits="userSpaceOnUse" color-interpolation-filters="sRGB">
<feFlood flood-opacity="0" result="BackgroundImageFix"/>
<feColorMatrix in="SourceAlpha" type="matrix" values="0 0 0 0 0 0 0 0 0 0 0 0 0 0 0 0 0 0 127 0" result="hardAlpha"/>
<feMorphology radius="8" operator="dilate" in="SourceAlpha" result="effect1_dropShadow_839_6700"/>
<feOffset/>
<feGaussianBlur stdDeviation="2"/>
<feComposite in2="hardAlpha" operator="out"/>
<feColorMatrix type="matrix" values="0 0 0 0 1 0 0 0 0 1 0 0 0 0 1 0 0 0 0.6 0"/>
<feBlend mode="normal" in2="BackgroundImageFix" result="effect1_dropShadow_839_6700"/>
<feBlend mode="normal" in="SourceGraphic" in2="effect1_dropShadow_839_6700" result="shape"/>
</filter>
<filter id="filter19_d_839_6700" x="103.447" y="327.778" width="34" height="34" filterUnits="userSpaceOnUse" color-interpolation-filters="sRGB">
<feFlood flood-opacity="0" result="BackgroundImageFix"/>
<feColorMatrix in="SourceAlpha" type="matrix" values="0 0 0 0 0 0 0 0 0 0 0 0 0 0 0 0 0 0 127 0" result="hardAlpha"/>
<feMorphology radius="8" operator="dilate" in="SourceAlpha" result="effect1_dropShadow_839_6700"/>
<feOffset/>
<feGaussianBlur stdDeviation="2"/>
<feComposite in2="hardAlpha" operator="out"/>
<feColorMatrix type="matrix" values="0 0 0 0 1 0 0 0 0 1 0 0 0 0 1 0 0 0 0.6 0"/>
<feBlend mode="normal" in2="BackgroundImageFix" result="effect1_dropShadow_839_6700"/>
<feBlend mode="normal" in="SourceGraphic" in2="effect1_dropShadow_839_6700" result="shape"/>
</filter>
<filter id="filter20_d_839_6700" x="17.9629" y="276.029" width="72" height="72" filterUnits="userSpaceOnUse" color-interpolation-filters="sRGB">
<feFlood flood-opacity="0" result="BackgroundImageFix"/>
<feColorMatrix in="SourceAlpha" type="matrix" values="0 0 0 0 0 0 0 0 0 0 0 0 0 0 0 0 0 0 127 0" result="hardAlpha"/>
<feMorphology radius="8" operator="dilate" in="SourceAlpha" result="effect1_dropShadow_839_6700"/>
<feOffset/>
<feGaussianBlur stdDeviation="2"/>
<feComposite in2="hardAlpha" operator="out"/>
<feColorMatrix type="matrix" values="0 0 0 0 1 0 0 0 0 1 0 0 0 0 1 0 0 0 0.6 0"/>
<feBlend mode="normal" in2="BackgroundImageFix" result="effect1_dropShadow_839_6700"/>
<feBlend mode="normal" in="SourceGraphic" in2="effect1_dropShadow_839_6700" result="shape"/>
</filter>
<filter id="filter21_d_839_6700" x="36.9629" y="295.029" width="34" height="34" filterUnits="userSpaceOnUse" color-interpolation-filters="sRGB">
<feFlood flood-opacity="0" result="BackgroundImageFix"/>
<feColorMatrix in="SourceAlpha" type="matrix" values="0 0 0 0 0 0 0 0 0 0 0 0 0 0 0 0 0 0 127 0" result="hardAlpha"/>
<feMorphology radius="8" operator="dilate" in="SourceAlpha" result="effect1_dropShadow_839_6700"/>
<feOffset/>
<feGaussianBlur stdDeviation="2"/>
<feComposite in2="hardAlpha" operator="out"/>
<feColorMatrix type="matrix" values="0 0 0 0 1 0 0 0 0 1 0 0 0 0 1 0 0 0 0.6 0"/>
<feBlend mode="normal" in2="BackgroundImageFix" result="effect1_dropShadow_839_6700"/>
<feBlend mode="normal" in="SourceGraphic" in2="effect1_dropShadow_839_6700" result="shape"/>
</filter>
<filter id="filter22_d_839_6700" x="-11.0405" y="351.091" width="72" height="72" filterUnits="userSpaceOnUse" color-interpolation-filters="sRGB">
<feFlood flood-opacity="0" result="BackgroundImageFix"/>
<feColorMatrix in="SourceAlpha" type="matrix" values="0 0 0 0 0 0 0 0 0 0 0 0 0 0 0 0 0 0 127 0" result="hardAlpha"/>
<feMorphology radius="8" operator="dilate" in="SourceAlpha" result="effect1_dropShadow_839_6700"/>
<feOffset/>
<feGaussianBlur stdDeviation="2"/>
<feComposite in2="hardAlpha" operator="out"/>
<feColorMatrix type="matrix" values="0 0 0 0 1 0 0 0 0 1 0 0 0 0 1 0 0 0 0.6 0"/>
<feBlend mode="normal" in2="BackgroundImageFix" result="effect1_dropShadow_839_6700"/>
<feBlend mode="normal" in="SourceGraphic" in2="effect1_dropShadow_839_6700" result="shape"/>
</filter>
<filter id="filter23_d_839_6700" x="7.95947" y="370.091" width="34" height="34" filterUnits="userSpaceOnUse" color-interpolation-filters="sRGB">
<feFlood flood-opacity="0" result="BackgroundImageFix"/>
<feColorMatrix in="SourceAlpha" type="matrix" values="0 0 0 0 0 0 0 0 0 0 0 0 0 0 0 0 0 0 127 0" result="hardAlpha"/>
<feMorphology radius="8" operator="dilate" in="SourceAlpha" result="effect1_dropShadow_839_6700"/>
<feOffset/>
<feGaussianBlur stdDeviation="2"/>
<feComposite in2="hardAlpha" operator="out"/>
<feColorMatrix type="matrix" values="0 0 0 0 1 0 0 0 0 1 0 0 0 0 1 0 0 0 0.6 0"/>
<feBlend mode="normal" in2="BackgroundImageFix" result="effect1_dropShadow_839_6700"/>
<feBlend mode="normal" in="SourceGraphic" in2="effect1_dropShadow_839_6700" result="shape"/>
</filter>
<filter id="filter24_d_839_6700" x="68.1689" y="377.586" width="72" height="72" filterUnits="userSpaceOnUse" color-interpolation-filters="sRGB">
<feFlood flood-opacity="0" result="BackgroundImageFix"/>
<feColorMatrix in="SourceAlpha" type="matrix" values="0 0 0 0 0 0 0 0 0 0 0 0 0 0 0 0 0 0 127 0" result="hardAlpha"/>
<feMorphology radius="8" operator="dilate" in="SourceAlpha" result="effect1_dropShadow_839_6700"/>
<feOffset/>
<feGaussianBlur stdDeviation="2"/>
<feComposite in2="hardAlpha" operator="out"/>
<feColorMatrix type="matrix" values="0 0 0 0 1 0 0 0 0 1 0 0 0 0 1 0 0 0 0.6 0"/>
<feBlend mode="normal" in2="BackgroundImageFix" result="effect1_dropShadow_839_6700"/>
<feBlend mode="normal" in="SourceGraphic" in2="effect1_dropShadow_839_6700" result="shape"/>
</filter>
<filter id="filter25_d_839_6700" x="87.1689" y="396.586" width="34" height="34" filterUnits="userSpaceOnUse" color-interpolation-filters="sRGB">
<feFlood flood-opacity="0" result="BackgroundImageFix"/>
<feColorMatrix in="SourceAlpha" type="matrix" values="0 0 0 0 0 0 0 0 0 0 0 0 0 0 0 0 0 0 127 0" result="hardAlpha"/>
<feMorphology radius="8" operator="dilate" in="SourceAlpha" result="effect1_dropShadow_839_6700"/>
<feOffset/>
<feGaussianBlur stdDeviation="2"/>
<feComposite in2="hardAlpha" operator="out"/>
<feColorMatrix type="matrix" values="0 0 0 0 1 0 0 0 0 1 0 0 0 0 1 0 0 0 0.6 0"/>
<feBlend mode="normal" in2="BackgroundImageFix" result="effect1_dropShadow_839_6700"/>
<feBlend mode="normal" in="SourceGraphic" in2="effect1_dropShadow_839_6700" result="shape"/>
</filter>
<filter id="filter26_d_839_6700" x="16.3833" y="103.572" width="72" height="72" filterUnits="userSpaceOnUse" color-interpolation-filters="sRGB">
<feFlood flood-opacity="0" result="BackgroundImageFix"/>
<feColorMatrix in="SourceAlpha" type="matrix" values="0 0 0 0 0 0 0 0 0 0 0 0 0 0 0 0 0 0 127 0" result="hardAlpha"/>
<feMorphology radius="8" operator="dilate" in="SourceAlpha" result="effect1_dropShadow_839_6700"/>
<feOffset/>
<feGaussianBlur stdDeviation="2"/>
<feComposite in2="hardAlpha" operator="out"/>
<feColorMatrix type="matrix" values="0 0 0 0 1 0 0 0 0 1 0 0 0 0 1 0 0 0 0.6 0"/>
<feBlend mode="normal" in2="BackgroundImageFix" result="effect1_dropShadow_839_6700"/>
<feBlend mode="normal" in="SourceGraphic" in2="effect1_dropShadow_839_6700" result="shape"/>
</filter>
<filter id="filter27_d_839_6700" x="35.3833" y="122.572" width="34" height="34" filterUnits="userSpaceOnUse" color-interpolation-filters="sRGB">
<feFlood flood-opacity="0" result="BackgroundImageFix"/>
<feColorMatrix in="SourceAlpha" type="matrix" values="0 0 0 0 0 0 0 0 0 0 0 0 0 0 0 0 0 0 127 0" result="hardAlpha"/>
<feMorphology radius="8" operator="dilate" in="SourceAlpha" result="effect1_dropShadow_839_6700"/>
<feOffset/>
<feGaussianBlur stdDeviation="2"/>
<feComposite in2="hardAlpha" operator="out"/>
<feColorMatrix type="matrix" values="0 0 0 0 1 0 0 0 0 1 0 0 0 0 1 0 0 0 0.6 0"/>
<feBlend mode="normal" in2="BackgroundImageFix" result="effect1_dropShadow_839_6700"/>
<feBlend mode="normal" in="SourceGraphic" in2="effect1_dropShadow_839_6700" result="shape"/>
</filter>
<filter id="filter28_d_839_6700" x="14.7271" y="13.1962" width="216.737" height="408.406" filterUnits="userSpaceOnUse" color-interpolation-filters="sRGB">
<feFlood flood-opacity="0" result="BackgroundImageFix"/>
<feColorMatrix in="SourceAlpha" type="matrix" values="0 0 0 0 0 0 0 0 0 0 0 0 0 0 0 0 0 0 127 0" result="hardAlpha"/>
<feMorphology radius="8" operator="dilate" in="SourceAlpha" result="effect1_dropShadow_839_6700"/>
<feOffset/>
<feGaussianBlur stdDeviation="2"/>
<feComposite in2="hardAlpha" operator="out"/>
<feColorMatrix type="matrix" values="0 0 0 0 1 0 0 0 0 1 0 0 0 0 1 0 0 0 0.6 0"/>
<feBlend mode="normal" in2="BackgroundImageFix" result="effect1_dropShadow_839_6700"/>
<feBlend mode="normal" in="SourceGraphic" in2="effect1_dropShadow_839_6700" result="shape"/>
</filter>
</defs>
</svg>
