<svg width="263" height="452" viewBox="0 0 263 452" fill="none" xmlns="http://www.w3.org/2000/svg">
<g style="mix-blend-mode:lighten">
<path d="M91.904 49.772V62.05H92.954V55.736H94.984V54.84H92.954V49.772H91.904ZM83.49 52.628H90.728V51.746H87.69V49.926H86.598V51.746H83.49V52.628ZM84.204 56.464C84.204 58.13 85.45 59.264 87.158 59.264C88.88 59.264 90.14 58.13 90.14 56.464C90.14 54.812 88.88 53.664 87.158 53.664C85.45 53.664 84.204 54.812 84.204 56.464ZM85.212 56.464C85.212 55.358 86.038 54.546 87.158 54.546C88.292 54.546 89.132 55.358 89.132 56.464C89.132 57.584 88.292 58.382 87.158 58.382C86.038 58.382 85.212 57.584 85.212 56.464ZM104.112 49.758V62.036H105.19V55.582H107.178V54.672H105.19V49.758H104.112ZM96.2723 58.914H97.2523C99.1143 58.914 100.99 58.774 103.076 58.368L102.95 57.458C100.948 57.878 99.1143 58.018 97.3363 58.018V50.962H96.2723V58.914ZM109.881 57.626V58.494H117.133V62.05H118.197V57.626H109.881ZM107.963 55.568L108.565 56.324C109.489 55.778 110.063 54.84 110.371 53.832C110.637 54.868 111.169 55.876 112.093 56.464C113.031 55.89 113.549 54.91 113.815 53.902C114.137 54.896 114.711 55.806 115.649 56.324L116.237 55.568C114.837 54.784 114.319 53.16 114.319 51.816V50.5H113.297V51.816C113.297 52.824 113.045 54.266 112.121 55.232C111.169 54.238 110.903 52.754 110.903 51.816V50.5H109.895V51.816C109.895 53.02 109.377 54.742 107.963 55.568ZM117.133 56.968H118.197V49.772H117.133V56.968ZM132.442 49.758V62.05H133.52V49.758H132.442ZM123.958 54.98C123.958 57.584 125.26 59.25 127.066 59.25C128.872 59.25 130.174 57.584 130.174 54.98C130.174 52.376 128.872 50.724 127.066 50.724C125.26 50.724 123.958 52.376 123.958 54.98ZM124.994 54.98C124.994 52.978 125.848 51.676 127.066 51.676C128.298 51.676 129.152 52.978 129.152 54.98C129.152 56.996 128.298 58.312 127.066 58.312C125.848 58.312 124.994 56.996 124.994 54.98ZM139.008 50.724C137.23 50.724 135.97 52.376 135.97 54.98C135.97 57.584 137.23 59.25 139.008 59.25C140.702 59.25 141.934 57.738 142.046 55.344H144.762V62.05H145.812V49.758H144.762V54.476H142.046C141.892 52.166 140.674 50.724 139.008 50.724ZM136.964 54.98C136.964 52.978 137.804 51.676 139.008 51.676C140.198 51.676 141.024 52.978 141.024 54.98C141.024 56.996 140.198 58.312 139.008 58.312C137.804 58.312 136.964 56.996 136.964 54.98ZM148.43 50.808V51.676H151.272V52.404C151.272 54.154 149.984 55.736 148.164 56.38L148.71 57.234C150.152 56.702 151.3 55.596 151.832 54.196C152.378 55.484 153.512 56.506 154.926 56.996L155.458 56.156C153.666 55.554 152.35 54.07 152.35 52.404V51.676H155.15V50.808H148.43ZM150.166 61.756H158.384V60.874H151.216V57.92H150.166V61.756ZM156.928 58.76H157.992V49.786H156.928V58.76Z" fill="white"/>
</g>
<g style="mix-blend-mode:lighten">
<path d="M207.562 91.786V93.536H204.678V92.346H203.628V94.124H200.226V92.346H199.162V97.68H204.678V96.602H207.562V98.17H208.612V91.786H207.562ZM200.226 96.812V94.964H203.628V96.812H200.226ZM200.758 99.64H207.576V100.844H200.786V103.854H209.088V103H201.822V101.656H208.612V98.786H200.758V99.64ZM204.678 95.762V94.362H207.562V95.762H204.678ZM211.034 93.032V93.928H213.848V95.552C213.848 97.652 212.322 99.976 210.6 100.83L211.23 101.684C212.602 100.956 213.82 99.374 214.38 97.582C214.926 99.234 216.088 100.69 217.446 101.376L218.062 100.536C216.312 99.682 214.898 97.512 214.898 95.552V93.928H217.628V93.032H211.034ZM219.126 104.05H220.19V97.652H222.22V96.742H220.19V91.772H219.126V104.05ZM232.007 91.758V104.05H233.057V91.758H232.007ZM223.733 93.802H228.311V96.392H223.761V101.068H224.769C226.855 101.068 228.717 100.984 230.943 100.62L230.831 99.738C228.661 100.116 226.827 100.186 224.825 100.186V97.274H229.375V92.906H223.733V93.802ZM247.512 91.758V96.7H244.838V97.596H247.512V104.05H248.576V91.758H247.512ZM238.552 100.83L239.14 101.656C240.526 100.956 241.674 99.542 242.192 97.82C242.738 99.444 243.886 100.788 245.286 101.446L245.874 100.62C244.082 99.794 242.71 97.806 242.71 95.748V94.768H245.44V93.914H242.71V91.996H241.646V93.914H238.874V94.768H241.66V95.748C241.66 97.89 240.33 99.99 238.552 100.83ZM252.832 99.668V103.854H260.812V99.668H252.832ZM251.222 93.284H255.604V94.964H251.25V98.464H252.188C254.274 98.464 255.842 98.408 257.76 98.114L257.676 97.246C255.842 97.54 254.316 97.582 252.314 97.582V95.776H256.64V92.402H251.222V93.284ZM253.868 103V100.522H259.748V103H253.868ZM257.424 95.412H259.734V98.982H260.812V91.786H259.734V94.544H257.424V95.412Z" fill="white"/>
</g>
<g filter="url(#filter0_d_888_4232)">
<path d="M43 41L78 53M164 57L227 87M198 147L227 111M140 129L167 150M36 179L127 131M36 205L113 252M147 251L187 237M203 247L218 295M217 323L165 338M154 347L141 398M147 258L209 297" stroke="white" stroke-opacity="0.4" stroke-width="0.5" shape-rendering="crispEdges"/>
</g>
<g style="mix-blend-mode:lighten" filter="url(#filter1_d_888_4232)">
<circle cx="133" cy="129" r="3" fill="white"/>
</g>
<g style="mix-blend-mode:lighten" filter="url(#filter2_d_888_4232)">
<circle cx="158" cy="342" r="3" fill="white"/>
</g>
<g style="mix-blend-mode:lighten">
<path d="M178.876 145.758V158.036H179.954V151.582H181.942V150.672H179.954V145.758H178.876ZM171.036 154.914H172.016C173.878 154.914 175.754 154.774 177.84 154.368L177.714 153.458C175.712 153.878 173.878 154.018 172.1 154.018V146.962H171.036V154.914ZM186.464 146.584C184.574 146.584 183.23 147.746 183.23 149.454C183.23 150.994 184.336 152.086 185.946 152.282V154.424C184.77 154.466 183.636 154.466 182.656 154.466L182.824 155.362C184.966 155.376 187.836 155.348 190.412 154.886L190.328 154.102C189.278 154.242 188.13 154.326 186.996 154.382V152.282C188.592 152.072 189.684 150.98 189.684 149.454C189.684 147.746 188.34 146.584 186.464 146.584ZM184.252 149.454C184.252 148.278 185.176 147.494 186.464 147.494C187.738 147.494 188.648 148.278 188.648 149.454C188.648 150.602 187.738 151.414 186.464 151.414C185.176 151.414 184.252 150.602 184.252 149.454ZM191.126 158.036H192.176V151.75H194.164V150.854H192.176V145.758H191.126V158.036Z" fill="white"/>
</g>
<g style="mix-blend-mode:lighten">
<path d="M19.558 186.22V186.906C19.558 188.67 17.332 190.14 15.134 190.476L15.568 191.316C17.458 190.994 19.334 189.944 20.118 188.418C20.888 189.93 22.764 190.994 24.64 191.316L25.074 190.476C22.904 190.14 20.65 188.628 20.65 186.906V186.22H19.558ZM14.56 193.57H19.544V198.036H20.594V193.57H25.634V192.674H14.56V193.57ZM35.2243 185.772V192.044H36.2883V189.426H38.1083V188.558H36.2883V185.772H35.2243ZM27.3003 191.582H32.9143V186.584H27.3003V191.582ZM28.0843 197.714H28.6583C29.4703 197.714 30.6043 197.644 31.7943 197.266L31.6263 196.398C30.7723 196.706 29.8203 196.804 29.1203 196.818V193.178H28.0843V197.714ZM28.3363 190.714V187.438H31.8783V190.714H28.3363ZM31.3603 194.102H37.5063V193.29H34.9583V192.198H33.9223V193.29H31.3603V194.102ZM32.1723 196.272C32.1723 197.35 33.1103 198.022 34.4403 198.022C35.7563 198.022 36.6943 197.35 36.6943 196.272C36.6943 195.222 35.7563 194.564 34.4403 194.564C33.1103 194.564 32.1723 195.222 32.1723 196.272ZM33.1243 196.272C33.1243 195.698 33.6563 195.334 34.4403 195.334C35.2103 195.334 35.7423 195.698 35.7423 196.272C35.7423 196.874 35.2103 197.252 34.4403 197.252C33.6563 197.252 33.1243 196.874 33.1243 196.272ZM39.0327 192.24V193.108H50.1067V192.24H39.0327ZM40.2787 188.628C40.2787 190.154 41.9307 191.064 44.5627 191.064C47.1947 191.064 48.8607 190.154 48.8607 188.628C48.8607 187.102 47.1947 186.206 44.5627 186.206C41.9307 186.206 40.2787 187.102 40.2787 188.628ZM40.4747 197.756H48.8607V196.874H41.5247V194.214H40.4747V197.756ZM41.3567 188.628C41.3567 187.648 42.6307 187.06 44.5627 187.06C46.5227 187.06 47.7687 187.648 47.7687 188.628C47.7687 189.594 46.5227 190.196 44.5627 190.196C42.6307 190.196 41.3567 189.594 41.3567 188.628Z" fill="white"/>
</g>
<g style="mix-blend-mode:lighten">
<path d="M126.803 248.758V252.832H123.009V253.714H126.803V261.05H127.867V248.758H126.803ZM118.473 258.068H119.411C121.371 258.068 123.079 257.956 125.011 257.578L124.885 256.682C123.051 257.06 121.385 257.172 119.523 257.172V250.144H118.473V258.068ZM138.353 248.758V261.036H139.417V254.666H141.405V253.77H139.417V248.758H138.353ZM130.121 257.858L130.709 258.684C134.657 256.71 136.267 253.56 136.267 250.088H130.667V250.97H135.203C134.965 253.882 133.257 256.276 130.121 257.858Z" fill="white"/>
</g>
<g style="mix-blend-mode:lighten">
<path d="M203.506 302.758V315.05H204.584V302.758H203.506ZM195.022 307.98C195.022 310.584 196.324 312.25 198.13 312.25C199.936 312.25 201.238 310.584 201.238 307.98C201.238 305.376 199.936 303.724 198.13 303.724C196.324 303.724 195.022 305.376 195.022 307.98ZM196.058 307.98C196.058 305.978 196.912 304.676 198.13 304.676C199.362 304.676 200.216 305.978 200.216 307.98C200.216 309.996 199.362 311.312 198.13 311.312C196.912 311.312 196.058 309.996 196.058 307.98ZM210.072 303.724C208.294 303.724 207.034 305.376 207.034 307.98C207.034 310.584 208.294 312.25 210.072 312.25C211.766 312.25 212.998 310.738 213.11 308.344H215.826V315.05H216.876V302.758H215.826V307.476H213.11C212.956 305.166 211.738 303.724 210.072 303.724ZM208.028 307.98C208.028 305.978 208.868 304.676 210.072 304.676C211.262 304.676 212.088 305.978 212.088 307.98C212.088 309.996 211.262 311.312 210.072 311.312C208.868 311.312 208.028 309.996 208.028 307.98ZM227.363 302.758V315.036H228.427V308.666H230.415V307.77H228.427V302.758H227.363ZM219.131 311.858L219.719 312.684C223.667 310.71 225.277 307.56 225.277 304.088H219.677V304.97H224.213C223.975 307.882 222.267 310.276 219.131 311.858ZM232.781 303.22V307.364H241.083V306.482H233.817V303.22H232.781ZM231.269 309.912H242.371V309.03H231.269V309.912ZM232.697 314.728H241.167V313.86H233.747V311.158H232.697V314.728Z" fill="white"/>
</g>
<circle cx="40.1379" cy="40.043" r="22.2375" transform="rotate(-90 40.1379 40.043)" fill="url(#paint0_radial_888_4232)"/>
<circle cx="40.1379" cy="40.043" r="22.2375" fill="url(#paint1_radial_888_4232)"/>
<circle cx="40.1382" cy="40.0429" r="28.0203" transform="rotate(45 40.1382 40.0429)" fill="url(#paint2_radial_888_4232)"/>
<circle cx="40.1384" cy="40.043" r="28.0203" transform="rotate(-45 40.1384 40.043)" fill="url(#paint3_radial_888_4232)"/>
<g style="mix-blend-mode:lighten" filter="url(#filter3_d_888_4232)">
<circle cx="40.0581" cy="39.7583" r="2.5" fill="white"/>
</g>
<circle cx="141" cy="411.763" r="22.2375" transform="rotate(-90 141 411.763)" fill="url(#paint4_radial_888_4232)"/>
<circle cx="141" cy="411.763" r="22.2375" fill="url(#paint5_radial_888_4232)"/>
<circle cx="141" cy="411.763" r="28.0203" transform="rotate(45 141 411.763)" fill="url(#paint6_radial_888_4232)"/>
<circle cx="141" cy="411.763" r="28.0203" transform="rotate(-45 141 411.763)" fill="url(#paint7_radial_888_4232)"/>
<g style="mix-blend-mode:lighten" filter="url(#filter4_d_888_4232)">
<circle cx="140.92" cy="411.479" r="2.5" fill="white"/>
</g>
<circle cx="196.18" cy="237.869" r="13.2322" transform="rotate(-90 196.18 237.869)" fill="url(#paint8_radial_888_4232)"/>
<circle cx="196.18" cy="237.869" r="13.2322" fill="url(#paint9_radial_888_4232)"/>
<circle cx="196.18" cy="237.869" r="16.6731" transform="rotate(45 196.18 237.869)" fill="url(#paint10_radial_888_4232)"/>
<circle cx="196.18" cy="237.869" r="16.6731" transform="rotate(-45 196.18 237.869)" fill="url(#paint11_radial_888_4232)"/>
<g style="mix-blend-mode:lighten" filter="url(#filter5_d_888_4232)">
<circle cx="196.132" cy="237.7" r="1.48759" fill="white"/>
</g>
<defs>
<filter id="filter0_d_888_4232" x="23.8696" y="28.7634" width="215.325" height="381.298" filterUnits="userSpaceOnUse" color-interpolation-filters="sRGB">
<feFlood flood-opacity="0" result="BackgroundImageFix"/>
<feColorMatrix in="SourceAlpha" type="matrix" values="0 0 0 0 0 0 0 0 0 0 0 0 0 0 0 0 0 0 127 0" result="hardAlpha"/>
<feMorphology radius="8" operator="dilate" in="SourceAlpha" result="effect1_dropShadow_888_4232"/>
<feOffset/>
<feGaussianBlur stdDeviation="2"/>
<feComposite in2="hardAlpha" operator="out"/>
<feColorMatrix type="matrix" values="0 0 0 0 1 0 0 0 0 1 0 0 0 0 1 0 0 0 0.6 0"/>
<feBlend mode="screen" in2="BackgroundImageFix" result="effect1_dropShadow_888_4232"/>
<feBlend mode="normal" in="SourceGraphic" in2="effect1_dropShadow_888_4232" result="shape"/>
</filter>
<filter id="filter1_d_888_4232" x="124" y="120" width="18" height="18" filterUnits="userSpaceOnUse" color-interpolation-filters="sRGB">
<feFlood flood-opacity="0" result="BackgroundImageFix"/>
<feColorMatrix in="SourceAlpha" type="matrix" values="0 0 0 0 0 0 0 0 0 0 0 0 0 0 0 0 0 0 127 0" result="hardAlpha"/>
<feOffset/>
<feGaussianBlur stdDeviation="3"/>
<feComposite in2="hardAlpha" operator="out"/>
<feColorMatrix type="matrix" values="0 0 0 0 1 0 0 0 0 1 0 0 0 0 1 0 0 0 0.8 0"/>
<feBlend mode="screen" in2="BackgroundImageFix" result="effect1_dropShadow_888_4232"/>
<feBlend mode="normal" in="SourceGraphic" in2="effect1_dropShadow_888_4232" result="shape"/>
</filter>
<filter id="filter2_d_888_4232" x="149" y="333" width="18" height="18" filterUnits="userSpaceOnUse" color-interpolation-filters="sRGB">
<feFlood flood-opacity="0" result="BackgroundImageFix"/>
<feColorMatrix in="SourceAlpha" type="matrix" values="0 0 0 0 0 0 0 0 0 0 0 0 0 0 0 0 0 0 127 0" result="hardAlpha"/>
<feOffset/>
<feGaussianBlur stdDeviation="3"/>
<feComposite in2="hardAlpha" operator="out"/>
<feColorMatrix type="matrix" values="0 0 0 0 1 0 0 0 0 1 0 0 0 0 1 0 0 0 0.8 0"/>
<feBlend mode="screen" in2="BackgroundImageFix" result="effect1_dropShadow_888_4232"/>
<feBlend mode="normal" in="SourceGraphic" in2="effect1_dropShadow_888_4232" result="shape"/>
</filter>
<filter id="filter3_d_888_4232" x="31.5581" y="31.2583" width="17" height="17" filterUnits="userSpaceOnUse" color-interpolation-filters="sRGB">
<feFlood flood-opacity="0" result="BackgroundImageFix"/>
<feColorMatrix in="SourceAlpha" type="matrix" values="0 0 0 0 0 0 0 0 0 0 0 0 0 0 0 0 0 0 127 0" result="hardAlpha"/>
<feMorphology radius="2" operator="dilate" in="SourceAlpha" result="effect1_dropShadow_888_4232"/>
<feOffset/>
<feGaussianBlur stdDeviation="2"/>
<feComposite in2="hardAlpha" operator="out"/>
<feColorMatrix type="matrix" values="0 0 0 0 1 0 0 0 0 1 0 0 0 0 1 0 0 0 1 0"/>
<feBlend mode="normal" in2="BackgroundImageFix" result="effect1_dropShadow_888_4232"/>
<feBlend mode="normal" in="SourceGraphic" in2="effect1_dropShadow_888_4232" result="shape"/>
</filter>
<filter id="filter4_d_888_4232" x="132.42" y="402.979" width="17" height="17" filterUnits="userSpaceOnUse" color-interpolation-filters="sRGB">
<feFlood flood-opacity="0" result="BackgroundImageFix"/>
<feColorMatrix in="SourceAlpha" type="matrix" values="0 0 0 0 0 0 0 0 0 0 0 0 0 0 0 0 0 0 127 0" result="hardAlpha"/>
<feMorphology radius="2" operator="dilate" in="SourceAlpha" result="effect1_dropShadow_888_4232"/>
<feOffset/>
<feGaussianBlur stdDeviation="2"/>
<feComposite in2="hardAlpha" operator="out"/>
<feColorMatrix type="matrix" values="0 0 0 0 1 0 0 0 0 1 0 0 0 0 1 0 0 0 1 0"/>
<feBlend mode="normal" in2="BackgroundImageFix" result="effect1_dropShadow_888_4232"/>
<feBlend mode="normal" in="SourceGraphic" in2="effect1_dropShadow_888_4232" result="shape"/>
</filter>
<filter id="filter5_d_888_4232" x="188.645" y="230.212" width="14.9751" height="14.9751" filterUnits="userSpaceOnUse" color-interpolation-filters="sRGB">
<feFlood flood-opacity="0" result="BackgroundImageFix"/>
<feColorMatrix in="SourceAlpha" type="matrix" values="0 0 0 0 0 0 0 0 0 0 0 0 0 0 0 0 0 0 127 0" result="hardAlpha"/>
<feMorphology radius="2" operator="dilate" in="SourceAlpha" result="effect1_dropShadow_888_4232"/>
<feOffset/>
<feGaussianBlur stdDeviation="2"/>
<feComposite in2="hardAlpha" operator="out"/>
<feColorMatrix type="matrix" values="0 0 0 0 1 0 0 0 0 1 0 0 0 0 1 0 0 0 1 0"/>
<feBlend mode="normal" in2="BackgroundImageFix" result="effect1_dropShadow_888_4232"/>
<feBlend mode="normal" in="SourceGraphic" in2="effect1_dropShadow_888_4232" result="shape"/>
</filter>
<radialGradient id="paint0_radial_888_4232" cx="0" cy="0" r="1" gradientUnits="userSpaceOnUse" gradientTransform="translate(40.1379 40.043) rotate(90) scale(20.4083 0.862418)">
<stop stop-color="white"/>
<stop offset="0.605329" stop-color="white" stop-opacity="0"/>
</radialGradient>
<radialGradient id="paint1_radial_888_4232" cx="0" cy="0" r="1" gradientUnits="userSpaceOnUse" gradientTransform="translate(40.1379 40.043) rotate(90) scale(20.4083 0.862418)">
<stop stop-color="white"/>
<stop offset="0.605329" stop-color="white" stop-opacity="0"/>
</radialGradient>
<radialGradient id="paint2_radial_888_4232" cx="0" cy="0" r="1" gradientUnits="userSpaceOnUse" gradientTransform="translate(40.1382 40.0429) rotate(90) scale(25.7153 1.08668)">
<stop stop-color="white"/>
<stop offset="0.625" stop-color="white" stop-opacity="0.1"/>
<stop offset="1" stop-color="white" stop-opacity="0"/>
</radialGradient>
<radialGradient id="paint3_radial_888_4232" cx="0" cy="0" r="1" gradientUnits="userSpaceOnUse" gradientTransform="translate(40.1384 40.043) rotate(90) scale(25.7153 1.08668)">
<stop stop-color="white"/>
<stop offset="0.625" stop-color="white" stop-opacity="0.1"/>
<stop offset="1" stop-color="white" stop-opacity="0"/>
</radialGradient>
<radialGradient id="paint4_radial_888_4232" cx="0" cy="0" r="1" gradientUnits="userSpaceOnUse" gradientTransform="translate(141 411.763) rotate(90) scale(20.4083 0.862418)">
<stop stop-color="white"/>
<stop offset="0.605329" stop-color="white" stop-opacity="0"/>
</radialGradient>
<radialGradient id="paint5_radial_888_4232" cx="0" cy="0" r="1" gradientUnits="userSpaceOnUse" gradientTransform="translate(141 411.763) rotate(90) scale(20.4083 0.862418)">
<stop stop-color="white"/>
<stop offset="0.605329" stop-color="white" stop-opacity="0"/>
</radialGradient>
<radialGradient id="paint6_radial_888_4232" cx="0" cy="0" r="1" gradientUnits="userSpaceOnUse" gradientTransform="translate(141 411.763) rotate(90) scale(25.7153 1.08668)">
<stop stop-color="white"/>
<stop offset="0.625" stop-color="white" stop-opacity="0.1"/>
<stop offset="1" stop-color="white" stop-opacity="0"/>
</radialGradient>
<radialGradient id="paint7_radial_888_4232" cx="0" cy="0" r="1" gradientUnits="userSpaceOnUse" gradientTransform="translate(141 411.763) rotate(90) scale(25.7153 1.08668)">
<stop stop-color="white"/>
<stop offset="0.625" stop-color="white" stop-opacity="0.1"/>
<stop offset="1" stop-color="white" stop-opacity="0"/>
</radialGradient>
<radialGradient id="paint8_radial_888_4232" cx="0" cy="0" r="1" gradientUnits="userSpaceOnUse" gradientTransform="translate(196.18 237.869) rotate(90) scale(12.1437 0.51317)">
<stop stop-color="white"/>
<stop offset="0.605329" stop-color="white" stop-opacity="0"/>
</radialGradient>
<radialGradient id="paint9_radial_888_4232" cx="0" cy="0" r="1" gradientUnits="userSpaceOnUse" gradientTransform="translate(196.18 237.869) rotate(90) scale(12.1437 0.51317)">
<stop stop-color="white"/>
<stop offset="0.605329" stop-color="white" stop-opacity="0"/>
</radialGradient>
<radialGradient id="paint10_radial_888_4232" cx="0" cy="0" r="1" gradientUnits="userSpaceOnUse" gradientTransform="translate(196.18 237.869) rotate(90) scale(15.3016 0.646616)">
<stop stop-color="white"/>
<stop offset="0.625" stop-color="white" stop-opacity="0.1"/>
<stop offset="1" stop-color="white" stop-opacity="0"/>
</radialGradient>
<radialGradient id="paint11_radial_888_4232" cx="0" cy="0" r="1" gradientUnits="userSpaceOnUse" gradientTransform="translate(196.18 237.869) rotate(90) scale(15.3016 0.646616)">
<stop stop-color="white"/>
<stop offset="0.625" stop-color="white" stop-opacity="0.1"/>
<stop offset="1" stop-color="white" stop-opacity="0"/>
</radialGradient>
</defs>
</svg>
