<svg width="249" height="377" viewBox="0 0 249 377" fill="none" xmlns="http://www.w3.org/2000/svg">
<g id="Group 9">
<g id="&#237;&#149;&#152;&#235;&#130;&#152;&#236;&#148;&#169; &#236;&#157;&#180;&#236;&#150;&#180;&#236;&#167;&#132;" style="mix-blend-mode:lighten">
<path d="M77.904 12.772V25.05H78.954V18.736H80.984V17.84H78.954V12.772H77.904ZM69.49 15.628H76.728V14.746H73.69V12.926H72.598V14.746H69.49V15.628ZM70.204 19.464C70.204 21.13 71.45 22.264 73.158 22.264C74.88 22.264 76.14 21.13 76.14 19.464C76.14 17.812 74.88 16.664 73.158 16.664C71.45 16.664 70.204 17.812 70.204 19.464ZM71.212 19.464C71.212 18.358 72.038 17.546 73.158 17.546C74.292 17.546 75.132 18.358 75.132 19.464C75.132 20.584 74.292 21.382 73.158 21.382C72.038 21.382 71.212 20.584 71.212 19.464ZM90.1123 12.758V25.036H91.1903V18.582H93.1783V17.672H91.1903V12.758H90.1123ZM82.2723 21.914H83.2523C85.1143 21.914 86.9903 21.774 89.0763 21.368L88.9503 20.458C86.9483 20.878 85.1143 21.018 83.3363 21.018V13.962H82.2723V21.914ZM95.8807 20.626V21.494H103.133V25.05H104.197V20.626H95.8807ZM93.9627 18.568L94.5647 19.324C95.4887 18.778 96.0627 17.84 96.3707 16.832C96.6367 17.868 97.1687 18.876 98.0927 19.464C99.0307 18.89 99.5487 17.91 99.8147 16.902C100.137 17.896 100.711 18.806 101.649 19.324L102.237 18.568C100.837 17.784 100.319 16.16 100.319 14.816V13.5H99.2967V14.816C99.2967 15.824 99.0447 17.266 98.1207 18.232C97.1687 17.238 96.9027 15.754 96.9027 14.816V13.5H95.8947V14.816C95.8947 16.02 95.3767 17.742 93.9627 18.568ZM103.133 19.968H104.197V12.772H103.133V19.968ZM118.442 12.758V25.05H119.52V12.758H118.442ZM109.958 17.98C109.958 20.584 111.26 22.25 113.066 22.25C114.872 22.25 116.174 20.584 116.174 17.98C116.174 15.376 114.872 13.724 113.066 13.724C111.26 13.724 109.958 15.376 109.958 17.98ZM110.994 17.98C110.994 15.978 111.848 14.676 113.066 14.676C114.298 14.676 115.152 15.978 115.152 17.98C115.152 19.996 114.298 21.312 113.066 21.312C111.848 21.312 110.994 19.996 110.994 17.98ZM125.008 13.724C123.23 13.724 121.97 15.376 121.97 17.98C121.97 20.584 123.23 22.25 125.008 22.25C126.702 22.25 127.934 20.738 128.046 18.344H130.762V25.05H131.812V12.758H130.762V17.476H128.046C127.892 15.166 126.674 13.724 125.008 13.724ZM122.964 17.98C122.964 15.978 123.804 14.676 125.008 14.676C126.198 14.676 127.024 15.978 127.024 17.98C127.024 19.996 126.198 21.312 125.008 21.312C123.804 21.312 122.964 19.996 122.964 17.98ZM134.43 13.808V14.676H137.272V15.404C137.272 17.154 135.984 18.736 134.164 19.38L134.71 20.234C136.152 19.702 137.3 18.596 137.832 17.196C138.378 18.484 139.512 19.506 140.926 19.996L141.458 19.156C139.666 18.554 138.35 17.07 138.35 15.404V14.676H141.15V13.808H134.43ZM136.166 24.756H144.384V23.874H137.216V20.92H136.166V24.756ZM142.928 21.76H143.992V12.786H142.928V21.76Z" fill="white"/>
</g>
<g id="&#235;&#179;&#132;&#236;&#158;&#144;&#235;&#166;&#172; &#236;&#178;&#152;&#235;&#159;&#188;" style="mix-blend-mode:lighten">
<path d="M193.562 54.786V56.536H190.678V55.346H189.628V57.124H186.226V55.346H185.162V60.68H190.678V59.602H193.562V61.17H194.612V54.786H193.562ZM186.226 59.812V57.964H189.628V59.812H186.226ZM186.758 62.64H193.576V63.844H186.786V66.854H195.088V66H187.822V64.656H194.612V61.786H186.758V62.64ZM190.678 58.762V57.362H193.562V58.762H190.678ZM197.034 56.032V56.928H199.848V58.552C199.848 60.652 198.322 62.976 196.6 63.83L197.23 64.684C198.602 63.956 199.82 62.374 200.38 60.582C200.926 62.234 202.088 63.69 203.446 64.376L204.062 63.536C202.312 62.682 200.898 60.512 200.898 58.552V56.928H203.628V56.032H197.034ZM205.126 67.05H206.19V60.652H208.22V59.742H206.19V54.772H205.126V67.05ZM218.007 54.758V67.05H219.057V54.758H218.007ZM209.733 56.802H214.311V59.392H209.761V64.068H210.769C212.855 64.068 214.717 63.984 216.943 63.62L216.831 62.738C214.661 63.116 212.827 63.186 210.825 63.186V60.274H215.375V55.906H209.733V56.802ZM233.512 54.758V59.7H230.838V60.596H233.512V67.05H234.576V54.758H233.512ZM224.552 63.83L225.14 64.656C226.526 63.956 227.674 62.542 228.192 60.82C228.738 62.444 229.886 63.788 231.286 64.446L231.874 63.62C230.082 62.794 228.71 60.806 228.71 58.748V57.768H231.44V56.914H228.71V54.996H227.646V56.914H224.874V57.768H227.66V58.748C227.66 60.89 226.33 62.99 224.552 63.83ZM238.832 62.668V66.854H246.812V62.668H238.832ZM237.222 56.284H241.604V57.964H237.25V61.464H238.188C240.274 61.464 241.842 61.408 243.76 61.114L243.676 60.246C241.842 60.54 240.316 60.582 238.314 60.582V58.776H242.64V55.402H237.222V56.284ZM239.868 66V63.522H245.748V66H239.868ZM243.424 58.412H245.734V61.982H246.812V54.786H245.734V57.544H243.424V58.412Z" fill="white"/>
</g>
<path id="line" d="M29 4L64 16M150 20L213 50M184 110L213 74M127 93L153 113M22 142L110.5 94M22 168L99 215M133 214L173 200M189 210L204 258M203 286L151 301M140.5 311L128 359M133 221L195 260" stroke="white" strokeOpacity="0.4"/>
<g id="Ellipse 42" style="mix-blend-mode:lighten" filter="url(#filter0_d_655_2820)">
<circle cx="119" cy="92" r="3" fill="white"/>
</g>
<g id="Ellipse 52" style="mix-blend-mode:lighten" filter="url(#filter1_d_655_2820)">
<circle cx="144" cy="305" r="3" fill="white"/>
</g>
<g id="&#235;&#130;&#152;&#236;&#153;&#128;" style="mix-blend-mode:lighten">
<path d="M164.876 108.758V121.036H165.954V114.582H167.942V113.672H165.954V108.758H164.876ZM157.036 117.914H158.016C159.878 117.914 161.754 117.774 163.84 117.368L163.714 116.458C161.712 116.878 159.878 117.018 158.1 117.018V109.962H157.036V117.914ZM172.464 109.584C170.574 109.584 169.23 110.746 169.23 112.454C169.23 113.994 170.336 115.086 171.946 115.282V117.424C170.77 117.466 169.636 117.466 168.656 117.466L168.824 118.362C170.966 118.376 173.836 118.348 176.412 117.886L176.328 117.102C175.278 117.242 174.13 117.326 172.996 117.382V115.282C174.592 115.072 175.684 113.98 175.684 112.454C175.684 110.746 174.34 109.584 172.464 109.584ZM170.252 112.454C170.252 111.278 171.176 110.494 172.464 110.494C173.738 110.494 174.648 111.278 174.648 112.454C174.648 113.602 173.738 114.414 172.464 114.414C171.176 114.414 170.252 113.602 170.252 112.454ZM177.126 121.036H178.176V114.75H180.164V113.854H178.176V108.758H177.126V121.036Z" fill="white"/>
</g>
<g id="&#236;&#136;&#152;&#235;&#167;&#142;&#236;&#157;&#128;" style="mix-blend-mode:lighten">
<path d="M5.558 149.22V149.906C5.558 151.67 3.332 153.14 1.134 153.476L1.568 154.316C3.458 153.994 5.334 152.944 6.118 151.418C6.888 152.93 8.764 153.994 10.64 154.316L11.074 153.476C8.904 153.14 6.65 151.628 6.65 149.906V149.22H5.558ZM0.56 156.57H5.544V161.036H6.594V156.57H11.634V155.674H0.56V156.57ZM21.2243 148.772V155.044H22.2883V152.426H24.1083V151.558H22.2883V148.772H21.2243ZM13.3003 154.582H18.9143V149.584H13.3003V154.582ZM14.0843 160.714H14.6583C15.4703 160.714 16.6043 160.644 17.7943 160.266L17.6263 159.398C16.7723 159.706 15.8203 159.804 15.1203 159.818V156.178H14.0843V160.714ZM14.3363 153.714V150.438H17.8783V153.714H14.3363ZM17.3603 157.102H23.5063V156.29H20.9583V155.198H19.9223V156.29H17.3603V157.102ZM18.1723 159.272C18.1723 160.35 19.1103 161.022 20.4403 161.022C21.7563 161.022 22.6943 160.35 22.6943 159.272C22.6943 158.222 21.7563 157.564 20.4403 157.564C19.1103 157.564 18.1723 158.222 18.1723 159.272ZM19.1243 159.272C19.1243 158.698 19.6563 158.334 20.4403 158.334C21.2103 158.334 21.7423 158.698 21.7423 159.272C21.7423 159.874 21.2103 160.252 20.4403 160.252C19.6563 160.252 19.1243 159.874 19.1243 159.272ZM25.0327 155.24V156.108H36.1067V155.24H25.0327ZM26.2787 151.628C26.2787 153.154 27.9307 154.064 30.5627 154.064C33.1947 154.064 34.8607 153.154 34.8607 151.628C34.8607 150.102 33.1947 149.206 30.5627 149.206C27.9307 149.206 26.2787 150.102 26.2787 151.628ZM26.4747 160.756H34.8607V159.874H27.5247V157.214H26.4747V160.756ZM27.3567 151.628C27.3567 150.648 28.6307 150.06 30.5627 150.06C32.5227 150.06 33.7687 150.648 33.7687 151.628C33.7687 152.594 32.5227 153.196 30.5627 153.196C28.6307 153.196 27.3567 152.594 27.3567 151.628Z" fill="white"/>
</g>
<g id="&#235;&#132;&#136;&#234;&#176;&#128;" style="mix-blend-mode:lighten">
<path d="M112.803 211.758V215.832H109.009V216.714H112.803V224.05H113.867V211.758H112.803ZM104.473 221.068H105.411C107.371 221.068 109.079 220.956 111.011 220.578L110.885 219.682C109.051 220.06 107.385 220.172 105.523 220.172V213.144H104.473V221.068ZM124.353 211.758V224.036H125.417V217.666H127.405V216.77H125.417V211.758H124.353ZM116.121 220.858L116.709 221.684C120.657 219.71 122.267 216.56 122.267 213.088H116.667V213.97H121.203C120.965 216.882 119.257 219.276 116.121 220.858Z" fill="white"/>
</g>
<g id="&#236;&#157;&#180;&#236;&#150;&#180;&#234;&#176;&#128;&#235;&#138;&#148;" style="mix-blend-mode:lighten">
<path d="M189.506 265.758V278.05H190.584V265.758H189.506ZM181.022 270.98C181.022 273.584 182.324 275.25 184.13 275.25C185.936 275.25 187.238 273.584 187.238 270.98C187.238 268.376 185.936 266.724 184.13 266.724C182.324 266.724 181.022 268.376 181.022 270.98ZM182.058 270.98C182.058 268.978 182.912 267.676 184.13 267.676C185.362 267.676 186.216 268.978 186.216 270.98C186.216 272.996 185.362 274.312 184.13 274.312C182.912 274.312 182.058 272.996 182.058 270.98ZM196.072 266.724C194.294 266.724 193.034 268.376 193.034 270.98C193.034 273.584 194.294 275.25 196.072 275.25C197.766 275.25 198.998 273.738 199.11 271.344H201.826V278.05H202.876V265.758H201.826V270.476H199.11C198.956 268.166 197.738 266.724 196.072 266.724ZM194.028 270.98C194.028 268.978 194.868 267.676 196.072 267.676C197.262 267.676 198.088 268.978 198.088 270.98C198.088 272.996 197.262 274.312 196.072 274.312C194.868 274.312 194.028 272.996 194.028 270.98ZM213.363 265.758V278.036H214.427V271.666H216.415V270.77H214.427V265.758H213.363ZM205.131 274.858L205.719 275.684C209.667 273.71 211.277 270.56 211.277 267.088H205.677V267.97H210.213C209.975 270.882 208.267 273.276 205.131 274.858ZM218.781 266.22V270.364H227.083V269.482H219.817V266.22H218.781ZM217.269 272.912H228.371V272.03H217.269V272.912ZM218.697 277.728H227.167V276.86H219.747V274.158H218.697V277.728Z" fill="white"/>
</g>
<g id="Ellipse 52_2" style="mix-blend-mode:lighten" filter="url(#filter2_d_655_2820)">
<circle cx="26.0581" cy="2.7583" r="2.5" fill="white"/>
</g>
<g id="Ellipse 52_3" style="mix-blend-mode:lighten" filter="url(#filter3_d_655_2820)">
<circle cx="126.92" cy="374.479" r="2.5" fill="white"/>
</g>
<g id="Ellipse 52_4" style="mix-blend-mode:lighten" filter="url(#filter4_d_655_2820)">
<circle cx="182.132" cy="200.7" r="1.48759" fill="white"/>
</g>
</g>
<defs>
<filter id="filter0_d_655_2820" x="110" y="83" width="18" height="18" filterUnits="userSpaceOnUse" color-interpolation-filters="sRGB">
<feFlood flood-opacity="0" result="BackgroundImageFix"/>
<feColorMatrix in="SourceAlpha" type="matrix" values="0 0 0 0 0 0 0 0 0 0 0 0 0 0 0 0 0 0 127 0" result="hardAlpha"/>
<feOffset/>
<feGaussianBlur stdDeviation="3"/>
<feComposite in2="hardAlpha" operator="out"/>
<feColorMatrix type="matrix" values="0 0 0 0 1 0 0 0 0 1 0 0 0 0 1 0 0 0 0.8 0"/>
<feBlend mode="screen" in2="BackgroundImageFix" result="effect1_dropShadow_655_2820"/>
<feBlend mode="normal" in="SourceGraphic" in2="effect1_dropShadow_655_2820" result="shape"/>
</filter>
<filter id="filter1_d_655_2820" x="135" y="296" width="18" height="18" filterUnits="userSpaceOnUse" color-interpolation-filters="sRGB">
<feFlood flood-opacity="0" result="BackgroundImageFix"/>
<feColorMatrix in="SourceAlpha" type="matrix" values="0 0 0 0 0 0 0 0 0 0 0 0 0 0 0 0 0 0 127 0" result="hardAlpha"/>
<feOffset/>
<feGaussianBlur stdDeviation="3"/>
<feComposite in2="hardAlpha" operator="out"/>
<feColorMatrix type="matrix" values="0 0 0 0 1 0 0 0 0 1 0 0 0 0 1 0 0 0 0.8 0"/>
<feBlend mode="screen" in2="BackgroundImageFix" result="effect1_dropShadow_655_2820"/>
<feBlend mode="normal" in="SourceGraphic" in2="effect1_dropShadow_655_2820" result="shape"/>
</filter>
<filter id="filter2_d_655_2820" x="17.5581" y="-5.7417" width="17" height="17" filterUnits="userSpaceOnUse" color-interpolation-filters="sRGB">
<feFlood flood-opacity="0" result="BackgroundImageFix"/>
<feColorMatrix in="SourceAlpha" type="matrix" values="0 0 0 0 0 0 0 0 0 0 0 0 0 0 0 0 0 0 127 0" result="hardAlpha"/>
<feMorphology radius="2" operator="dilate" in="SourceAlpha" result="effect1_dropShadow_655_2820"/>
<feOffset/>
<feGaussianBlur stdDeviation="2"/>
<feComposite in2="hardAlpha" operator="out"/>
<feColorMatrix type="matrix" values="0 0 0 0 1 0 0 0 0 1 0 0 0 0 1 0 0 0 1 0"/>
<feBlend mode="normal" in2="BackgroundImageFix" result="effect1_dropShadow_655_2820"/>
<feBlend mode="normal" in="SourceGraphic" in2="effect1_dropShadow_655_2820" result="shape"/>
</filter>
<filter id="filter3_d_655_2820" x="118.42" y="365.979" width="17" height="17" filterUnits="userSpaceOnUse" color-interpolation-filters="sRGB">
<feFlood flood-opacity="0" result="BackgroundImageFix"/>
<feColorMatrix in="SourceAlpha" type="matrix" values="0 0 0 0 0 0 0 0 0 0 0 0 0 0 0 0 0 0 127 0" result="hardAlpha"/>
<feMorphology radius="2" operator="dilate" in="SourceAlpha" result="effect1_dropShadow_655_2820"/>
<feOffset/>
<feGaussianBlur stdDeviation="2"/>
<feComposite in2="hardAlpha" operator="out"/>
<feColorMatrix type="matrix" values="0 0 0 0 1 0 0 0 0 1 0 0 0 0 1 0 0 0 1 0"/>
<feBlend mode="normal" in2="BackgroundImageFix" result="effect1_dropShadow_655_2820"/>
<feBlend mode="normal" in="SourceGraphic" in2="effect1_dropShadow_655_2820" result="shape"/>
</filter>
<filter id="filter4_d_655_2820" x="174.645" y="193.212" width="14.9751" height="14.9751" filterUnits="userSpaceOnUse" color-interpolation-filters="sRGB">
<feFlood flood-opacity="0" result="BackgroundImageFix"/>
<feColorMatrix in="SourceAlpha" type="matrix" values="0 0 0 0 0 0 0 0 0 0 0 0 0 0 0 0 0 0 127 0" result="hardAlpha"/>
<feMorphology radius="2" operator="dilate" in="SourceAlpha" result="effect1_dropShadow_655_2820"/>
<feOffset/>
<feGaussianBlur stdDeviation="2"/>
<feComposite in2="hardAlpha" operator="out"/>
<feColorMatrix type="matrix" values="0 0 0 0 1 0 0 0 0 1 0 0 0 0 1 0 0 0 1 0"/>
<feBlend mode="normal" in2="BackgroundImageFix" result="effect1_dropShadow_655_2820"/>
<feBlend mode="normal" in="SourceGraphic" in2="effect1_dropShadow_655_2820" result="shape"/>
</filter>
</defs>
</svg>
