<?xml version="1.0" encoding="UTF-8"?>
<svg id="Layer_1" data-name="Layer 1" xmlns="http://www.w3.org/2000/svg" xmlns:xlink="http://www.w3.org/1999/xlink" viewBox="0 0 1086.31 1329">
  <defs>
    <linearGradient id="linear-gradient" x1="503.64" y1="653.32" x2="440.38" y2="457.4" gradientUnits="userSpaceOnUse">
      <stop offset="0" stop-color="#fff"/>
      <stop offset="1" stop-color="#231f20"/>
    </linearGradient>
    <linearGradient id="linear-gradient-2" x1="-38892.45" y1="-52899.07" x2="-38915.74" y2="-52891.14" gradientTransform="translate(39260.56 -52670.32) scale(1 -1)" gradientUnits="userSpaceOnUse">
      <stop offset=".23" stop-color="#faa61a"/>
      <stop offset=".76" stop-color="#ffc20e"/>
    </linearGradient>
    <radialGradient id="radial-gradient" cx="-38813.92" cy="-52929.51" fx="-38813.92" fy="-52929.51" r="133.44" gradientTransform="translate(39260.56 -52670.32) scale(1 -1)" gradientUnits="userSpaceOnUse">
      <stop offset=".35" stop-color="#58ab40"/>
      <stop offset=".76" stop-color="#80c342"/>
    </radialGradient>
    <linearGradient id="linear-gradient-3" x1="54974.19" y1="-52843.25" x2="54974.19" y2="-52815.15" gradientTransform="translate(55391.87 -52670.32) rotate(-180)" xlink:href="#linear-gradient-2"/>
    <linearGradient id="linear-gradient-4" x1="55313.34" y1="-52899.07" x2="55290.05" y2="-52891.14" gradientTransform="translate(55391.87 -52670.32) rotate(-180)" xlink:href="#linear-gradient-2"/>
    <linearGradient id="linear-gradient-5" x1="-39231.59" y1="-52843.25" x2="-39231.59" y2="-52815.15" xlink:href="#linear-gradient-2"/>
    <radialGradient id="radial-gradient-2" cx="-39260.56" fx="-39260.56" xlink:href="#radial-gradient"/>
    <linearGradient id="linear-gradient-6" x1="54910.19" y1="37026.94" x2="54910.19" y2="37055.05" gradientTransform="translate(55327.87 -36940.69) rotate(-180) scale(1 -1)" xlink:href="#linear-gradient-2"/>
    <radialGradient id="radial-gradient-3" cy="-52670.32" fy="-52670.32" xlink:href="#radial-gradient"/>
    <linearGradient id="linear-gradient-7" x1="-38892.45" y1="36985.66" x2="-38915.74" y2="36993.6" gradientTransform="translate(39260.56 -36955.23)" xlink:href="#linear-gradient-2"/>
    <linearGradient id="linear-gradient-8" x1="55133.51" y1="37156.53" x2="55133.51" y2="37184.64" gradientTransform="translate(55327.87 -36940.69) rotate(-180) scale(1 -1)" xlink:href="#linear-gradient-2"/>
    <linearGradient id="linear-gradient-9" x1="-38944.27" y1="37156.53" x2="-38944.27" y2="37184.64" gradientTransform="translate(39196.56 -36940.69)" xlink:href="#linear-gradient-2"/>
    <linearGradient id="linear-gradient-10" x1="55090.02" y1="-52769.48" x2="55066.73" y2="-52761.54" gradientTransform="translate(55391.87 -52670.32) rotate(-180)" xlink:href="#linear-gradient-2"/>
    <linearGradient id="linear-gradient-11" x1="-39115.77" y1="-52769.48" x2="-39139.06" y2="-52761.54" xlink:href="#linear-gradient-2"/>
    <linearGradient id="linear-gradient-12" x1="-39008.27" y1="-52713.66" x2="-39008.27" y2="-52685.55" xlink:href="#linear-gradient-2"/>
    <radialGradient id="radial-gradient-4" cx="-39037.24" cy="-52799.91" fx="-39037.24" fy="-52799.91" r="133.44" xlink:href="#radial-gradient"/>
    <linearGradient id="linear-gradient-13" x1="55090.02" y1="37115.25" x2="55066.73" y2="37123.19" gradientTransform="translate(55391.87 -36955.23) rotate(-180) scale(1 -1)" xlink:href="#linear-gradient-2"/>
    <linearGradient id="linear-gradient-14" x1="-39115.77" y1="37115.25" x2="-39139.06" y2="37123.19" gradientTransform="translate(39260.56 -36955.23)" xlink:href="#linear-gradient-2"/>
    <linearGradient id="linear-gradient-15" x1="55197.51" y1="-52713.66" x2="55197.51" y2="-52685.55" gradientTransform="translate(55391.87 -52670.32) rotate(-180)" xlink:href="#linear-gradient-2"/>
    <linearGradient id="linear-gradient-16" x1="-39167.59" y1="37026.94" x2="-39167.59" y2="37055.05" gradientTransform="translate(39196.56 -36940.69)" xlink:href="#linear-gradient-2"/>
    <radialGradient id="radial-gradient-5" cx="-39260.56" cy="-52670.32" fx="-39260.56" fy="-52670.32" xlink:href="#radial-gradient"/>
    <linearGradient id="linear-gradient-17" x1="55313.34" y1="36985.66" x2="55290.05" y2="36993.6" gradientTransform="translate(55391.87 -36955.23) rotate(-180) scale(1 -1)" xlink:href="#linear-gradient-2"/>
    <pattern id="Foliage" x="0" y="0" width="446.64" height="259.18" patternTransform="translate(-8.51 -88.78)" patternUnits="userSpaceOnUse" viewBox="0 0 446.64 259.18">
      <g>
        <rect width="446.64" height="259.18" style="fill: none;"/>
        <g>
          <path d="m378.84,190.69c5.52,4.58,10.66,12.46,11.44,22.75,1.08-10.23,3.2-18.13,8.21-23.96,0,0-6.33,3.1-8.62,9.15-2.96-5.25-11.04-7.94-11.04-7.94Z" style="fill: #2c973e;"/>
          <path d="m364.84,139.81c1.22,5.97,6.31,11.18,12.92,13.73-2.71-6.99-1.7-13.8,2.15-19.79-.9,7.77,1.47,13.21,5.79,18.04-1.36-4.83-1.24-9.27,1.08-13.87-.94,8.48,6.17,12.79,15.62,18.44,12.66,7.58,17.28,16.04,19.25,27.23-3.45-6.87-9.9-13.14-27.86-17.29-22.3-5.16-30.39-12.42-28.95-26.49Z" style="fill: #2c973e;"/>
          <path d="m365.11,232.01c-4.69-4.6-6.91-12.18-7.27-21.72-.47-12.53-5.41-17.66-13.33-18.53,11.8,4.58,4.44,17.12,7.94,25.85-6.44-4.79-4.38-20.68-17.63-21.4,9.78,3.2,2.83,16.68,9.29,24.5-7.81-.11-11.4,6.13-21.54,3.23,4.71,3.64,9.96,5.92,18.85,5.92-6.25,3.86-9,8.63-11.31,15.35,10.13-10.59,24.85-14.66,35-13.19Z" style="fill: url(#linear-gradient-2);"/>
          <path d="m482.48,266.46c29.44,4.02,46.23,20.79,49.15,36.55-3.92-9.25-12.98-15.22-23.6-18.63,10.62,14.01,7.19,31.87,21.12,41.7-10.37-11.04-7.21-24.46-14.9-36.73,12.26,6.9,14.12,16.67,17.02,27.15,4.38,15.84,11.54,20.09,17.22,22.18-11.7.45-28.66-4.53-36.78-20.1-8.61-16.51-1.45-34.41-22.48-43.77,9.6,8.06,14.73,19.52,8.69,34.42,2.26-21.92-20.63-25.5-24.31-40.45-.63,11.53,7.18,21.22,14.55,25.9-10.29-3.37-19.21-8.99-23.42-21.82-6.92,21.39,5.31,38.45,12.9,38.45,2.63,0,4.54-1.67,4.54-4.16,0-6.45-11.64-6.45-14.6-18.85,5.32,10.82,25.55,8.87,25.55,20.76,0,9.74-13.64,14.04-22.36,7.98,6.39,8.34,21.26,8.62,25.55-1.42.66,4.31-1.31,10.76-7.45,13.13-6.99,2.7-13.48-2.48-13.48-2.48,7.64,11.01,20.94,3.67,34.07,3.9,10.87.19,18.11,5.82,21.29,11.18-2.97-1.49-4.64-1.89-7.63-1.95,6.29,3.88,10.85,12.8,9.05,21.47-1.3-6.25-8.57-10.68-22.36-11.63-15.56-1.08-23.81-3.57-29.1-9.3,11.2,4.96,28.94-1.91,40.99,6.03-7.45-8.54-23.93-6.09-35.71-7.98-20.71-3.32-33.32-38.29-31.71-53.63-5.66,23.42,9.46,36.2,12.79,49.13,3.63,14.13-3.37,23.83-9.95,28.8,10.28-15.4-7.42-24.63-4.61-44.36-5.23,19.19,4.44,24.66,4.44,34.6s-8.58,12.99-10.29,25.55c-1.71-12.55-10.29-15.79-10.29-25.55s9.66-15.41,4.44-34.6c2.8,19.73-14.89,28.96-4.61,44.36-6.58-4.98-13.58-14.67-9.95-28.8,3.32-12.93,18.44-25.71,12.79-49.13,1.62,15.35-11,50.31-31.71,53.63-11.78,1.89-28.26-.56-35.72,7.98,12.05-7.94,29.78-1.08,40.99-6.03-5.29,5.73-13.54,8.23-29.1,9.3-13.79.96-21.06,5.38-22.36,11.63-1.8-8.67,2.75-17.59,9.05-21.47-2.99.07-4.66.46-7.63,1.95,3.19-5.36,10.42-10.99,21.29-11.18,13.13-.23,26.42,7.11,34.07-3.9,0,0-6.5,5.18-13.48,2.48-6.15-2.37-8.12-8.82-7.45-13.13,4.29,10.04,19.16,9.76,25.55,1.42-8.72,6.05-22.36,1.75-22.36-7.98,0-11.89,20.23-9.94,25.55-20.76-2.96,12.41-14.6,12.41-14.6,18.85,0,2.49,1.91,4.16,4.54,4.16,7.58,0,19.82-17.06,12.9-38.45-4.2,12.83-13.13,18.45-23.42,21.82,7.37-4.68,15.18-14.37,14.55-25.9-3.68,14.95-26.56,18.53-24.31,40.45-6.03-14.9-.91-26.37,8.7-34.42-21.03,9.36-13.87,27.26-22.48,43.77-8.12,15.57-25.08,20.55-36.78,20.1,5.67-2.09,12.84-6.33,17.22-22.18,2.9-10.48,4.77-20.25,17.02-27.15-7.69,12.27-4.54,25.69-14.9,36.73,13.92-9.83,10.5-27.68,21.11-41.7-10.62,3.41-19.68,9.38-23.6,18.63,2.91-15.76,19.71-32.53,49.15-36.55-30.33-1.29-36.17,15.55-51.46,16.16-9.68.38-18.14-8.39-28.03-13.68,12.11,3.07,31.11,11.33,41.16-2.13,0,0-6.19,5.26-18.28,3.73-12.27-1.56-23.46-9.4-54.12-11.36,30.65-1.96,41.84-9.8,54.12-11.36,12.08-1.54,18.28,3.72,18.28,3.72-10.06-13.46-29.05-5.2-41.16-2.13,9.9-5.29,18.35-14.06,28.03-13.68,15.28.61,21.13,17.45,51.46,16.16-29.44-4.02-46.23-20.79-49.15-36.55,3.92,9.25,12.98,15.22,23.6,18.63-10.62-14.01-7.19-31.87-21.11-41.7,10.37,11.04,7.21,24.46,14.9,36.73-12.26-6.89-14.13-16.67-17.02-27.15-4.38-15.85-11.55-20.09-17.22-22.18,11.7-.45,28.66,4.53,36.78,20.1,8.61,16.51,1.45,34.41,22.48,43.77-9.6-8.06-14.73-19.52-8.7-34.42-2.25,21.92,20.63,25.5,24.31,40.45.63-11.53-7.18-21.22-14.55-25.9,10.29,3.37,19.22,8.99,23.42,21.82,6.93-21.39-5.31-38.45-12.9-38.45-2.63,0-4.54,1.67-4.54,4.16,0,6.45,11.64,6.45,14.6,18.85-5.32-10.82-25.55-8.87-25.55-20.76,0-9.74,13.64-14.04,22.36-7.99-6.39-8.34-21.26-8.62-25.55,1.42-.66-4.31,1.31-10.76,7.45-13.13,6.98-2.7,13.48,2.48,13.48,2.48-7.64-11.01-20.94-3.67-34.07-3.9-10.87-.19-18.11-5.82-21.29-11.18,2.97,1.48,4.64,1.88,7.63,1.95-6.29-3.88-10.85-12.8-9.05-21.47,1.3,6.25,8.57,10.68,22.36,11.63,15.56,1.08,23.81,3.57,29.1,9.3-11.2-4.96-28.94,1.91-40.99-6.03,7.45,8.54,23.93,6.09,35.72,7.98,20.71,3.32,33.32,38.29,31.71,53.63,5.65-23.42-9.46-36.2-12.79-49.13-3.63-14.13,3.37-23.83,9.95-28.8-10.28,15.4,7.42,24.63,4.61,44.36,5.23-19.19-4.44-24.66-4.44-34.6s8.59-13,10.29-25.55c1.71,12.55,10.29,15.79,10.29,25.55s-9.66,15.41-4.44,34.6c-2.8-19.73,14.89-28.96,4.61-44.36,6.58,4.98,13.58,14.67,9.95,28.8-3.33,12.93-18.44,25.71-12.79,49.13-1.62-15.35,11-50.31,31.71-53.63,11.78-1.89,28.26.56,35.71-7.98-12.05,7.94-29.79,1.07-40.99,6.03,5.29-5.74,13.54-8.23,29.1-9.3,13.78-.95,21.06-5.38,22.36-11.63,1.8,8.67-2.76,17.59-9.05,21.47,2.99-.07,4.66-.47,7.63-1.95-3.19,5.36-10.42,10.99-21.29,11.18-13.13.23-26.43-7.11-34.07,3.9,0,0,6.5-5.18,13.48-2.48,6.14,2.37,8.12,8.82,7.45,13.13-4.29-10.04-19.16-9.76-25.55-1.42,8.72-6.05,22.36-1.75,22.36,7.99,0,11.89-20.23,9.94-25.55,20.76,2.95-12.4,14.6-12.4,14.6-18.85,0-2.49-1.91-4.16-4.54-4.16-7.59,0-19.82,17.06-12.9,38.45,4.21-12.83,13.13-18.45,23.42-21.82-7.37,4.68-15.18,14.37-14.55,25.9,3.68-14.95,26.56-18.53,24.31-40.45,6.03,14.9.91,26.37-8.69,34.42,21.03-9.36,13.87-27.26,22.48-43.77,8.12-15.57,25.08-20.55,36.78-20.1-5.68,2.09-12.84,6.33-17.22,22.18-2.9,10.48-4.77,20.25-17.02,27.15,7.69-12.26,4.54-25.69,14.9-36.73-13.92,9.83-10.5,27.68-21.12,41.7,10.62-3.41,19.68-9.38,23.6-18.63-2.92,15.76-19.71,32.53-49.15,36.55,30.33,1.29,36.17-15.55,51.45-16.16,9.68-.38,18.14,8.39,28.04,13.68-12.11-3.07-31.11-11.33-41.16,2.13,0,0,6.19-5.26,18.28-3.72,12.27,1.56,23.46,9.4,54.12,11.36-30.65,1.96-41.84,9.8-54.12,11.36-12.08,1.53-18.28-3.73-18.28-3.73,10.06,13.46,29.05,5.2,41.16,2.13-9.9,5.29-18.35,14.06-28.04,13.68-15.28-.61-21.13-17.45-51.45-16.16Zm33.36-7.27c4.61,1.24,8.63,3.77,14.49,3.77,7.11,0,11.07-2.75,16.74-3.77-5.67-1.02-9.63-3.77-16.74-3.77-5.86,0-9.87,2.53-14.49,3.77Zm-72.21-90.31c0,5.12,3.02,8.4,3.02,12.12,0-3.73,3.02-7,3.02-12.12,0-4.57-2.25-6.65-3.02-11.43-.77,4.78-3.02,6.87-3.02,11.43Zm-66.18,90.31c-4.61-1.24-8.63-3.77-14.49-3.77-7.11,0-11.07,2.75-16.74,3.77,5.67,1.02,9.63,3.77,16.74,3.77,5.85,0,9.87-2.53,14.49-3.77Zm72.21,90.31c0-5.12-3.02-8.4-3.02-12.12,0,3.72-3.02,7-3.02,12.12,0,4.57,2.25,6.65,3.02,11.43.77-4.78,3.02-6.87,3.02-11.43Zm42.05-90.31c-9.94,0-24.09-4.98-34.95-3.02,3.45-2.1,4.98-3.67,7.45-6.74-4.41.43-6.76.8-10.11,2.31,2.66-6.02,3.19-9.4,3.72-15.44-3.07,3.57-4.64,5.74-6.56,10.65.71-12.42-4.26-15.25-4.61-31.76-.36,16.51-5.32,19.34-4.61,31.76-1.92-4.91-3.49-7.08-6.56-10.65.53,6.04,1.06,9.42,3.73,15.44-3.36-1.51-5.71-1.87-10.12-2.31,2.47,3.07,4,4.64,7.45,6.74-10.87-1.97-25.02,3.02-34.95,3.02,9.94,0,24.09,4.98,34.95,3.02-3.45,2.1-4.98,3.67-7.45,6.74,4.41-.43,6.76-.8,10.12-2.31-2.66,6.02-3.2,9.4-3.73,15.44,3.07-3.57,4.64-5.74,6.56-10.65-.71,12.42,4.26,15.25,4.61,31.76.36-16.51,5.32-19.34,4.61-31.76,1.93,4.91,3.5,7.08,6.56,10.65-.53-6.04-1.06-9.42-3.72-15.44,3.36,1.51,5.71,1.87,10.11,2.31-2.47-3.07-4-4.64-7.45-6.74,10.87,1.96,25.02-3.02,34.95-3.02Z" style="fill: url(#radial-gradient);"/>
          <path d="m391.76,137.92c2.64,13.83,25.37,16.26,30.29,34.06,3.77-19.12,21.29-19.87,21.54-33.11-3.18,7.8-10.84,5.79-15.88,12.12.85-6.15,4.63-11.89,12.38-15.08-7.67-1.08-15.63,1.83-19.12,9.56-2.56-4.17-2.81-8.45-.67-13.87-4.71,3.63-7.49,9.3-5.65,16.56-7.27-7.27-17.9-3.23-22.88-10.23Z" style="fill: url(#linear-gradient-3);"/>
          <path d="m464.86,259.19c-4.26-.66-9.39-3.2-14.13-1.22,2.32-1.8,1.14-3.51,2.53-5.2-1.92,1.39-3.51.5-4.99,2.75,1.54-5.31-.53-8.14-1.63-14.12-1.1,5.98-3.17,8.81-1.63,14.12-1.47-2.24-3.07-1.36-4.98-2.75,1.38,1.68.21,3.39,2.53,5.2-4.74-1.98-9.87.56-14.13,1.22,4.26.67,9.39,3.2,14.13,1.22-2.32,1.8-1.14,3.52-2.53,5.2,1.92-1.39,3.51-.5,4.98-2.74-1.54,5.31.53,8.14,1.63,14.12,1.1-5.98,3.17-8.81,1.63-14.12,1.48,2.24,3.07,1.36,4.99,2.74-1.38-1.68-.21-3.39-2.53-5.2,4.74,1.98,9.87-.55,14.13-1.22Z" style="fill: #ffc20e;"/>
        </g>
        <g>
          <path d="m81.53,232.01c4.69-4.6,6.91-12.18,7.27-21.72.47-12.53,5.41-17.66,13.33-18.53-11.8,4.58-4.44,17.12-7.94,25.85,6.44-4.79,4.38-20.68,17.63-21.4-9.78,3.2-2.84,16.68-9.29,24.5,7.81-.11,11.4,6.13,21.54,3.23-4.72,3.64-9.96,5.92-18.85,5.92,6.25,3.86,9,8.63,11.31,15.35-10.13-10.59-24.85-14.66-35-13.19Z" style="fill: url(#linear-gradient-4);"/>
          <path d="m67.8,190.69c-5.52,4.58-10.66,12.46-11.44,22.75-1.08-10.23-3.2-18.13-8.21-23.96,0,0,6.33,3.1,8.62,9.15,2.96-5.25,11.04-7.94,11.04-7.94Z" style="fill: #2c973e;"/>
          <path d="m81.8,139.81c-1.22,5.97-6.31,11.18-12.92,13.73,2.71-6.99,1.7-13.8-2.15-19.79.9,7.77-1.47,13.21-5.79,18.04,1.36-4.83,1.24-9.27-1.08-13.87.94,8.48-6.17,12.79-15.62,18.44-12.66,7.58-17.28,16.04-19.25,27.23,3.45-6.87,9.9-13.14,27.86-17.29,22.3-5.16,30.39-12.42,28.95-26.49Z" style="fill: #2c973e;"/>
          <path d="m54.88,137.92c-2.64,13.83-25.37,16.26-30.29,34.06-3.77-19.12-21.29-19.87-21.54-33.11,3.18,7.8,10.84,5.79,15.88,12.12-.85-6.15-4.63-11.89-12.38-15.08,7.67-1.08,15.62,1.83,19.12,9.56,2.56-4.17,2.81-8.45.67-13.87,4.71,3.63,7.49,9.3,5.65,16.56,7.27-7.27,17.9-3.23,22.88-10.23Z" style="fill: url(#linear-gradient-5);"/>
          <path d="m35.84,266.46c29.44,4.02,46.23,20.79,49.15,36.55-3.92-9.25-12.98-15.22-23.6-18.63,10.62,14.01,7.19,31.87,21.12,41.7-10.37-11.04-7.21-24.46-14.9-36.73,12.26,6.9,14.12,16.67,17.02,27.15,4.38,15.84,11.54,20.09,17.22,22.18-11.7.45-28.66-4.53-36.78-20.1-8.61-16.51-1.45-34.41-22.48-43.77,9.6,8.06,14.73,19.52,8.69,34.42,2.26-21.92-20.63-25.5-24.31-40.45-.63,11.53,7.18,21.22,14.55,25.9-10.29-3.37-19.21-8.99-23.42-21.82-6.92,21.39,5.31,38.45,12.9,38.45,2.63,0,4.54-1.67,4.54-4.16,0-6.45-11.64-6.45-14.6-18.85,5.32,10.82,25.55,8.87,25.55,20.76,0,9.74-13.64,14.04-22.36,7.98,6.39,8.34,21.26,8.62,25.55-1.42.66,4.31-1.31,10.76-7.45,13.13-6.99,2.7-13.48-2.48-13.48-2.48,7.64,11.01,20.94,3.67,34.07,3.9,10.87.19,18.11,5.82,21.29,11.18-2.97-1.49-4.64-1.89-7.63-1.95,6.29,3.88,10.85,12.8,9.05,21.47-1.3-6.25-8.57-10.68-22.36-11.63-15.56-1.08-23.81-3.57-29.1-9.3,11.2,4.96,28.94-1.91,40.99,6.03-7.45-8.54-23.93-6.09-35.71-7.98-20.71-3.32-33.32-38.29-31.71-53.63-5.66,23.42,9.46,36.2,12.79,49.13,3.63,14.13-3.37,23.83-9.95,28.8,10.28-15.4-7.42-24.63-4.61-44.36-5.23,19.19,4.44,24.66,4.44,34.6S1.71,365.51,0,378.06c-1.7-12.55-10.29-15.79-10.29-25.55s9.66-15.41,4.44-34.6c2.8,19.73-14.89,28.96-4.61,44.36-6.58-4.98-13.58-14.67-9.95-28.8,3.32-12.93,18.44-25.71,12.79-49.13,1.62,15.35-11,50.31-31.71,53.63-11.78,1.89-28.26-.56-35.72,7.98,12.05-7.94,29.78-1.08,40.99-6.03-5.29,5.73-13.54,8.23-29.1,9.3-13.79.96-21.06,5.38-22.36,11.63-1.8-8.67,2.75-17.59,9.05-21.47-2.99.07-4.66.46-7.63,1.95,3.19-5.36,10.42-10.99,21.29-11.18,13.13-.23,26.42,7.11,34.07-3.9,0,0-6.5,5.18-13.48,2.48-6.15-2.37-8.12-8.82-7.45-13.13,4.29,10.04,19.16,9.76,25.55,1.42-8.72,6.05-22.36,1.75-22.36-7.98,0-11.89,20.23-9.94,25.55-20.76-2.96,12.41-14.6,12.41-14.6,18.85,0,2.49,1.91,4.16,4.54,4.16,7.58,0,19.82-17.06,12.9-38.45-4.2,12.83-13.13,18.45-23.42,21.82,7.37-4.68,15.18-14.37,14.55-25.9-3.68,14.95-26.56,18.53-24.31,40.45-6.03-14.9-.91-26.37,8.7-34.42-21.03,9.36-13.87,27.26-22.48,43.77-8.12,15.57-25.08,20.55-36.78,20.1,5.67-2.09,12.84-6.33,17.22-22.18,2.9-10.48,4.77-20.25,17.02-27.15-7.69,12.27-4.54,25.69-14.9,36.73,13.92-9.83,10.5-27.68,21.11-41.7-10.62,3.41-19.68,9.38-23.6,18.63,2.91-15.76,19.71-32.53,49.15-36.55-30.33-1.29-36.17,15.55-51.46,16.16-9.68.38-18.14-8.39-28.03-13.68,12.11,3.07,31.11,11.33,41.16-2.13,0,0-6.19,5.26-18.28,3.73-12.27-1.56-23.46-9.4-54.12-11.36,30.65-1.96,41.84-9.8,54.12-11.36,12.08-1.54,18.28,3.72,18.28,3.72-10.06-13.46-29.05-5.2-41.16-2.13,9.9-5.29,18.35-14.06,28.03-13.68,15.28.61,21.13,17.45,51.46,16.16-29.44-4.02-46.23-20.79-49.15-36.55,3.92,9.25,12.98,15.22,23.6,18.63-10.62-14.01-7.19-31.87-21.11-41.7,10.37,11.04,7.21,24.46,14.9,36.73-12.26-6.89-14.13-16.67-17.02-27.15-4.38-15.85-11.55-20.09-17.22-22.18,11.7-.45,28.66,4.53,36.78,20.1,8.61,16.51,1.45,34.41,22.48,43.77-9.6-8.06-14.73-19.52-8.7-34.42-2.25,21.92,20.63,25.5,24.31,40.45.63-11.53-7.18-21.22-14.55-25.9,10.29,3.37,19.22,8.99,23.42,21.82,6.93-21.39-5.31-38.45-12.9-38.45-2.63,0-4.54,1.67-4.54,4.16,0,6.45,11.64,6.45,14.6,18.85-5.32-10.82-25.55-8.87-25.55-20.76,0-9.74,13.64-14.04,22.36-7.99-6.39-8.34-21.26-8.62-25.55,1.42-.66-4.31,1.31-10.76,7.45-13.13,6.98-2.7,13.48,2.48,13.48,2.48-7.64-11.01-20.94-3.67-34.07-3.9-10.87-.19-18.11-5.82-21.29-11.18,2.97,1.48,4.64,1.88,7.63,1.95-6.29-3.88-10.85-12.8-9.05-21.47,1.3,6.25,8.57,10.68,22.36,11.63,15.56,1.08,23.81,3.57,29.1,9.3-11.2-4.96-28.94,1.91-40.99-6.03,7.45,8.54,23.93,6.09,35.72,7.98,20.71,3.32,33.32,38.29,31.71,53.63,5.65-23.42-9.46-36.2-12.79-49.13-3.63-14.13,3.37-23.83,9.95-28.8-10.28,15.4,7.42,24.63,4.61,44.36,5.23-19.19-4.44-24.66-4.44-34.6S-1.71,152.86,0,140.31c1.71,12.55,10.29,15.79,10.29,25.55s-9.66,15.41-4.44,34.6c-2.8-19.73,14.89-28.96,4.61-44.36,6.58,4.98,13.58,14.67,9.95,28.8-3.33,12.93-18.44,25.71-12.79,49.13-1.62-15.35,11-50.31,31.71-53.63,11.78-1.89,28.26.56,35.71-7.98-12.05,7.94-29.79,1.07-40.99,6.03,5.29-5.74,13.54-8.23,29.1-9.3,13.78-.95,21.06-5.38,22.36-11.63,1.8,8.67-2.76,17.59-9.05,21.47,2.99-.07,4.66-.47,7.63-1.95-3.19,5.36-10.42,10.99-21.29,11.18-13.13.23-26.43-7.11-34.07,3.9,0,0,6.5-5.18,13.48-2.48,6.14,2.37,8.12,8.82,7.45,13.13-4.29-10.04-19.16-9.76-25.55-1.42,8.72-6.05,22.36-1.75,22.36,7.99,0,11.89-20.23,9.94-25.55,20.76,2.96-12.4,14.6-12.4,14.6-18.85,0-2.49-1.91-4.16-4.54-4.16-7.59,0-19.82,17.06-12.9,38.45,4.21-12.83,13.13-18.45,23.42-21.82-7.37,4.68-15.18,14.37-14.55,25.9,3.68-14.95,26.56-18.53,24.31-40.45,6.03,14.9.91,26.37-8.69,34.42,21.03-9.36,13.87-27.26,22.48-43.77,8.12-15.57,25.08-20.55,36.78-20.1-5.68,2.09-12.84,6.33-17.22,22.18-2.9,10.48-4.77,20.25-17.02,27.15,7.69-12.26,4.54-25.69,14.9-36.73-13.92,9.83-10.5,27.68-21.12,41.7,10.62-3.41,19.68-9.38,23.6-18.63-2.92,15.76-19.71,32.53-49.15,36.55,30.33,1.29,36.17-15.55,51.45-16.16,9.68-.38,18.14,8.39,28.04,13.68-12.11-3.07-31.11-11.33-41.16,2.13,0,0,6.19-5.26,18.28-3.72,12.27,1.56,23.46,9.4,54.12,11.36-30.65,1.96-41.84,9.8-54.12,11.36-12.08,1.53-18.28-3.73-18.28-3.73,10.06,13.46,29.05,5.2,41.16,2.13-9.9,5.29-18.35,14.06-28.04,13.68-15.28-.61-21.13-17.45-51.45-16.16Zm33.36-7.27c4.61,1.24,8.63,3.77,14.49,3.77,7.11,0,11.07-2.75,16.74-3.77-5.67-1.02-9.63-3.77-16.74-3.77-5.86,0-9.87,2.53-14.49,3.77ZM-3.02,168.87C-3.02,174,0,177.27,0,181c0-3.73,3.02-7,3.02-12.12,0-4.57-2.25-6.65-3.02-11.43-.77,4.78-3.02,6.87-3.02,11.43Zm-66.18,90.31c-4.61-1.24-8.63-3.77-14.49-3.77-7.11,0-11.07,2.75-16.74,3.77,5.67,1.02,9.63,3.77,16.74,3.77,5.85,0,9.88-2.53,14.49-3.77ZM3.02,349.5C3.02,344.37,0,341.1,0,337.37c0,3.72-3.02,7-3.02,12.12,0,4.57,2.25,6.65,3.02,11.43.77-4.78,3.02-6.87,3.02-11.43Zm42.05-90.31c-9.94,0-24.09-4.98-34.95-3.02,3.45-2.1,4.98-3.67,7.45-6.74-4.41.43-6.76.8-10.11,2.31,2.66-6.02,3.19-9.4,3.72-15.44-3.07,3.57-4.64,5.74-6.56,10.65C5.32,234.52.35,231.7,0,215.18c-.36,16.51-5.32,19.34-4.61,31.76-1.92-4.91-3.49-7.08-6.56-10.65.53,6.04,1.06,9.42,3.73,15.44-3.36-1.51-5.71-1.87-10.12-2.31,2.47,3.07,4,4.64,7.45,6.74-10.87-1.97-25.02,3.02-34.95,3.02,9.94,0,24.09,4.98,34.95,3.02-3.45,2.1-4.98,3.67-7.45,6.74,4.41-.43,6.76-.8,10.12-2.31-2.66,6.02-3.2,9.4-3.73,15.44,3.07-3.57,4.64-5.74,6.56-10.65-.71,12.42,4.26,15.25,4.61,31.76.36-16.51,5.32-19.34,4.61-31.76,1.93,4.91,3.5,7.08,6.56,10.65-.53-6.04-1.06-9.42-3.72-15.44,3.36,1.51,5.71,1.87,10.11,2.31-2.47-3.07-4-4.64-7.45-6.74,10.87,1.96,25.02-3.02,34.95-3.02Z" style="fill: url(#radial-gradient-2);"/>
          <path d="m18.22,259.19c-4.26-.66-9.39-3.2-14.13-1.22,2.32-1.8,1.14-3.51,2.53-5.2-1.92,1.39-3.51.5-4.99,2.75,1.54-5.31-.53-8.14-1.63-14.12-1.1,5.98-3.17,8.81-1.63,14.12-1.47-2.24-3.07-1.36-4.98-2.75,1.38,1.68.2,3.39,2.53,5.2-4.74-1.98-9.87.56-14.13,1.22,4.26.67,9.39,3.2,14.13,1.22-2.32,1.8-1.14,3.52-2.53,5.2,1.92-1.39,3.51-.5,4.98-2.74-1.54,5.31.53,8.14,1.63,14.12,1.1-5.98,3.17-8.81,1.63-14.12,1.48,2.24,3.07,1.36,4.99,2.74-1.38-1.68-.21-3.39-2.53-5.2,4.74,1.98,9.87-.55,14.13-1.22Z" style="fill: #ffc20e;"/>
        </g>
        <g>
          <path d="m391.76,121.26c2.64-13.83,25.37-16.26,30.29-34.06,3.77,19.12,21.29,19.87,21.54,33.12-3.18-7.8-10.84-5.79-15.88-12.12.85,6.15,4.63,11.89,12.38,15.08-7.67,1.08-15.63-1.83-19.12-9.56-2.56,4.17-2.81,8.45-.67,13.87-4.71-3.63-7.49-9.3-5.65-16.56-7.27,7.27-17.9,3.23-22.88,10.23Z" style="fill: url(#linear-gradient-6);"/>
          <path d="m378.84,68.5c5.52-4.58,10.66-12.46,11.44-22.75,1.08,10.23,3.2,18.13,8.21,23.96,0,0-6.33-3.1-8.62-9.15-2.96,5.25-11.04,7.94-11.04,7.94Z" style="fill: #2c973e;"/>
          <path d="m364.84,119.38c1.22-5.97,6.31-11.18,12.92-13.73-2.71,6.99-1.7,13.8,2.15,19.79-.9-7.77,1.47-13.21,5.79-18.04-1.36,4.83-1.24,9.27,1.08,13.87-.94-8.48,6.17-12.79,15.62-18.44,12.66-7.58,17.28-16.04,19.25-27.23-3.45,6.87-9.9,13.14-27.86,17.29-22.3,5.16-30.39,12.42-28.95,26.49Z" style="fill: #2c973e;"/>
          <path d="m482.48,7.27c29.44,4.02,46.23,20.79,49.15,36.55-3.92-9.25-12.98-15.22-23.6-18.63,10.62,14.01,7.19,31.87,21.12,41.7-10.37-11.04-7.21-24.46-14.9-36.73,12.26,6.9,14.12,16.67,17.02,27.15,4.38,15.84,11.54,20.09,17.22,22.18-11.7.45-28.66-4.53-36.78-20.1-8.61-16.51-1.45-34.41-22.48-43.77,9.6,8.06,14.73,19.52,8.69,34.42,2.26-21.92-20.63-25.51-24.31-40.45-.63,11.53,7.18,21.22,14.55,25.9-10.29-3.37-19.21-8.99-23.42-21.82-6.92,21.39,5.31,38.46,12.9,38.46,2.63,0,4.54-1.67,4.54-4.16,0-6.45-11.64-6.45-14.6-18.86,5.32,10.82,25.55,8.87,25.55,20.76,0,9.74-13.64,14.04-22.36,7.98,6.39,8.34,21.26,8.62,25.55-1.42.66,4.31-1.31,10.76-7.45,13.13-6.99,2.7-13.48-2.48-13.48-2.48,7.64,11.01,20.94,3.67,34.07,3.9,10.87.19,18.11,5.82,21.29,11.18-2.97-1.49-4.64-1.89-7.63-1.95,6.29,3.88,10.85,12.79,9.05,21.47-1.3-6.25-8.57-10.68-22.36-11.63-15.56-1.08-23.81-3.57-29.1-9.3,11.2,4.96,28.94-1.91,40.99,6.03-7.45-8.54-23.93-6.09-35.71-7.98-20.71-3.32-33.32-38.29-31.71-53.63-5.66,23.42,9.46,36.2,12.79,49.13,3.63,14.13-3.37,23.83-9.95,28.8,10.28-15.4-7.42-24.63-4.61-44.36-5.23,19.19,4.44,24.66,4.44,34.6s-8.58,12.99-10.29,25.55c-1.71-12.55-10.29-15.79-10.29-25.55s9.66-15.41,4.44-34.6c2.8,19.73-14.89,28.96-4.61,44.36-6.58-4.98-13.58-14.67-9.95-28.8,3.32-12.93,18.44-25.71,12.79-49.13,1.62,15.35-11,50.31-31.71,53.63-11.78,1.89-28.26-.56-35.72,7.98,12.05-7.94,29.78-1.08,40.99-6.03-5.29,5.73-13.54,8.23-29.1,9.3-13.79.96-21.06,5.38-22.36,11.63-1.8-8.67,2.75-17.59,9.05-21.47-2.99.06-4.66.46-7.63,1.95,3.19-5.36,10.42-10.99,21.29-11.18,13.13-.23,26.42,7.11,34.07-3.9,0,0-6.5,5.18-13.48,2.48-6.15-2.37-8.12-8.82-7.45-13.13,4.29,10.04,19.16,9.76,25.55,1.42-8.72,6.05-22.36,1.75-22.36-7.98,0-11.89,20.23-9.94,25.55-20.76-2.96,12.41-14.6,12.41-14.6,18.86,0,2.49,1.91,4.16,4.54,4.16,7.58,0,19.82-17.06,12.9-38.46-4.2,12.83-13.13,18.45-23.42,21.82,7.37-4.68,15.18-14.37,14.55-25.9-3.68,14.95-26.56,18.53-24.31,40.45-6.03-14.9-.91-26.37,8.7-34.42-21.03,9.37-13.87,27.26-22.48,43.77-8.12,15.57-25.08,20.55-36.78,20.1,5.67-2.09,12.84-6.33,17.22-22.18,2.9-10.48,4.77-20.25,17.02-27.15-7.69,12.27-4.54,25.69-14.9,36.73,13.92-9.83,10.5-27.68,21.11-41.7-10.62,3.41-19.68,9.38-23.6,18.63,2.91-15.76,19.71-32.53,49.15-36.55-30.33-1.29-36.17,15.55-51.46,16.16-9.68.38-18.14-8.39-28.03-13.68,12.11,3.07,31.11,11.33,41.16-2.13,0,0-6.19,5.26-18.28,3.73-12.27-1.56-23.46-9.4-54.12-11.36,30.65-1.96,41.84-9.8,54.12-11.36,12.08-1.54,18.28,3.72,18.28,3.72-10.06-13.46-29.05-5.2-41.16-2.13,9.9-5.29,18.35-14.06,28.03-13.68,15.28.61,21.13,17.45,51.46,16.16-29.44-4.02-46.23-20.79-49.15-36.55,3.92,9.25,12.98,15.22,23.6,18.63-10.62-14.01-7.19-31.87-21.11-41.7,10.37,11.04,7.21,24.46,14.9,36.73-12.26-6.89-14.13-16.67-17.02-27.14-4.38-15.85-11.55-20.09-17.22-22.18,11.7-.45,28.66,4.53,36.78,20.1,8.61,16.51,1.45,34.41,22.48,43.77-9.6-8.05-14.73-19.52-8.7-34.42-2.25,21.92,20.63,25.5,24.31,40.45.63-11.53-7.18-21.22-14.55-25.9,10.29,3.37,19.22,8.99,23.42,21.82,6.93-21.39-5.31-38.46-12.9-38.46-2.63,0-4.54,1.67-4.54,4.16,0,6.45,11.64,6.45,14.6,18.85-5.32-10.82-25.55-8.87-25.55-20.76,0-9.74,13.64-14.04,22.36-7.98-6.39-8.34-21.26-8.62-25.55,1.42-.66-4.31,1.31-10.76,7.45-13.13,6.98-2.7,13.48,2.48,13.48,2.48-7.64-11.01-20.94-3.67-34.07-3.9-10.87-.19-18.11-5.82-21.29-11.18,2.97,1.48,4.64,1.88,7.63,1.95-6.29-3.88-10.85-12.8-9.05-21.47,1.3,6.25,8.57,10.68,22.36,11.63,15.56,1.08,23.81,3.57,29.1,9.3-11.2-4.96-28.94,1.91-40.99-6.03,7.45,8.54,23.93,6.09,35.72,7.98,20.71,3.32,33.32,38.29,31.71,53.63,5.65-23.42-9.46-36.2-12.79-49.13-3.63-14.13,3.37-23.83,9.95-28.8-10.28,15.4,7.42,24.63,4.61,44.36,5.23-19.19-4.44-24.66-4.44-34.6s8.59-12.99,10.29-25.55c1.71,12.55,10.29,15.79,10.29,25.55s-9.66,15.41-4.44,34.6c-2.8-19.73,14.89-28.96,4.61-44.36,6.58,4.97,13.58,14.67,9.95,28.8-3.33,12.93-18.44,25.71-12.79,49.13-1.62-15.35,11-50.31,31.71-53.63,11.78-1.89,28.26.56,35.71-7.98-12.05,7.94-29.79,1.07-40.99,6.03,5.29-5.74,13.54-8.23,29.1-9.3,13.78-.96,21.06-5.38,22.36-11.63,1.8,8.67-2.76,17.59-9.05,21.47,2.99-.07,4.66-.47,7.63-1.95-3.19,5.36-10.42,10.98-21.29,11.18-13.13.23-26.43-7.11-34.07,3.9,0,0,6.5-5.18,13.48-2.48,6.14,2.37,8.12,8.82,7.45,13.13-4.29-10.04-19.16-9.76-25.55-1.42,8.72-6.05,22.36-1.75,22.36,7.98,0,11.89-20.23,9.94-25.55,20.76,2.95-12.4,14.6-12.4,14.6-18.85,0-2.49-1.91-4.16-4.54-4.16-7.59,0-19.82,17.06-12.9,38.46,4.21-12.84,13.13-18.45,23.42-21.82-7.37,4.68-15.18,14.37-14.55,25.9,3.68-14.95,26.56-18.53,24.31-40.45,6.03,14.9.91,26.37-8.69,34.42,21.03-9.36,13.87-27.26,22.48-43.77,8.12-15.57,25.08-20.55,36.78-20.1-5.68,2.09-12.84,6.33-17.22,22.18-2.9,10.48-4.77,20.25-17.02,27.14,7.69-12.26,4.54-25.69,14.9-36.73-13.92,9.83-10.5,27.68-21.12,41.7,10.62-3.41,19.68-9.38,23.6-18.63-2.92,15.76-19.71,32.53-49.15,36.55,30.33,1.29,36.17-15.55,51.45-16.16,9.68-.38,18.14,8.39,28.04,13.68-12.11-3.07-31.11-11.33-41.16,2.13,0,0,6.19-5.26,18.28-3.72,12.27,1.56,23.46,9.4,54.12,11.36-30.65,1.96-41.84,9.8-54.12,11.36-12.08,1.53-18.28-3.73-18.28-3.73,10.06,13.46,29.05,5.2,41.16,2.13-9.9,5.29-18.35,14.06-28.04,13.68-15.28-.61-21.13-17.45-51.45-16.16Zm33.36-7.27c4.61,1.24,8.63,3.77,14.49,3.77,7.11,0,11.07-2.75,16.74-3.77-5.67-1.02-9.63-3.77-16.74-3.77-5.86,0-9.87,2.53-14.49,3.77Zm-72.21-90.31c0,5.12,3.02,8.4,3.02,12.12,0-3.73,3.02-7,3.02-12.12,0-4.57-2.25-6.65-3.02-11.44-.77,4.78-3.02,6.87-3.02,11.44ZM377.44,0c-4.61-1.24-8.63-3.77-14.49-3.77-7.11,0-11.07,2.75-16.74,3.77,5.67,1.02,9.63,3.77,16.74,3.77,5.85,0,9.87-2.53,14.49-3.77Zm72.21,90.31c0-5.12-3.02-8.4-3.02-12.12,0,3.72-3.02,7-3.02,12.12,0,4.57,2.25,6.65,3.02,11.43.77-4.78,3.02-6.87,3.02-11.43ZM491.71,0c-9.94,0-24.09-4.98-34.95-3.02,3.45-2.1,4.98-3.67,7.45-6.74-4.41.43-6.76.8-10.11,2.31,2.66-6.02,3.19-9.4,3.72-15.44-3.07,3.57-4.64,5.74-6.56,10.65.71-12.42-4.26-15.25-4.61-31.76-.36,16.51-5.32,19.34-4.61,31.76-1.92-4.91-3.49-7.08-6.56-10.65.53,6.04,1.06,9.42,3.73,15.44-3.36-1.51-5.71-1.87-10.12-2.31,2.47,3.07,4,4.64,7.45,6.74-10.87-1.97-25.02,3.02-34.95,3.02,9.94,0,24.09,4.98,34.95,3.02-3.45,2.1-4.98,3.67-7.45,6.74,4.41-.43,6.76-.79,10.12-2.3-2.66,6.02-3.2,9.4-3.73,15.44,3.07-3.56,4.64-5.74,6.56-10.65-.71,12.42,4.26,15.25,4.61,31.76.36-16.51,5.32-19.34,4.61-31.76,1.93,4.9,3.5,7.08,6.56,10.65-.53-6.04-1.06-9.42-3.72-15.44,3.36,1.51,5.71,1.87,10.11,2.3-2.47-3.07-4-4.64-7.45-6.74,10.87,1.96,25.02-3.02,34.95-3.02Z" style="fill: url(#radial-gradient-3);"/>
          <path d="m365.11,27.17c-4.69,4.6-6.91,12.19-7.27,21.72-.47,12.53-5.41,17.66-13.33,18.53,11.8-4.58,4.44-17.11,7.94-25.85-6.44,4.79-4.38,20.68-17.63,21.4,9.78-3.2,2.83-16.68,9.29-24.5-7.81.11-11.4-6.12-21.54-3.23,4.71-3.63,9.96-5.92,18.85-5.92-6.25-3.86-9-8.62-11.31-15.35,10.13,10.59,24.85,14.67,35,13.19Z" style="fill: url(#linear-gradient-7);"/>
          <path d="m464.86,0c-4.26-.66-9.39-3.2-14.13-1.22,2.32-1.8,1.14-3.52,2.53-5.2-1.92,1.39-3.51.5-4.99,2.74,1.54-5.31-.53-8.14-1.63-14.12-1.1,5.97-3.17,8.81-1.63,14.12-1.47-2.24-3.07-1.36-4.98-2.74,1.38,1.68.21,3.39,2.53,5.2-4.74-1.98-9.87.55-14.13,1.22,4.26.67,9.39,3.2,14.13,1.22-2.32,1.8-1.14,3.52-2.53,5.2,1.92-1.39,3.51-.5,4.98-2.74-1.54,5.31.53,8.14,1.63,14.12,1.1-5.98,3.17-8.81,1.63-14.12,1.48,2.24,3.07,1.36,4.99,2.74-1.38-1.68-.21-3.39-2.53-5.2,4.74,1.98,9.87-.55,14.13-1.22Z" style="fill: #ffc20e;"/>
        </g>
        <g>
          <path d="m168.44,250.86c2.64-13.83,25.37-16.26,30.29-34.06,3.77,19.12,21.29,19.87,21.54,33.12-3.18-7.8-10.84-5.79-15.88-12.12.85,6.15,4.63,11.89,12.38,15.08-7.67,1.08-15.63-1.83-19.12-9.56-2.56,4.17-2.81,8.45-.67,13.87-4.71-3.63-7.49-9.3-5.65-16.56-7.27,7.27-17.9,3.23-22.88,10.23Z" style="fill: url(#linear-gradient-8);"/>
          <path d="m278.2,250.86c-2.64-13.83-25.37-16.26-30.29-34.06-3.77,19.12-21.29,19.87-21.54,33.12,3.18-7.8,10.84-5.79,15.88-12.12-.85,6.15-4.63,11.89-12.38,15.08,7.67,1.08,15.62-1.83,19.12-9.56,2.56,4.17,2.81,8.45.67,13.87,4.71-3.63,7.49-9.3,5.65-16.56,7.27,7.27,17.9,3.23,22.88,10.23Z" style="fill: url(#linear-gradient-9);"/>
          <path d="m304.85,102.42c4.69-4.6,6.91-12.18,7.27-21.72.47-12.53,5.41-17.66,13.33-18.53-11.8,4.58-4.44,17.12-7.94,25.85,6.44-4.79,4.38-20.68,17.63-21.4-9.78,3.2-2.84,16.68-9.29,24.5,7.81-.11,11.4,6.13,21.54,3.23-4.72,3.64-9.96,5.92-18.85,5.92,6.25,3.86,9,8.63,11.31,15.35-10.13-10.59-24.85-14.66-35-13.19Z" style="fill: url(#linear-gradient-10);"/>
          <path d="m155.52,61.1c5.52,4.58,10.66,12.46,11.44,22.75,1.08-10.23,3.2-18.13,8.21-23.96,0,0-6.33,3.1-8.62,9.15-2.96-5.25-11.04-7.94-11.04-7.94Z" style="fill: #2c973e;"/>
          <path d="m141.52,10.21c1.22,5.97,6.31,11.18,12.92,13.73-2.71-6.99-1.7-13.8,2.15-19.79-.9,7.77,1.47,13.21,5.79,18.04-1.36-4.83-1.24-9.27,1.08-13.87-.94,8.48,6.17,12.79,15.62,18.44,12.66,7.58,17.28,16.04,19.25,27.23-3.45-6.87-9.9-13.14-27.86-17.29-22.3-5.16-30.39-12.42-28.95-26.49Z" style="fill: #2c973e;"/>
          <path d="m141.79,102.42c-4.69-4.6-6.91-12.18-7.27-21.72-.47-12.53-5.41-17.66-13.33-18.53,11.8,4.58,4.44,17.12,7.94,25.85-6.44-4.79-4.38-20.68-17.63-21.4,9.78,3.2,2.83,16.68,9.29,24.5-7.81-.11-11.4,6.13-21.54,3.23,4.71,3.64,9.96,5.92,18.85,5.92-6.25,3.86-9,8.63-11.31,15.35,10.13-10.59,24.85-14.66,35-13.19Z" style="fill: url(#linear-gradient-11);"/>
          <path d="m291.12,61.1c-5.52,4.58-10.66,12.46-11.44,22.75-1.08-10.23-3.2-18.13-8.21-23.96,0,0,6.33,3.1,8.62,9.15,2.96-5.25,11.04-7.94,11.04-7.94Z" style="fill: #2c973e;"/>
          <path d="m305.12,10.21c-1.22,5.97-6.31,11.18-12.92,13.73,2.71-6.99,1.7-13.8-2.15-19.79.9,7.77-1.47,13.21-5.79,18.04,1.36-4.83,1.24-9.27-1.08-13.87.94,8.48-6.17,12.79-15.62,18.44-12.66,7.58-17.28,16.04-19.25,27.23,3.45-6.87,9.9-13.14,27.86-17.29,22.3-5.16,30.39-12.42,28.95-26.49Z" style="fill: #2c973e;"/>
          <path d="m278.2,8.33c-2.64,13.83-25.37,16.26-30.29,34.06-3.77-19.12-21.29-19.87-21.54-33.11,3.18,7.8,10.84,5.79,15.88,12.12-.85-6.15-4.63-11.89-12.38-15.08,7.67-1.08,15.62,1.83,19.12,9.56,2.56-4.17,2.81-8.45.67-13.87,4.71,3.63,7.49,9.3,5.65,16.56,7.27-7.27,17.9-3.23,22.88-10.23Z" style="fill: url(#linear-gradient-12);"/>
          <path d="m155.52,198.09c5.52-4.58,10.66-12.46,11.44-22.75,1.08,10.23,3.2,18.14,8.21,23.96,0,0-6.33-3.1-8.62-9.15-2.96,5.25-11.04,7.94-11.04,7.94Z" style="fill: #2c973e;"/>
          <path d="m141.52,248.97c1.22-5.97,6.31-11.18,12.92-13.73-2.71,6.99-1.7,13.8,2.15,19.79-.9-7.77,1.47-13.21,5.79-18.04-1.36,4.83-1.24,9.27,1.08,13.87-.94-8.48,6.17-12.79,15.62-18.44,12.66-7.58,17.28-16.04,19.25-27.23-3.45,6.87-9.9,13.14-27.86,17.29-22.3,5.16-30.39,12.42-28.95,26.49Z" style="fill: #2c973e;"/>
          <path d="m259.16,136.87c29.44,4.02,46.23,20.79,49.15,36.55-3.92-9.25-12.98-15.22-23.6-18.63,10.62,14.01,7.19,31.87,21.12,41.7-10.37-11.04-7.21-24.46-14.9-36.73,12.26,6.9,14.12,16.67,17.02,27.15,4.38,15.84,11.54,20.09,17.22,22.18-11.7.45-28.66-4.53-36.78-20.1-8.61-16.51-1.45-34.41-22.48-43.77,9.6,8.06,14.73,19.52,8.69,34.42,2.26-21.92-20.63-25.5-24.31-40.45-.63,11.53,7.18,21.22,14.55,25.9-10.29-3.37-19.21-8.99-23.42-21.82-6.92,21.39,5.31,38.46,12.9,38.46,2.63,0,4.54-1.67,4.54-4.16,0-6.45-11.64-6.45-14.6-18.85,5.32,10.82,25.55,8.87,25.55,20.76,0,9.74-13.64,14.04-22.36,7.98,6.39,8.34,21.26,8.62,25.55-1.42.66,4.31-1.31,10.76-7.45,13.13-6.99,2.7-13.48-2.48-13.48-2.48,7.64,11.01,20.94,3.67,34.07,3.9,10.87.19,18.11,5.82,21.29,11.18-2.97-1.49-4.64-1.89-7.63-1.95,6.29,3.88,10.85,12.8,9.05,21.47-1.3-6.25-8.57-10.68-22.36-11.63-15.56-1.08-23.81-3.57-29.1-9.3,11.2,4.96,28.94-1.91,40.99,6.03-7.45-8.54-23.93-6.09-35.71-7.98-20.71-3.32-33.32-38.29-31.71-53.63-5.66,23.42,9.46,36.2,12.79,49.13,3.63,14.13-3.37,23.83-9.95,28.8,10.28-15.4-7.42-24.63-4.61-44.36-5.23,19.19,4.44,24.66,4.44,34.6s-8.58,12.99-10.29,25.55c-1.71-12.55-10.29-15.79-10.29-25.55s9.66-15.41,4.44-34.6c2.8,19.73-14.89,28.96-4.61,44.36-6.58-4.98-13.58-14.67-9.95-28.8,3.32-12.93,18.44-25.71,12.79-49.13,1.62,15.35-11,50.31-31.71,53.63-11.78,1.89-28.26-.56-35.72,7.98,12.05-7.94,29.78-1.08,40.99-6.03-5.29,5.73-13.54,8.23-29.1,9.3-13.79.95-21.06,5.38-22.36,11.63-1.8-8.67,2.75-17.59,9.05-21.47-2.99.07-4.66.46-7.63,1.95,3.19-5.36,10.42-10.99,21.29-11.18,13.13-.23,26.42,7.11,34.07-3.9,0,0-6.5,5.18-13.48,2.48-6.15-2.37-8.12-8.82-7.45-13.13,4.29,10.04,19.16,9.76,25.55,1.42-8.72,6.05-22.36,1.75-22.36-7.98,0-11.89,20.23-9.94,25.55-20.76-2.96,12.41-14.6,12.41-14.6,18.85,0,2.49,1.91,4.16,4.54,4.16,7.58,0,19.82-17.06,12.9-38.46-4.2,12.83-13.13,18.45-23.42,21.82,7.37-4.68,15.18-14.37,14.55-25.9-3.68,14.95-26.56,18.53-24.31,40.45-6.03-14.9-.91-26.37,8.7-34.42-21.03,9.36-13.87,27.26-22.48,43.77-8.12,15.57-25.08,20.55-36.78,20.1,5.67-2.09,12.84-6.33,17.22-22.18,2.9-10.48,4.77-20.25,17.02-27.15-7.69,12.27-4.54,25.69-14.9,36.73,13.92-9.83,10.5-27.68,21.11-41.7-10.62,3.41-19.68,9.38-23.6,18.63,2.91-15.76,19.71-32.53,49.15-36.55-30.33-1.29-36.17,15.55-51.46,16.16-9.68.38-18.14-8.39-28.03-13.68,12.11,3.07,31.11,11.33,41.16-2.13,0,0-6.19,5.26-18.28,3.73-12.27-1.56-23.46-9.4-54.12-11.36,30.65-1.96,41.84-9.8,54.12-11.36,12.08-1.54,18.28,3.72,18.28,3.72-10.06-13.46-29.05-5.2-41.16-2.13,9.9-5.29,18.35-14.06,28.03-13.68,15.28.61,21.13,17.45,51.46,16.16-29.44-4.02-46.23-20.79-49.15-36.55,3.92,9.25,12.98,15.22,23.6,18.63-10.62-14.01-7.19-31.87-21.11-41.7,10.37,11.04,7.21,24.46,14.9,36.73-12.26-6.89-14.13-16.67-17.02-27.15-4.38-15.85-11.55-20.09-17.22-22.18,11.7-.45,28.66,4.53,36.78,20.1,8.61,16.51,1.45,34.41,22.48,43.77-9.6-8.06-14.73-19.52-8.7-34.42-2.25,21.92,20.63,25.5,24.31,40.45.63-11.53-7.18-21.22-14.55-25.9,10.29,3.37,19.22,8.99,23.42,21.82,6.93-21.39-5.31-38.46-12.9-38.46-2.63,0-4.54,1.67-4.54,4.16,0,6.45,11.64,6.45,14.6,18.85-5.32-10.82-25.55-8.87-25.55-20.76,0-9.74,13.64-14.04,22.36-7.99-6.39-8.34-21.26-8.62-25.55,1.42-.66-4.31,1.31-10.76,7.45-13.13,6.98-2.7,13.48,2.48,13.48,2.48-7.64-11.01-20.94-3.67-34.07-3.9-10.87-.19-18.11-5.82-21.29-11.18,2.97,1.48,4.64,1.88,7.63,1.95-6.29-3.88-10.85-12.8-9.05-21.47,1.3,6.25,8.57,10.68,22.36,11.63,15.56,1.08,23.81,3.57,29.1,9.3-11.2-4.96-28.94,1.91-40.99-6.03,7.45,8.54,23.93,6.09,35.72,7.98,20.71,3.32,33.32,38.29,31.71,53.63,5.65-23.42-9.46-36.2-12.79-49.13-3.63-14.13,3.37-23.83,9.95-28.8-10.28,15.4,7.42,24.63,4.61,44.36,5.23-19.19-4.44-24.66-4.44-34.6s8.59-13,10.29-25.55c1.71,12.55,10.29,15.79,10.29,25.55s-9.66,15.41-4.44,34.6c-2.8-19.73,14.89-28.96,4.61-44.36,6.58,4.98,13.58,14.67,9.95,28.8-3.33,12.93-18.44,25.71-12.79,49.13-1.62-15.35,11-50.31,31.71-53.63,11.78-1.89,28.26.56,35.71-7.98-12.05,7.94-29.79,1.07-40.99,6.03,5.29-5.74,13.54-8.23,29.1-9.3,13.78-.96,21.06-5.38,22.36-11.63,1.8,8.67-2.76,17.59-9.05,21.47,2.99-.07,4.66-.47,7.63-1.95-3.19,5.36-10.42,10.99-21.29,11.18-13.13.23-26.43-7.11-34.07,3.9,0,0,6.5-5.18,13.48-2.48,6.14,2.37,8.12,8.82,7.45,13.13-4.29-10.04-19.16-9.76-25.55-1.42,8.72-6.05,22.36-1.75,22.36,7.99,0,11.89-20.23,9.94-25.55,20.76,2.95-12.4,14.6-12.4,14.6-18.85,0-2.49-1.91-4.16-4.54-4.16-7.59,0-19.82,17.06-12.9,38.46,4.21-12.83,13.13-18.45,23.42-21.82-7.37,4.68-15.18,14.37-14.55,25.9,3.68-14.95,26.56-18.53,24.31-40.45,6.03,14.9.91,26.37-8.69,34.42,21.03-9.36,13.87-27.26,22.48-43.77,8.12-15.57,25.08-20.55,36.78-20.1-5.68,2.09-12.84,6.33-17.22,22.18-2.9,10.48-4.77,20.25-17.02,27.15,7.69-12.26,4.54-25.69,14.9-36.73-13.92,9.83-10.5,27.68-21.12,41.7,10.62-3.41,19.68-9.38,23.6-18.63-2.92,15.76-19.71,32.53-49.15,36.55,30.33,1.29,36.17-15.55,51.45-16.16,9.68-.38,18.14,8.39,28.04,13.68-12.11-3.07-31.11-11.33-41.16,2.13,0,0,6.19-5.26,18.28-3.72,12.27,1.56,23.46,9.4,54.12,11.36-30.65,1.96-41.84,9.8-54.12,11.36-12.08,1.53-18.28-3.73-18.28-3.73,10.06,13.46,29.05,5.2,41.16,2.13-9.9,5.29-18.35,14.06-28.04,13.68-15.28-.61-21.13-17.45-51.45-16.16Zm33.36-7.27c4.61,1.24,8.63,3.77,14.49,3.77,7.11,0,11.07-2.75,16.74-3.77-5.67-1.02-9.63-3.77-16.74-3.77-5.86,0-9.87,2.53-14.49,3.77Zm-72.21-90.31c0,5.12,3.02,8.4,3.02,12.12,0-3.73,3.02-7,3.02-12.12,0-4.57-2.25-6.65-3.02-11.43-.77,4.78-3.02,6.87-3.02,11.43Zm-66.18,90.31c-4.61-1.24-8.63-3.77-14.49-3.77-7.11,0-11.07,2.75-16.74,3.77,5.67,1.02,9.63,3.77,16.74,3.77,5.85,0,9.87-2.53,14.49-3.77Zm72.21,90.31c0-5.12-3.02-8.4-3.02-12.12,0,3.72-3.02,7-3.02,12.12,0,4.57,2.25,6.65,3.02,11.43.77-4.78,3.02-6.87,3.02-11.43Zm42.05-90.31c-9.94,0-24.09-4.98-34.95-3.02,3.45-2.1,4.98-3.67,7.45-6.74-4.41.43-6.76.8-10.11,2.31,2.66-6.02,3.19-9.4,3.72-15.44-3.07,3.57-4.64,5.74-6.56,10.65.71-12.42-4.26-15.25-4.61-31.76-.36,16.51-5.32,19.34-4.61,31.76-1.92-4.91-3.49-7.08-6.56-10.65.53,6.04,1.06,9.42,3.73,15.44-3.36-1.51-5.71-1.87-10.12-2.31,2.47,3.07,4,4.64,7.45,6.74-10.87-1.97-25.02,3.02-34.95,3.02,9.94,0,24.09,4.98,34.95,3.02-3.45,2.1-4.98,3.67-7.45,6.74,4.41-.43,6.76-.8,10.12-2.31-2.66,6.02-3.2,9.4-3.73,15.44,3.07-3.57,4.64-5.74,6.56-10.65-.71,12.42,4.26,15.25,4.61,31.76.36-16.51,5.32-19.34,4.61-31.76,1.93,4.91,3.5,7.08,6.56,10.65-.53-6.04-1.06-9.42-3.72-15.44,3.36,1.51,5.71,1.87,10.11,2.31-2.47-3.07-4-4.64-7.45-6.74,10.87,1.96,25.02-3.02,34.95-3.02Z" style="fill: url(#radial-gradient-4);"/>
          <path d="m291.12,198.09c-5.52-4.58-10.66-12.46-11.44-22.75-1.08,10.23-3.2,18.14-8.21,23.96,0,0,6.33-3.1,8.62-9.15,2.96,5.25,11.04,7.94,11.04,7.94Z" style="fill: #2c973e;"/>
          <path d="m305.12,248.97c-1.22-5.97-6.31-11.18-12.92-13.73,2.71,6.99,1.7,13.8-2.15,19.79.9-7.77-1.47-13.21-5.79-18.04,1.36,4.83,1.24,9.27-1.08,13.87.94-8.48-6.17-12.79-15.62-18.44-12.66-7.58-17.28-16.04-19.25-27.23,3.45,6.87,9.9,13.14,27.86,17.29,22.3,5.16,30.39,12.42,28.95,26.49Z" style="fill: #2c973e;"/>
          <path d="m304.85,156.76c4.69,4.6,6.91,12.19,7.27,21.72.47,12.53,5.41,17.66,13.33,18.53-11.8-4.58-4.44-17.11-7.94-25.85,6.44,4.79,4.38,20.68,17.63,21.4-9.78-3.2-2.84-16.67-9.29-24.5,7.81.11,11.4-6.12,21.54-3.23-4.72-3.63-9.96-5.92-18.85-5.92,6.25-3.86,9-8.62,11.31-15.35-10.13,10.59-24.85,14.67-35,13.19Z" style="fill: url(#linear-gradient-13);"/>
          <path d="m141.79,156.76c-4.69,4.6-6.91,12.19-7.27,21.72-.47,12.53-5.41,17.66-13.33,18.53,11.8-4.58,4.44-17.11,7.94-25.85-6.44,4.79-4.38,20.68-17.63,21.4,9.78-3.2,2.83-16.67,9.29-24.5-7.81.11-11.4-6.12-21.54-3.23,4.71-3.63,9.96-5.92,18.85-5.92-6.25-3.86-9-8.62-11.31-15.35,10.13,10.59,24.85,14.67,35,13.19Z" style="fill: url(#linear-gradient-14);"/>
          <path d="m168.44,8.33c2.64,13.83,25.37,16.26,30.29,34.06,3.77-19.12,21.29-19.87,21.54-33.11-3.18,7.8-10.84,5.79-15.88,12.12.85-6.15,4.63-11.89,12.38-15.08-7.67-1.08-15.63,1.83-19.12,9.56-2.56-4.17-2.81-8.45-.67-13.87-4.71,3.63-7.49,9.3-5.65,16.56-7.27-7.27-17.9-3.23-22.88-10.23Z" style="fill: url(#linear-gradient-15);"/>
          <path d="m241.54,129.59c-4.26-.66-9.39-3.2-14.13-1.22,2.32-1.8,1.14-3.51,2.53-5.2-1.92,1.39-3.51.5-4.99,2.75,1.54-5.31-.53-8.14-1.63-14.12-1.1,5.98-3.17,8.81-1.63,14.12-1.47-2.24-3.07-1.36-4.98-2.75,1.38,1.68.2,3.39,2.53,5.2-4.74-1.98-9.87.56-14.13,1.22,4.26.67,9.39,3.2,14.13,1.22-2.32,1.8-1.14,3.52-2.53,5.2,1.92-1.39,3.51-.5,4.98-2.74-1.54,5.31.53,8.14,1.63,14.12,1.1-5.98,3.17-8.81,1.63-14.12,1.48,2.24,3.07,1.36,4.99,2.74-1.38-1.68-.21-3.39-2.53-5.2,4.74,1.98,9.87-.55,14.13-1.22Z" style="fill: #ffc20e;"/>
        </g>
        <g>
          <path d="m54.88,121.26c-2.64-13.83-25.37-16.26-30.29-34.06-3.77,19.12-21.29,19.87-21.54,33.12,3.18-7.8,10.84-5.79,15.88-12.12-.85,6.15-4.63,11.89-12.38,15.08,7.67,1.08,15.62-1.83,19.12-9.56,2.56,4.17,2.81,8.45.67,13.87,4.71-3.63,7.49-9.3,5.65-16.56,7.27,7.27,17.9,3.23,22.88,10.23Z" style="fill: url(#linear-gradient-16);"/>
          <path d="m35.84,7.27c29.44,4.02,46.23,20.79,49.15,36.55-3.92-9.25-12.98-15.22-23.6-18.63,10.62,14.01,7.19,31.87,21.12,41.7-10.37-11.04-7.21-24.46-14.9-36.73,12.26,6.9,14.12,16.67,17.02,27.15,4.38,15.84,11.54,20.09,17.22,22.18-11.7.45-28.66-4.53-36.78-20.1-8.61-16.51-1.45-34.41-22.48-43.77,9.6,8.06,14.73,19.52,8.69,34.42,2.26-21.92-20.63-25.51-24.31-40.45-.63,11.53,7.18,21.22,14.55,25.9-10.29-3.37-19.21-8.99-23.42-21.82-6.92,21.39,5.31,38.46,12.9,38.46,2.63,0,4.54-1.67,4.54-4.16,0-6.45-11.64-6.45-14.6-18.86,5.32,10.82,25.55,8.87,25.55,20.76,0,9.74-13.64,14.04-22.36,7.98,6.39,8.34,21.26,8.62,25.55-1.42.66,4.31-1.31,10.76-7.45,13.13-6.99,2.7-13.48-2.48-13.48-2.48,7.64,11.01,20.94,3.67,34.07,3.9,10.87.19,18.11,5.82,21.29,11.18-2.97-1.49-4.64-1.89-7.63-1.95,6.29,3.88,10.85,12.79,9.05,21.47-1.3-6.25-8.57-10.68-22.36-11.63-15.56-1.08-23.81-3.57-29.1-9.3,11.2,4.96,28.94-1.91,40.99,6.03-7.45-8.54-23.93-6.09-35.71-7.98C18.63,75.46,6.01,40.5,7.63,25.15c-5.66,23.42,9.46,36.2,12.79,49.13,3.63,14.13-3.37,23.83-9.95,28.8,10.28-15.4-7.42-24.63-4.61-44.36-5.23,19.19,4.44,24.66,4.44,34.6S1.71,106.32,0,118.88c-1.7-12.55-10.29-15.79-10.29-25.55S-.63,77.92-5.86,58.73c2.8,19.73-14.89,28.96-4.61,44.36-6.58-4.98-13.58-14.67-9.95-28.8,3.32-12.93,18.44-25.71,12.79-49.13,1.62,15.35-11,50.31-31.71,53.63-11.78,1.89-28.26-.56-35.72,7.98,12.05-7.94,29.78-1.08,40.99-6.03-5.29,5.73-13.54,8.23-29.1,9.3-13.79.96-21.06,5.38-22.36,11.63-1.8-8.67,2.75-17.59,9.05-21.47-2.99.06-4.66.46-7.63,1.95,3.19-5.36,10.42-10.99,21.29-11.18,13.13-.23,26.42,7.11,34.07-3.9,0,0-6.5,5.18-13.48,2.48-6.15-2.37-8.12-8.82-7.45-13.13,4.29,10.04,19.16,9.76,25.55,1.42-8.72,6.05-22.36,1.75-22.36-7.98,0-11.89,20.23-9.94,25.55-20.76-2.96,12.41-14.6,12.41-14.6,18.86,0,2.49,1.91,4.16,4.54,4.16,7.58,0,19.82-17.06,12.9-38.46-4.2,12.83-13.13,18.45-23.42,21.82,7.37-4.68,15.18-14.37,14.55-25.9-3.68,14.95-26.56,18.53-24.31,40.45-6.03-14.9-.91-26.37,8.7-34.42-21.03,9.37-13.87,27.26-22.48,43.77-8.12,15.57-25.08,20.55-36.78,20.1,5.67-2.09,12.84-6.33,17.22-22.18,2.9-10.48,4.77-20.25,17.02-27.15-7.69,12.27-4.54,25.69-14.9,36.73,13.92-9.83,10.5-27.68,21.11-41.7-10.62,3.41-19.68,9.38-23.6,18.63,2.91-15.76,19.71-32.53,49.15-36.55-30.33-1.29-36.17,15.55-51.46,16.16-9.68.38-18.14-8.39-28.03-13.68,12.11,3.07,31.11,11.33,41.16-2.13,0,0-6.19,5.26-18.28,3.73-12.27-1.56-23.46-9.4-54.12-11.36,30.65-1.96,41.84-9.8,54.12-11.36,12.08-1.54,18.28,3.72,18.28,3.72-10.06-13.46-29.05-5.2-41.16-2.13,9.9-5.29,18.35-14.06,28.03-13.68,15.28.61,21.13,17.45,51.46,16.16-29.44-4.02-46.23-20.79-49.15-36.55,3.92,9.25,12.98,15.22,23.6,18.63-10.62-14.01-7.19-31.87-21.11-41.7,10.37,11.04,7.21,24.46,14.9,36.73-12.26-6.89-14.13-16.67-17.02-27.14-4.38-15.85-11.55-20.09-17.22-22.18,11.7-.45,28.66,4.53,36.78,20.1,8.61,16.51,1.45,34.41,22.48,43.77-9.6-8.05-14.73-19.52-8.7-34.42-2.25,21.92,20.63,25.5,24.31,40.45.63-11.53-7.18-21.22-14.55-25.9,10.29,3.37,19.22,8.99,23.42,21.82,6.93-21.39-5.31-38.46-12.9-38.46-2.63,0-4.54,1.67-4.54,4.16,0,6.45,11.64,6.45,14.6,18.85-5.32-10.82-25.55-8.87-25.55-20.76,0-9.74,13.64-14.04,22.36-7.98-6.39-8.34-21.26-8.62-25.55,1.42-.66-4.31,1.31-10.76,7.45-13.13,6.98-2.7,13.48,2.48,13.48,2.48-7.64-11.01-20.94-3.67-34.07-3.9-10.87-.19-18.11-5.82-21.29-11.18,2.97,1.48,4.64,1.88,7.63,1.95-6.29-3.88-10.85-12.8-9.05-21.47,1.3,6.25,8.57,10.68,22.36,11.63,15.56,1.08,23.81,3.57,29.1,9.3-11.2-4.96-28.94,1.91-40.99-6.03,7.45,8.54,23.93,6.09,35.72,7.98C-18.63-75.46-6.01-40.5-7.63-25.15c5.65-23.42-9.46-36.2-12.79-49.13-3.63-14.13,3.37-23.83,9.95-28.8-10.28,15.4,7.42,24.63,4.61,44.36,5.23-19.19-4.44-24.66-4.44-34.6S-1.71-106.32,0-118.88c1.71,12.55,10.29,15.79,10.29,25.55S.63-77.92,5.85-58.73c-2.8-19.73,14.89-28.96,4.61-44.36,6.58,4.97,13.58,14.67,9.95,28.8-3.33,12.93-18.44,25.71-12.79,49.13-1.62-15.35,11-50.31,31.71-53.63,11.78-1.89,28.26.56,35.71-7.98-12.05,7.94-29.79,1.07-40.99,6.03,5.29-5.74,13.54-8.23,29.1-9.3,13.78-.96,21.06-5.38,22.36-11.63,1.8,8.67-2.76,17.59-9.05,21.47,2.99-.07,4.66-.47,7.63-1.95-3.19,5.36-10.42,10.98-21.29,11.18-13.13.23-26.43-7.11-34.07,3.9,0,0,6.5-5.18,13.48-2.48,6.14,2.37,8.12,8.82,7.45,13.13-4.29-10.04-19.16-9.76-25.55-1.42,8.72-6.05,22.36-1.75,22.36,7.98,0,11.89-20.23,9.94-25.55,20.76,2.96-12.4,14.6-12.4,14.6-18.85,0-2.49-1.91-4.16-4.54-4.16-7.59,0-19.82,17.06-12.9,38.46,4.21-12.84,13.13-18.45,23.42-21.82-7.37,4.68-15.18,14.37-14.55,25.9,3.68-14.95,26.56-18.53,24.31-40.45,6.03,14.9.91,26.37-8.69,34.42,21.03-9.36,13.87-27.26,22.48-43.77,8.12-15.57,25.08-20.55,36.78-20.1-5.68,2.09-12.84,6.33-17.22,22.18-2.9,10.48-4.77,20.25-17.02,27.14,7.69-12.26,4.54-25.69,14.9-36.73-13.92,9.83-10.5,27.68-21.12,41.7,10.62-3.41,19.68-9.38,23.6-18.63-2.92,15.76-19.71,32.53-49.15,36.55,30.33,1.29,36.17-15.55,51.45-16.16,9.68-.38,18.14,8.39,28.04,13.68-12.11-3.07-31.11-11.33-41.16,2.13,0,0,6.19-5.26,18.28-3.72,12.27,1.56,23.46,9.4,54.12,11.36-30.65,1.96-41.84,9.8-54.12,11.36-12.08,1.53-18.28-3.73-18.28-3.73,10.06,13.46,29.05,5.2,41.16,2.13-9.9,5.29-18.35,14.06-28.04,13.68-15.28-.61-21.13-17.45-51.45-16.16ZM69.2,0c4.61,1.24,8.63,3.77,14.49,3.77,7.11,0,11.07-2.75,16.74-3.77-5.67-1.02-9.63-3.77-16.74-3.77-5.86,0-9.87,2.53-14.49,3.77ZM-3.02-90.31C-3.02-85.19,0-81.91,0-78.19c0-3.73,3.02-7,3.02-12.12,0-4.57-2.25-6.65-3.02-11.44-.77,4.78-3.02,6.87-3.02,11.44ZM-69.2,0c-4.61-1.24-8.63-3.77-14.49-3.77-7.11,0-11.07,2.75-16.74,3.77,5.67,1.02,9.63,3.77,16.74,3.77,5.85,0,9.88-2.53,14.49-3.77ZM3.02,90.31C3.02,85.19,0,81.91,0,78.19c0,3.72-3.02,7-3.02,12.12,0,4.57,2.25,6.65,3.02,11.43.77-4.78,3.02-6.87,3.02-11.43ZM45.07,0c-9.94,0-24.09-4.98-34.95-3.02,3.45-2.1,4.98-3.67,7.45-6.74-4.41.43-6.76.8-10.11,2.31,2.66-6.02,3.19-9.4,3.72-15.44-3.07,3.57-4.64,5.74-6.56,10.65C5.32-24.66.35-27.49,0-44-.36-27.49-5.32-24.66-4.61-12.24c-1.92-4.91-3.49-7.08-6.56-10.65.53,6.04,1.06,9.42,3.73,15.44-3.36-1.51-5.71-1.87-10.12-2.31,2.47,3.07,4,4.64,7.45,6.74-10.87-1.97-25.02,3.02-34.95,3.02,9.94,0,24.09,4.98,34.95,3.02-3.45,2.1-4.98,3.67-7.45,6.74,4.41-.43,6.76-.79,10.12-2.3-2.66,6.02-3.2,9.4-3.73,15.44,3.07-3.56,4.64-5.74,6.56-10.65C-5.32,24.66-.36,27.49,0,44,.35,27.49,5.32,24.66,4.61,12.24c1.93,4.9,3.5,7.08,6.56,10.65-.53-6.04-1.06-9.42-3.72-15.44,3.36,1.51,5.71,1.87,10.11,2.3-2.47-3.07-4-4.64-7.45-6.74,10.87,1.96,25.02-3.02,34.95-3.02Z" style="fill: url(#radial-gradient-5);"/>
          <path d="m67.8,68.5c-5.52-4.58-10.66-12.46-11.44-22.75-1.08,10.23-3.2,18.13-8.21,23.96,0,0,6.33-3.1,8.62-9.15,2.96,5.25,11.04,7.94,11.04,7.94Z" style="fill: #2c973e;"/>
          <path d="m81.8,119.38c-1.22-5.97-6.31-11.18-12.92-13.73,2.71,6.99,1.7,13.8-2.15,19.79.9-7.77-1.47-13.21-5.79-18.04,1.36,4.83,1.24,9.27-1.08,13.87.94-8.48-6.17-12.79-15.62-18.44-12.66-7.58-17.28-16.04-19.25-27.23,3.45,6.87,9.9,13.14,27.86,17.29,22.3,5.16,30.39,12.42,28.95,26.49Z" style="fill: #2c973e;"/>
          <path d="m81.53,27.17c4.69,4.6,6.91,12.19,7.27,21.72.47,12.53,5.41,17.66,13.33,18.53-11.8-4.58-4.44-17.11-7.94-25.85,6.44,4.79,4.38,20.68,17.63,21.4-9.78-3.2-2.84-16.68-9.29-24.5,7.81.11,11.4-6.12,21.54-3.23-4.72-3.63-9.96-5.92-18.85-5.92,6.25-3.86,9-8.62,11.31-15.35-10.13,10.59-24.85,14.67-35,13.19Z" style="fill: url(#linear-gradient-17);"/>
          <path d="m18.22,0c-4.26-.66-9.39-3.2-14.13-1.22,2.32-1.8,1.14-3.52,2.53-5.2-1.92,1.39-3.51.5-4.99,2.74C3.17-8.98,1.1-11.81,0-17.79-1.1-11.81-3.17-8.98-1.63-3.67c-1.47-2.24-3.07-1.36-4.98-2.74,1.38,1.68.2,3.39,2.53,5.2-4.74-1.98-9.87.55-14.13,1.22,4.26.67,9.39,3.2,14.13,1.22-2.32,1.8-1.14,3.52-2.53,5.2,1.92-1.39,3.51-.5,4.98-2.74C-3.17,8.98-1.1,11.81,0,17.79,1.1,11.81,3.17,8.98,1.63,3.67c1.48,2.24,3.07,1.36,4.99,2.74-1.38-1.68-.21-3.39-2.53-5.2,4.74,1.98,9.87-.55,14.13-1.22Z" style="fill: #ffc20e;"/>
        </g>
      </g>
    </pattern>
    <linearGradient id="linear-gradient-18" x1="479.01" y1="236.85" x2="432.39" y2="92.48" gradientUnits="userSpaceOnUse">
      <stop offset=".71" stop-color="#fff"/>
      <stop offset="1" stop-color="#231f20"/>
    </linearGradient>
    <linearGradient id="linear-gradient-19" x1="273.18" y1="1063.53" x2="205.44" y2="853.79" xlink:href="#linear-gradient-18"/>
    <linearGradient id="linear-gradient-20" x1="602.98" y1="1184.36" x2="525.15" y2="943.34" xlink:href="#linear-gradient-18"/>
    <linearGradient id="linear-gradient-21" x1="811.15" y1="878.76" x2="777.15" y2="773.49" xlink:href="#linear-gradient-18"/>
    <linearGradient id="linear-gradient-22" x1="168.2" y1="747.69" x2="132.93" y2="638.45" xlink:href="#linear-gradient-18"/>
  </defs>
  <circle cx="473.33" cy="559.44" r="213.27" style="fill: url(#linear-gradient); stroke: #231f20; stroke-miterlimit: 10;"/>
  <ellipse cx="270.27" cy="321.69" rx="91.84" ry="126.53" style="fill: #f15a29; stroke: #231f20; stroke-miterlimit: 10;"/>
  <polygon points="911.08 403.32 858.92 294.56 739.75 275.88 827.07 192.65 808.02 73.55 914.15 130.87 1021.54 75.94 999.81 194.6 1085.24 279.76 965.68 295.76 911.08 403.32" style="fill: url(#Foliage); stroke: #231f20; stroke-miterlimit: 10;"/>
  <polygon points="513.13 311.48 431.07 240.15 325.78 267.3 368.27 167.21 309.91 75.47 418.23 84.95 487.45 1.1 511.9 107.05 613.04 146.96 519.84 202.96 513.13 311.48" style="fill: url(#linear-gradient-18); stroke: #231f20; stroke-miterlimit: 10;"/>
  <polygon points="441.7 897.2 334.45 1007.56 364.56 1158.46 226.47 1090.57 92.25 1165.84 114.15 1013.53 1.08 909.14 152.71 882.89 217.05 743.11 288.87 879.2 441.7 897.2" style="fill: url(#linear-gradient-19); stroke: #231f20; stroke-miterlimit: 10;"/>
  <polygon points="798.84 968.63 690.82 1111.1 746.95 1280.86 578.07 1222.15 433.97 1328 437.62 1149.24 292.43 1044.9 463.56 993.12 517.93 822.8 620.05 969.56 798.84 968.63" style="fill: url(#linear-gradient-20); stroke: #231f20; stroke-miterlimit: 10;"/>
  <polygon points="851.9 717.61 851.22 795.84 915.28 840.76 840.66 864.28 817.74 939.09 772.31 875.39 694.08 876.71 740.62 813.82 715.19 739.83 789.39 764.65 851.9 717.61" style="fill: url(#linear-gradient-21); stroke: #231f20; stroke-miterlimit: 10;"/>
  <polygon points="221.39 605.36 266.18 711.46 196.69 803.3 82.41 789.04 37.62 682.94 107.11 591.1 221.39 605.36" style="fill: url(#linear-gradient-22); stroke: #231f20; stroke-miterlimit: 10;"/>
  <path d="m813.7,541.06c4.21-.65,9.31-5.17,11.91-8.41.87-1.08,1.52-2.37,1.67-3.12,0-.02.07-.46-.37-.97-3.92-4.54-13.14-6.15-19.39-7.17-3.08-.5-6.19-.82-9.3-1.01.5,1.53,1.03,3.05,1.58,4.53,1.95,5.24,6.53,17.27,13.92,16.14Z" style="fill: #be1e2d; stroke: #231f20; stroke-miterlimit: 10;"/>
  <path d="m849.99,463.69c-2.05-3.55-4.37-6.92-7.11-9.95-2.56-2.84-5.43-5.08-8.51-6.77l-13.66-3.73c-4.13-.13-8.38.52-12.61,2.01-12.38,4.33-28.8,15.28-30.77,29.46-1.29,9.34,9.47,11.74,15.46,16.29,7.38,5.61,7.03,12.59,3.71,19.13,7.05.21,14.19,1.42,20.76,3.07,7.84,1.97,19.75,6.14,19.97,15.98.12,5.11-3.19,9.51-6.77,12.8-4.63,4.26-10.67,8.94-17.24,9.16-11.88.39-18.56-12.2-22.33-21.63-1.17-2.92-2.23-5.96-3.16-9.07-.24.03-.34.03,0-.02,0,0,0-.01,0-.02-.46.05-.9.06-1.33.01-.79.91-1.67,1.77-2.63,2.56-7.3,5.92-16.72,5.67-25.22,1.95-1.66,1.92-3.69,3.67-6.14,5.16-1.84,1.13-4.58.8-6.06-.78-5.83-6.21-7.24-13.05-6.21-20.73-5.17-9.05-5.39-19.53,4.17-27.16,1.61-1.28,4.16-2.21,6.06-.78,10.79,8.11,16.66,23.07,13.04,35.37,4.09,1.63,8.63,2.23,12.22.44,6.76-3.37,7.84-12.76,8.01-19.74-2.72-1.61-5.69-2.96-8.16-4.8-13.19-9.78-8.05-26.22,1.18-37.06,6.04-7.09,14.3-13.29,23.32-17.26l-56.98-15.54-76.19,75.51,27.3,103.73,103.27,28.16c-2.34-4.47-3.19-9.24-2.23-14.48,3.24-17.63,20.23-28.18,33.82-37.72,12.54-8.8,24.75-18.36,36.38-28.34,2.04-1.75,3.98-3.52,5.68-5.38l-21.01-79.84Zm-98.09,109.94c-6.45,0-6.43-10,0-10s6.43,10,0,10Z" style="fill: #be1e2d; stroke: #231f20; stroke-miterlimit: 10;"/>
  <path d="m838.28,582.88c-11.98,8.43-30.13,17.98-33.29,33.64-.41,2.05-.31,3.83.14,5.48l61.38-60.83c-9.05,7.68-18.66,14.97-28.23,21.71Z" style="fill: #be1e2d; stroke: #231f20; stroke-miterlimit: 10;"/>
  <path d="m754.43,510.48c.88-6.43-1.76-13.66-6.27-18.59-1.76,2.7-1.95,5.62-.73,8.95,2.12.81,3.77,2.86,3.2,5.66,1.12,1.44,2.41,2.77,3.8,3.98Z" style="fill: #be1e2d; stroke: #231f20; stroke-miterlimit: 10;"/>
</svg>