<svg width="20" height="21" viewBox="0 0 20 21" fill="none" xmlns="http://www.w3.org/2000/svg">
<path d="M17.7066 2.79298C20.3062 5.3926 20.3062 9.60742 17.7066 12.207L16.7066 13.207C16.316 13.5975 15.6829 13.5975 15.2924 13.207C14.9018 12.8165 14.9018 12.1833 15.2924 11.7928L16.2923 10.7928C18.1109 8.97425 18.1109 6.02577 16.2923 4.20719C14.4738 2.38862 11.5253 2.38862 9.7067 4.20719L8.70672 5.20717C8.3162 5.5977 7.68303 5.5977 7.29251 5.20717C6.90198 4.81665 6.90198 4.18348 7.29251 3.79296L8.29249 2.79298C10.8921 0.193356 15.1069 0.193357 17.7066 2.79298Z" fill="white"/>
<path d="M13.7065 6.7929C14.097 7.18343 14.097 7.81659 13.7065 8.20712L7.70659 14.207C7.31606 14.5975 6.6829 14.5975 6.29238 14.207C5.90185 13.8165 5.90185 13.1833 6.29238 12.7928L12.2923 6.7929C12.6828 6.40238 13.316 6.40238 13.7065 6.7929Z" fill="white"/>
<path d="M2.29249 8.79298C-0.307132 11.3926 -0.307132 15.6074 2.29249 18.207C4.89211 20.8067 9.10693 20.8067 11.7066 18.207L12.7065 17.2071C13.0971 16.8165 13.0971 16.1834 12.7065 15.7928C12.316 15.4023 11.6828 15.4023 11.2923 15.7928L10.2923 16.7928C8.47377 18.6114 5.52528 18.6114 3.7067 16.7928C1.88813 14.9743 1.88813 12.0258 3.7067 10.2072L4.70669 9.20721C5.09721 8.81669 5.09721 8.18352 4.70669 7.793C4.31616 7.40247 3.683 7.40247 3.29247 7.793L2.29249 8.79298Z" fill="white"/>
</svg>
