<?xml version="1.0" encoding="UTF-8"?>
<svg xmlns="http://www.w3.org/2000/svg" viewBox="0 0 360 640">
  <g id="bg">
    <rect x="-2302.61" y="-31.9" width="4645.21" height="708.67" fill="#231f20"/>
  </g>
  <g id="Lib">
    <g id="_11" data-name="11">
      <circle cx="116.16" cy="514.14" r="20"/>
      <circle cx="116.16" cy="514.14" r="5" fill="none" stroke="#fff" stroke-miterlimit="10"/>
    </g>
    <g id="_10" data-name="10">
      <circle cx="69.06" cy="464.55" r="20"/>
      <circle cx="69.06" cy="464.55" r="5" fill="none" stroke="#fff" stroke-miterlimit="10"/>
    </g>
    <g id="_9" data-name="9">
      <circle cx="148.39" cy="412.49" r="20"/>
      <circle cx="148.39" cy="412.49" r="5" fill="none" stroke="#fff" stroke-miterlimit="10"/>
    </g>
    <g id="_8" data-name="8">
      <circle cx="276.07" cy="387.7" r="20"/>
      <circle cx="276.07" cy="387.7" r="5" fill="none" stroke="#fff" stroke-miterlimit="10"/>
    </g>
    <g id="_7" data-name="7">
      <circle cx="340" cy="206.73" r="20"/>
      <circle cx="340" cy="206.73" r="5" fill="none" stroke="#fff" stroke-miterlimit="10"/>
    </g>
    <g id="_6" data-name="6">
      <circle cx="225.24" cy="232.76" r="20"/>
      <circle cx="225.24" cy="232.76" r="5" fill="none" stroke="#fff" stroke-miterlimit="10"/>
    </g>
    <g id="_5" data-name="5">
      <circle cx="272.35" cy="137.31" r="20"/>
      <circle cx="272.35" cy="137.31" r="5" fill="none" stroke="#fff" stroke-miterlimit="10"/>
    </g>
    <g id="_4" data-name="4">
      <circle cx="191.78" cy="102.6" r="20"/>
      <circle cx="191.78" cy="102.6" r="5" fill="none" stroke="#fff" stroke-miterlimit="10"/>
    </g>
    <g id="_3" data-name="3">
      <circle cx="124.84" cy="220.36" r="20"/>
      <circle cx="124.84" cy="220.36" r="5" fill="none" stroke="#fff" stroke-miterlimit="10"/>
    </g>
    <g id="_2" data-name="2">
      <circle cx="20" cy="251.35" r="20"/>
      <circle cx="20" cy="251.35" r="5" fill="none" stroke="#fff" stroke-miterlimit="10"/>
    </g>
    <g id="_1" data-name="1">
      <circle cx="29.92" cy="174.5" r="20"/>
      <circle cx="29.92" cy="174.5" r="5" fill="none" stroke="#fff" stroke-miterlimit="10"/>
    </g>
    <g id="line">
      <line x1="72.51" y1="468.18" x2="112.71" y2="510.5" fill="none" opacity=".6" stroke="#fff" stroke-miterlimit="10"/>
      <line x1="144.06" y1="414.44" x2="73.39" y2="462.61" fill="none" opacity=".6" stroke="#fff" stroke-miterlimit="10"/>
      <line x1="271.09" y1="388.67" x2="153.36" y2="411.53" fill="none" opacity=".6" stroke="#fff" stroke-miterlimit="10"/>
      <line x1="338.31" y1="211.47" x2="277.76" y2="382.96" fill="none" opacity=".6" stroke="#fff" stroke-miterlimit="10"/>
      <line x1="275.68" y1="140.69" x2="336.67" y2="203.35" fill="none" opacity=".6" stroke="#fff" stroke-miterlimit="10"/>
      <line x1="196.41" y1="104.6" x2="267.72" y2="135.32" fill="none" opacity=".6" stroke="#fff" stroke-miterlimit="10"/>
      <line x1="127.34" y1="215.97" x2="189.24" y2="107.06" fill="none" opacity=".6" stroke="#fff" stroke-miterlimit="10"/>
      <line x1="25.14" y1="250.2" x2="119.87" y2="221.48" fill="none" opacity=".6" stroke="#fff" stroke-miterlimit="10"/>
      <line x1="29.27" y1="179.48" x2="20.64" y2="246.37" fill="none" opacity=".6" stroke="#fff" stroke-miterlimit="10"/>
      <line x1="224.04" y1="228.07" x2="192.98" y2="107.29" fill="none" opacity=".6" stroke="#fff" stroke-miterlimit="10"/>
      <line x1="274.5" y1="382.92" x2="226.81" y2="237.54" fill="none" opacity=".6" stroke="#fff" stroke-miterlimit="10"/>
    </g>
  </g>
</svg>