<?xml version="1.0" encoding="UTF-8"?>
<svg xmlns="http://www.w3.org/2000/svg" viewBox="0 0 360 640">
  <g id="bg">
    <rect x="-3062.61" y="-31.9" width="4645.21" height="708.67" fill="#231f20"/>
  </g>
  <g id="Sgr">
    <g id="_16" data-name="16">
      <circle cx="155.38" cy="532.44" r="20"/>
      <circle cx="155.38" cy="532.44" r="5" fill="none" stroke="#fff" stroke-miterlimit="10"/>
    </g>
    <g id="_15" data-name="15">
      <circle cx="137.05" cy="475.18" r="20"/>
      <circle cx="137.05" cy="475.18" r="5" fill="none" stroke="#fff" stroke-miterlimit="10"/>
    </g>
    <g id="_14" data-name="14">
      <circle cx="78.65" cy="517.55" r="20"/>
      <circle cx="78.65" cy="517.55" r="5" fill="none" stroke="#fff" stroke-miterlimit="10"/>
    </g>
    <g id="_13" data-name="13">
      <circle cx="36.27" cy="424.79" r="20"/>
      <circle cx="36.27" cy="424.79" r="5" fill="none" stroke="#fff" stroke-miterlimit="10"/>
    </g>
    <g id="_12" data-name="12">
      <circle cx="20.24" cy="286.22" r="20"/>
      <circle cx="20.24" cy="286.22" r="5" fill="none" stroke="#fff" stroke-miterlimit="10"/>
    </g>
    <g id="_11" data-name="11">
      <circle cx="85.52" cy="232.39" r="20"/>
      <circle cx="85.52" cy="232.39" r="5" fill="none" stroke="#fff" stroke-miterlimit="10"/>
    </g>
    <g id="_10" data-name="10">
      <circle cx="273.34" cy="393.87" r="20"/>
      <circle cx="273.34" cy="393.87" r="5" fill="none" stroke="#fff" stroke-miterlimit="10"/>
    </g>
    <g id="_9" data-name="9">
      <circle cx="337.73" cy="331.85" r="20"/>
      <circle cx="337.73" cy="331.85" r="5" fill="none" stroke="#fff" stroke-miterlimit="10"/>
    </g>
    <g id="_8" data-name="8">
      <circle cx="285.88" cy="302.86" r="20"/>
      <circle cx="285.88" cy="302.86" r="5" fill="none" stroke="#fff" stroke-miterlimit="10"/>
    </g>
    <g id="_7" data-name="7">
      <circle cx="339.76" cy="163.68" r="20"/>
      <circle cx="339.76" cy="163.68" r="5" fill="none" stroke="#fff" stroke-miterlimit="10"/>
    </g>
    <g id="_6" data-name="6">
      <circle cx="296.24" cy="234.68" r="20"/>
      <circle cx="296.24" cy="234.68" r="5" fill="none" stroke="#fff" stroke-miterlimit="10"/>
    </g>
    <g id="_5" data-name="5">
      <circle cx="224.09" cy="246.13" r="20"/>
      <circle cx="224.09" cy="246.13" r="5" fill="none" stroke="#fff" stroke-miterlimit="10"/>
    </g>
    <g id="_4" data-name="4">
      <circle cx="208.06" cy="307.98" r="20"/>
      <circle cx="208.06" cy="307.98" r="5" fill="none" stroke="#fff" stroke-miterlimit="10"/>
    </g>
    <g id="_3" data-name="3">
      <circle cx="151.94" cy="272.47" r="20"/>
      <circle cx="151.94" cy="272.47" r="5" fill="none" stroke="#fff" stroke-miterlimit="10"/>
    </g>
    <g id="_2" data-name="2">
      <circle cx="162.25" cy="184.29" r="20"/>
      <circle cx="162.25" cy="184.29" r="5" fill="none" stroke="#fff" stroke-miterlimit="10"/>
    </g>
    <g id="_1" data-name="1">
      <circle cx="110.71" cy="107.56" r="20"/>
      <circle cx="110.71" cy="107.56" r="5" fill="none" stroke="#fff" stroke-miterlimit="10"/>
    </g>
    <g id="line">
      <line x1="298.85" y1="230.42" x2="337.15" y2="167.94" fill="none" opacity=".6" stroke="#fff" stroke-miterlimit="10"/>
      <line x1="229.05" y1="245.47" x2="291.28" y2="235.34" fill="none" opacity=".6" stroke="#fff" stroke-miterlimit="10"/>
      <line x1="156.7" y1="270.74" x2="219.34" y2="247.87" fill="none" opacity=".6" stroke="#fff" stroke-miterlimit="10"/>
      <line x1="90.36" y1="234.49" x2="147.1" y2="270.37" fill="none" opacity=".6" stroke="#fff" stroke-miterlimit="10"/>
      <line x1="23.9" y1="283.2" x2="81.86" y2="235.41" fill="none" opacity=".6" stroke="#fff" stroke-miterlimit="10"/>
      <line x1="35.73" y1="420.13" x2="20.78" y2="290.84" fill="none" opacity=".6" stroke="#fff" stroke-miterlimit="10"/>
      <line x1="76.62" y1="513.12" x2="38.3" y2="429.22" fill="none" opacity=".6" stroke="#fff" stroke-miterlimit="10"/>
      <line x1="150.75" y1="531.54" x2="83.27" y2="518.45" fill="none" opacity=".6" stroke="#fff" stroke-miterlimit="10"/>
      <line x1="333.3" y1="329.35" x2="290.43" y2="305.15" fill="none" opacity=".6" stroke="#fff" stroke-miterlimit="10"/>
      <line x1="295.55" y1="239.5" x2="286.63" y2="298.11" fill="none" opacity=".6" stroke="#fff" stroke-miterlimit="10"/>
      <line x1="285.16" y1="307.66" x2="274.02" y2="389.13" fill="none" opacity=".6" stroke="#fff" stroke-miterlimit="10"/>
      <line x1="159.39" y1="180.04" x2="113.57" y2="111.81" fill="none" opacity=".6" stroke="#fff" stroke-miterlimit="10"/>
      <line x1="152.53" y1="267.47" x2="161.66" y2="189.29" fill="none" opacity=".6" stroke="#fff" stroke-miterlimit="10"/>
      <line x1="203.77" y1="305.26" x2="156.23" y2="275.19" fill="none" opacity=".6" stroke="#fff" stroke-miterlimit="10"/>
      <line x1="222.87" y1="250.85" x2="209.28" y2="303.26" fill="none" opacity=".6" stroke="#fff" stroke-miterlimit="10"/>
      <line x1="82.95" y1="514.54" x2="132.81" y2="478.27" fill="none" opacity=".6" stroke="#fff" stroke-miterlimit="10"/>
    </g>
  </g>
</svg>