<svg width="16" height="16" viewBox="0 0 16 16" fill="none" xmlns="http://www.w3.org/2000/svg">
<path fillRule="evenodd" clipRule="evenodd" d="M7.08324 1.99538C7.24577 0.94816 8.75415 0.94815 8.91668 1.99538C9.32376 4.61831 11.3816 6.67616 14.0045 7.08324C15.0518 7.24577 15.0518 8.75415 14.0045 8.91668C11.3816 9.32376 9.32376 11.3816 8.91668 14.0045C8.75415 15.0518 7.24577 15.0518 7.08324 14.0045C6.67616 11.3816 4.61831 9.32376 1.99538 8.91668C0.94816 8.75415 0.94815 7.24577 1.99538 7.08324C4.61831 6.67616 6.67616 4.61831 7.08324 1.99538ZM7.99996 4.34022C7.2413 5.94526 5.94526 7.2413 4.34022 7.99996C5.94526 8.75862 7.2413 10.0547 7.99996 11.6597C8.75862 10.0547 10.0547 8.75862 11.6597 7.99996C10.0547 7.2413 8.75862 5.94526 7.99996 4.34022Z" fill="white"/>
</svg>
