<svg width="16" height="16" viewBox="0 0 16 16" fill="none" xmlns="http://www.w3.org/2000/svg">
<path d="M8 4.00069C8.32217 4.00069 8.58333 4.26186 8.58333 4.58402V9.07524C8.58333 9.3974 8.32217 9.65857 8 9.65857C7.67783 9.65857 7.41667 9.3974 7.41667 9.07524V4.58402C7.41667 4.26186 7.67783 4.00069 8 4.00069Z" fill="white"/>
<path d="M8 12.0862C8.36212 12.0862 8.65568 11.7926 8.65568 11.4305C8.65568 11.0684 8.36212 10.7748 8 10.7748C7.63788 10.7748 7.34432 11.0684 7.34432 11.4305C7.34432 11.7926 7.63788 12.0862 8 12.0862Z" fill="white"/>
<path fillRule="evenodd" clipRule="evenodd" d="M8 15C11.866 15 15 11.866 15 8C15 4.13401 11.866 1 8 1C4.13401 1 1 4.13401 1 8C1 11.866 4.13401 15 8 15ZM8 13.8333C11.2217 13.8333 13.8333 11.2217 13.8333 8C13.8333 4.77834 11.2217 2.16667 8 2.16667C4.77834 2.16667 2.16667 4.77834 2.16667 8C2.16667 11.2217 4.77834 13.8333 8 13.8333Z" fill="white"/>
</svg>
