<svg width="24" height="24" viewBox="0 0 24 24" fill="none" xmlns="http://www.w3.org/2000/svg">
<path d="M19.7066 4.29298C22.3062 6.8926 22.3062 11.1074 19.7066 13.707L18.7066 14.707C18.316 15.0975 17.6829 15.0975 17.2924 14.707C16.9018 14.3165 16.9018 13.6833 17.2924 13.2928L18.2923 12.2928C20.1109 10.4743 20.1109 7.52577 18.2923 5.70719C16.4738 3.88862 13.5253 3.88862 11.7067 5.70719L10.7067 6.70717C10.3162 7.0977 9.68303 7.0977 9.29251 6.70717C8.90198 6.31665 8.90198 5.68348 9.29251 5.29296L10.2925 4.29298C12.8921 1.69336 17.1069 1.69336 19.7066 4.29298Z" fill="white"/>
<path d="M15.7065 8.2929C16.097 8.68343 16.097 9.31659 15.7065 9.70712L9.70659 15.707C9.31606 16.0975 8.6829 16.0975 8.29238 15.707C7.90185 15.3165 7.90185 14.6833 8.29238 14.2928L14.2923 8.2929C14.6828 7.90238 15.316 7.90238 15.7065 8.2929Z" fill="white"/>
<path d="M4.29249 10.293C1.69287 12.8926 1.69287 17.1074 4.29249 19.707C6.89211 22.3067 11.1069 22.3067 13.7066 19.707L14.7065 18.7071C15.0971 18.3165 15.0971 17.6834 14.7065 17.2928C14.316 16.9023 13.6828 16.9023 13.2923 17.2928L12.2923 18.2928C10.4738 20.1114 7.52528 20.1114 5.7067 18.2928C3.88813 16.4743 3.88813 13.5258 5.7067 11.7072L6.70669 10.7072C7.09721 10.3167 7.09721 9.68352 6.70669 9.293C6.31616 8.90247 5.683 8.90247 5.29247 9.293L4.29249 10.293Z" fill="white"/>
</svg>
