<svg width="24" height="24" viewBox="0 0 24 24" fill="none" xmlns="http://www.w3.org/2000/svg">
<path d="M7 2C4.23858 2 2 4.23858 2 7V17C2 19.7614 4.23858 22 7 22H12C12.5523 22 13 21.5523 13 21C13 20.4477 12.5523 20 12 20H7C5.34315 20 4 18.6569 4 17V7C4 5.34315 5.34315 4 7 4H12C12.5523 4 13 3.55228 13 3C13 2.44772 12.5523 2 12 2H7Z" fill="white"/>
<path d="M21.7071 11.2928L16.3431 5.92888C15.9526 5.53836 15.3195 5.53836 14.9289 5.92888C14.5384 6.3194 14.5384 6.95257 14.9289 7.34309L18.5858 10.9999H9C8.44772 10.9999 8 11.4477 8 11.9999C8 12.5522 8.44772 12.9999 9 12.9999H18.5858L14.9289 16.6568C14.5384 17.0473 14.5384 17.6805 14.9289 18.071C15.3195 18.4615 15.9526 18.4615 16.3431 18.071L21.7071 12.7071C22.0976 12.3165 22.0976 11.6834 21.7071 11.2928Z" fill="white"/>
</svg>
