<svg width="44" height="44" viewBox="0 0 44 44" fill="none" xmlns="http://www.w3.org/2000/svg">
<g clipPath="url(#clip0_707_5163)">
<circle cx="22" cy="22" r="21.5" stroke="white" strokeOpacity="0.3"/>
<path fillRule="evenodd" clipRule="evenodd" d="M29.864 12.0253C27.6127 11.903 23.1053 12.0789 19.0948 15.9423C15.0593 19.8297 15.0978 23.907 15.4018 26.3658C15.4145 26.4686 15.4352 26.569 15.4632 26.6664L12.2474 30.3415C11.8838 30.7571 11.9259 31.3889 12.3415 31.7526C12.7571 32.1163 13.3889 32.0742 13.7526 31.6585L16.9277 28.0298C17.0159 28.0482 17.1063 28.0606 17.1987 28.0665C19.5865 28.2206 21.7206 27.8199 23.4312 27.1202C25.1213 26.4288 26.4708 25.4136 27.196 24.2747C27.4074 23.9428 27.4568 23.5663 27.3986 23.2346L27.145 21.7914H29.1822C29.5723 21.7914 29.9905 21.6365 30.2878 21.287C30.6824 20.8232 31.6254 19.552 31.9131 17.6631C32.1574 16.0595 31.8301 14.3532 31.6167 13.4747C31.4148 12.6433 30.694 12.0704 29.864 12.0253ZM20.4823 17.3826C23.8805 14.1092 27.6735 13.9175 29.6905 14.019C29.8852 14.8424 30.1143 16.1912 29.9359 17.3619C29.7592 18.5218 29.2412 19.3663 28.9233 19.7914H26.5495C25.6173 19.7914 24.9109 20.6327 25.0722 21.5509L25.3918 23.3702C24.9144 24.0121 24.0004 24.7265 22.674 25.2691C21.2619 25.8467 19.4504 26.1995 17.381 26.074C17.1223 23.9373 17.1058 20.6353 20.4823 17.3826Z" fill="white" fillOpacity="0.3"/>
</g>
<defs>
<clipPath id="clip0_707_5163">
<rect width="44" height="44" fill="white"/>
</clipPath>
</defs>
</svg>
